{
.appVersion = "926";
copyright = "(C) 2008-2014 Andrey V. Panov (panov@canopus.iacp.dvo.ru), with Reserved Font Name Istok.";
date = "2016-10-15 02:32:12 +0000";
designer = "Andrey V. Panov";
designerURL = "http://code.google.com/u/andrej.panov/";
disablesAutomaticAlignment = 1;
familyName = Istok;
featurePrefixes = (
{
automatic = 1;
code = "languagesystem DFLT dflt;\012";
name = Languagesystems;
}
);
features = (
{
automatic = 1;
code = "feature frac;\012feature ordn;\012feature c2sc;\012";
name = aalt;
},
{
automatic = 1;
code = "sub one slash eight by oneeighth;\012sub one slash four by onequarter;\012sub three slash eight by threeeighths;\012sub one slash two by onehalf;\012sub five slash eight by fiveeighths;\012sub three slash four by threequarters;\012sub seven slash eight by seveneighths;\012sub one slash three by onethird;\012sub two slash three by twothirds;\012";
name = frac;
},
{
automatic = 1;
code = "sub [zero one two three four five six seven eight nine] [A a]' by ordfeminine;\012sub [zero one two three four five six seven eight nine] [O o]' by ordmasculine;\012";
name = ordn;
},
{
automatic = 1;

glyphs = (
{
glyphname = A;
lastChange = "2016-10-15 02:31:49 +0000";
layers = (
{
layerId = UUID0;
paths = (
{
closed = 1;
nodes = (
"175 0 LINE SMOOTH",
"209 0 OFFCURVE",
"234 16 OFFCURVE",
"247 49 CURVE SMOOTH",
"372 380 LINE",
"988 380 LINE",
"1113 49 LINE SMOOTH",
"1125 16 OFFCURVE",
"1150 0 OFFCURVE",
"1185 0 CURVE SMOOTH",
"1287 0 LINE SMOOTH",
"1310 0 OFFCURVE",
"1322 10 OFFCURVE",
"1322 30 CURVE SMOOTH",
"1322 40 OFFCURVE",
"1319 51 OFFCURVE",
"1314 66 CURVE",
"816 1373 LINE SMOOTH",
"800 1414 OFFCURVE",
"779 1434 OFFCURVE",
"750 1434 CURVE SMOOTH",
"610 1434 LINE SMOOTH",
"580 1434 OFFCURVE",
"559 1414 OFFCURVE",
"544 1373 CURVE SMOOTH",
"46 66 LINE SMOOTH",
"40 51 OFFCURVE",
"38 40 OFFCURVE",
"38 30 CURVE SMOOTH",
"38 10 OFFCURVE",
"49 0 OFFCURVE",
"73 0 CURVE SMOOTH"
);
},
{
closed = 1;
nodes = (
"588 944 LINE SMOOTH",
"618 1024 OFFCURVE",
"639 1090 OFFCURVE",
"678 1261 CURVE",
"682 1261 LINE",
"721 1089 OFFCURVE",
"741 1024 OFFCURVE",
"772 944 CURVE SMOOTH",
"925 544 LINE",
"435 544 LINE"
);
}
);
width = 1360;
},
{
layerId = "39B5C782-31E0-4FF6-90B4-6BA13107E116";
paths = (
{
closed = 1;
nodes = (
"249 0 LINE SMOOTH",
"293 0 OFFCURVE",
"323 23 OFFCURVE",
"341 69 CURVE SMOOTH",
"443 338 LINE",
"951 338 LINE",
"1053 69 LINE SMOOTH",
"1070 23 OFFCURVE",
"1101 0 OFFCURVE",
"1145 0 CURVE SMOOTH",
"1304 0 LINE SMOOTH",
"1339 0 OFFCURVE",
"1357 12 OFFCURVE",
"1357 36 CURVE SMOOTH",
"1357 45 OFFCURVE",
"1355 54 OFFCURVE",
"1351 66 CURVE SMOOTH",
"861 1353 LINE SMOOTH",
"840 1407 OFFCURVE",
"809 1434 OFFCURVE",
"767 1434 CURVE SMOOTH",
"627 1434 LINE SMOOTH",
"585 1434 OFFCURVE",
"553 1407 OFFCURVE",
"533 1353 CURVE SMOOTH",
"43 66 LINE SMOOTH",
"38 54 OFFCURVE",
"36 45 OFFCURVE",
"36 36 CURVE SMOOTH",
"36 12 OFFCURVE",
"54 0 OFFCURVE",
"90 0 CURVE SMOOTH"
);
},
{
closed = 1;
nodes = (
"659 904 LINE SMOOTH",
"690 982 OFFCURVE",
"688 989 OFFCURVE",
"695 1061 CURVE",
"699 1061 LINE",
"705 988 OFFCURVE",
"703 983 OFFCURVE",
"735 904 CURVE",
"858 586 LINE",
"536 586 LINE"
);
}
);
width = 1394;
}
);
unicode = 0041;
},
{
glyphname = Aogonek;
lastChange = "2016-10-15 02:31:49 +0000";
layers = (
{
layerId = UUID0;
paths = (
{
closed = 1;
nodes = (
"175 0 LINE SMOOTH",
"209 0 OFFCURVE",
"234 16 OFFCURVE",
"247 49 CURVE SMOOTH",
"372 380 LINE",
"988 380 LINE",
"1113 49 LINE SMOOTH",
"1119 33 OFFCURVE",
"1122 20 OFFCURVE",
"1122 10 CURVE SMOOTH",
"1122 -2 OFFCURVE",
"1118 -10 OFFCURVE",
"1111 -16 CURVE SMOOTH",
"1012 -90 OFFCURVE",
"953 -134 OFFCURVE",
"953 -255 CURVE SMOOTH",
"953 -335 OFFCURVE",
"1016 -417 OFFCURVE",
"1171 -417 CURVE SMOOTH",
"1209 -417 OFFCURVE",
"1313 -417 OFFCURVE",
"1313 -386 CURVE SMOOTH",
"1313 -383 OFFCURVE",
"1312 -381 OFFCURVE",
"1312 -378 CURVE SMOOTH",
"1299 -299 LINE SMOOTH",
"1297 -286 OFFCURVE",
"1290 -279 OFFCURVE",
"1280 -279 CURVE SMOOTH",
"1260 -279 OFFCURVE",
"1231 -287 OFFCURVE",
"1194 -287 CURVE SMOOTH",
"1139 -287 OFFCURVE",
"1113 -262 OFFCURVE",
"1113 -211 CURVE SMOOTH",
"1113 -133 OFFCURVE",
"1233 -39 OFFCURVE",
"1305 0 CURVE SMOOTH",
"1316 6 OFFCURVE",
"1322 16 OFFCURVE",
"1322 30 CURVE SMOOTH",
"1322 40 OFFCURVE",
"1319 52 OFFCURVE",
"1314 66 CURVE SMOOTH",
"816 1373 LINE SMOOTH",
"800 1414 OFFCURVE",
"779 1434 OFFCURVE",
"750 1434 CURVE SMOOTH",
"610 1434 LINE SMOOTH",
"580 1434 OFFCURVE",
"559 1414 OFFCURVE",
"544 1373 CURVE SMOOTH",
"46 66 LINE SMOOTH",
"40 51 OFFCURVE",
"38 40 OFFCURVE",
"38 30 CURVE SMOOTH",
"38 10 OFFCURVE",
"49 0 OFFCURVE",
"73 0 CURVE SMOOTH"
);
},
{
closed = 1;
nodes = (
"588 944 LINE SMOOTH",
"618 1024 OFFCURVE",
"639 1090 OFFCURVE",
"678 1261 CURVE",
"682 1261 LINE",
"721 1089 OFFCURVE",
"741 1024 OFFCURVE",
"772 944 CURVE SMOOTH",
"925 544 LINE",
"435 544 LINE"
);
}
);
width = 1360;
},
{
layerId = "39B5C782-31E0-4FF6-90B4-6BA13107E116";
paths = (
{
closed = 1;
nodes = (
"249 0 LINE SMOOTH",
"293 0 OFFCURVE",
"323 23 OFFCURVE",
"341 69 CURVE SMOOTH",
"443 338 LINE",
"951 338 LINE",
"1053 69 LINE SMOOTH",
"1058 56 OFFCURVE",
"1061 44 OFFCURVE",
"1061 33 CURVE SMOOTH",
"1061 20 OFFCURVE",
"1056 8 OFFCURVE",
"1047 0 CURVE SMOOTH",
"906 -123 OFFCURVE",
"896 -174 OFFCURVE",
"892 -247 CURVE",
"892 -360 OFFCURVE",
"986 -420 OFFCURVE",
"1174 -420 CURVE SMOOTH",
"1279 -420 OFFCURVE",
"1342 -418 OFFCURVE",
"1342 -375 CURVE SMOOTH",
"1342 -373 OFFCURVE",
"1342 -371 OFFCURVE",
"1342 -368 CURVE SMOOTH",
"1328 -250 LINE SMOOTH",
"1325 -229 OFFCURVE",
"1315 -218 OFFCURVE",
"1297 -218 CURVE SMOOTH",
"1275 -218 OFFCURVE",
"1245 -224 OFFCURVE",
"1207 -224 CURVE SMOOTH",
"1164 -224 OFFCURVE",
"1128 -217 OFFCURVE",
"1128 -176 CURVE SMOOTH",
"1128 -135 OFFCURVE",
"1306 -12 OFFCURVE",
"1322 -6 CURVE SMOOTH",
"1345 2 OFFCURVE",
"1357 16 OFFCURVE",
"1357 37 CURVE SMOOTH",
"1357 45 OFFCURVE",
"1355 55 OFFCURVE",
"1351 66 CURVE SMOOTH",
"861 1353 LINE SMOOTH",
"840 1407 OFFCURVE",
"809 1434 OFFCURVE",
"767 1434 CURVE SMOOTH",
"627 1434 LINE SMOOTH",
"585 1434 OFFCURVE",
"553 1407 OFFCURVE",
"533 1353 CURVE SMOOTH",
"43 66 LINE SMOOTH",
"38 54 OFFCURVE",
"36 45 OFFCURVE",
"36 36 CURVE SMOOTH",
"36 12 OFFCURVE",
"54 0 OFFCURVE",
"90 0 CURVE SMOOTH"
);
},
{
closed = 1;
nodes = (
"659 904 LINE SMOOTH",
"690 982 OFFCURVE",
"688 989 OFFCURVE",
"695 1061 CURVE",
"699 1061 LINE",
"705 988 OFFCURVE",
"703 983 OFFCURVE",
"735 904 CURVE",
"858 586 LINE",
"536 586 LINE"
);
}
);
width = 1394;
}
);
unicode = 0104;
},
{
glyphname = AE;
lastChange = "2016-10-15 02:31:49 +0000";
layers = (
{
layerId = UUID0;
paths = (
{
closed = 1;
nodes = (
"180 0 LINE SMOOTH",
"209 0 OFFCURVE",
"232 16 OFFCURVE",
"248 49 CURVE SMOOTH",
"408 380 LINE",
"897 380 LINE",
"897 55 LINE SMOOTH",
"897 18 OFFCURVE",
"914 0 OFFCURVE",
"947 0 CURVE SMOOTH",
"1812 0 LINE SMOOTH",
"1849 0 OFFCURVE",
"1867 15 OFFCURVE",
"1867 45 CURVE SMOOTH",
"1867 119 LINE SMOOTH",
"1867 149 OFFCURVE",
"1849 164 OFFCURVE",
"1812 164 CURVE SMOOTH",
"1089 164 LINE",
"1089 662 LINE",
"1722 662 LINE SMOOTH",
"1759 662 OFFCURVE",
"1777 677 OFFCURVE",
"1777 707 CURVE SMOOTH",
"1777 781 LINE SMOOTH",
"1777 811 OFFCURVE",
"1759 826 OFFCURVE",
"1722 826 CURVE SMOOTH",
"1089 826 LINE",
"1089 1270 LINE",
"1782 1270 LINE SMOOTH",
"1819 1270 OFFCURVE",
"1837 1285 OFFCURVE",
"1837 1315 CURVE SMOOTH",
"1837 1389 LINE SMOOTH",
"1837 1419 OFFCURVE",
"1819 1434 OFFCURVE",
"1782 1434 CURVE SMOOTH",
"758 1434 LINE SMOOTH",
"729 1434 OFFCURVE",
"707 1417 OFFCURVE",
"690 1382 CURVE SMOOTH",
"46 66 LINE SMOOTH",
"38 51 OFFCURVE",
"35 38 OFFCURVE",
"35 28 CURVE SMOOTH",
"35 9 OFFCURVE",
"48 0 OFFCURVE",
"73 0 CURVE SMOOTH"
);
},
{
closed = 1;
nodes = (
"738 1053 LINE SMOOTH",
"781 1141 OFFCURVE",
"805 1190 OFFCURVE",
"827 1270 CURVE",
"897 1270 LINE",
"897 544 LINE",
"489 544 LINE"
);
}
);
width = 1957;
},
{
layerId = "39B5C782-31E0-4FF6-90B4-6BA13107E116";
paths = (
{
closed = 1;
nodes = (
"252 0 LINE SMOOTH",
"294 0 OFFCURVE",
"324 23 OFFCURVE",
"344 69 CURVE SMOOTH",
"458 338 LINE",
"824 338 LINE",
"824 75 LINE SMOOTH",
"824 25 OFFCURVE",
"847 0 OFFCURVE",
"894 0 CURVE SMOOTH",
"1751 0 LINE SMOOTH",
"1801 0 OFFCURVE",
"1826 22 OFFCURVE",
"1826 65 CURVE SMOOTH",
"1826 183 LINE SMOOTH",
"1826 226 OFFCURVE",
"1801 248 OFFCURVE",
"1751 248 CURVE SMOOTH",
"1116 248 LINE",
"1116 620 LINE",
"1666 620 LINE SMOOTH",
"1716 620 OFFCURVE",
"1741 642 OFFCURVE",
"1741 685 CURVE SMOOTH",
"1741 803 LINE SMOOTH",
"1741 846 OFFCURVE",
"1716 868 OFFCURVE",
"1666 868 CURVE SMOOTH",
"1116 868 LINE",
"1116 1186 LINE",
"1719 1186 LINE SMOOTH",
"1769 1186 OFFCURVE",
"1794 1208 OFFCURVE",
"1794 1251 CURVE SMOOTH",
"1794 1369 LINE SMOOTH",
"1794 1412 OFFCURVE",
"1769 1434 OFFCURVE",
"1719 1434 CURVE SMOOTH",
"681 1434 LINE SMOOTH",
"641 1434 OFFCURVE",
"610 1407 OFFCURVE",
"587 1353 CURVE SMOOTH",
"43 66 LINE SMOOTH",
"38 54 OFFCURVE",
"35 44 OFFCURVE",
"35 35 CURVE SMOOTH",
"35 12 OFFCURVE",
"53 0 OFFCURVE",
"90 0 CURVE SMOOTH"
);
},
{
closed = 1;
nodes = (
"723 964 LINE SMOOTH",
"755 1038 OFFCURVE",
"772 1089 OFFCURVE",
"788 1186 CURVE",
"824 1186 LINE",
"824 586 LINE",
"562 586 LINE"
);
}
);
width = 1911;
}
);
unicode = 00C6;
},
{
glyphname = B;
lastChange = "2016-10-15 02:31:49 +0000";
layers = (
{
layerId = UUID0;
paths = (
{
closed = 1;
nodes = (
"660 0 LINE SMOOTH",
"885 0 OFFCURVE",
"1039 38 OFFCURVE",
"1122 114 CURVE SMOOTH",
"1206 190 OFFCURVE",
"1248 285 OFFCURVE",
"1248 398 CURVE SMOOTH",
"1248 503 OFFCURVE",
"1206 585 OFFCURVE",
"1123 646 CURVE SMOOTH",
"1040 707 OFFCURVE",
"965 741 OFFCURVE",
"898 747 CURVE",
"898 750 LINE",
"1015 769 OFFCURVE",
"1186 893 OFFCURVE",
"1186 1059 CURVE SMOOTH",
"1186 1162 OFFCURVE",
"1147 1251 OFFCURVE",
"1068 1324 CURVE SMOOTH",
"989 1397 OFFCURVE",
"837 1434 OFFCURVE",
"610 1434 CURVE SMOOTH",
"220 1434 LINE SMOOTH",
"187 1434 OFFCURVE",
"170 1416 OFFCURVE",
"170 1379 CURVE SMOOTH",
"170 55 LINE SMOOTH",
"170 18 OFFCURVE",
"187 0 OFFCURVE",
"220 0 CURVE SMOOTH"
);
},
{
closed = 1;
nodes = (
"362 664 LINE",
"628 664 LINE SMOOTH",
"911 664 OFFCURVE",
"1043 569 OFFCURVE",
"1043 404 CURVE SMOOTH",
"1043 224 OFFCURVE",
"913 164 OFFCURVE",
"628 164 CURVE SMOOTH",
"362 164 LINE"
);
},
{
closed = 1;
nodes = (
"362 1270 LINE",
"613 1270 LINE SMOOTH",
"911 1270 OFFCURVE",
"991 1194 OFFCURVE",
"991 1059 CURVE SMOOTH",
"991 916 OFFCURVE",
"835 808 OFFCURVE",
"613 808 CURVE SMOOTH",
"362 808 LINE"
);
}
);
width = 1358;
},
{
layerId = "39B5C782-31E0-4FF6-90B4-6BA13107E116";
paths = (
{
closed = 1;
nodes = (
"630 0 LINE SMOOTH",
"1094 0 OFFCURVE",
"1275 170 OFFCURVE",
"1275 412 CURVE SMOOTH",
"1275 517 OFFCURVE",
"1234 598 OFFCURVE",
"1152 655 CURVE SMOOTH",
"1070 712 OFFCURVE",
"999 743 OFFCURVE",
"938 747 CURVE",
"938 750 LINE",
"1001 758 OFFCURVE",
"1065 787 OFFCURVE",
"1132 837 CURVE SMOOTH",
"1199 887 OFFCURVE",
"1233 958 OFFCURVE",
"1233 1049 CURVE SMOOTH",
"1233 1180 OFFCURVE",
"1188 1276 OFFCURVE",
"1098 1339 CURVE SMOOTH",
"1009 1402 OFFCURVE",
"836 1434 OFFCURVE",
"580 1434 CURVE SMOOTH",
"240 1434 LINE SMOOTH",
"187 1434 OFFCURVE",
"160 1409 OFFCURVE",
"160 1359 CURVE SMOOTH",
"160 75 LINE SMOOTH",
"160 25 OFFCURVE",
"187 0 OFFCURVE",
"240 0 CURVE SMOOTH"
);
},
{
closed = 1;
nodes = (
"452 618 LINE",
"598 618 LINE SMOOTH",
"847 618 OFFCURVE",
"963 572 OFFCURVE",
"963 431 CURVE SMOOTH",
"963 281 OFFCURVE",
"884 244 OFFCURVE",
"598 244 CURVE SMOOTH",
"452 244 LINE"
);
},
{
closed = 1;
nodes = (
"452 1190 LINE",
"583 1190 LINE SMOOTH",
"736 1190 OFFCURVE",
"832 1176 OFFCURVE",
"874 1151 CURVE SMOOTH",
"916 1125 OFFCURVE",
"937 1088 OFFCURVE",
"937 1039 CURVE SMOOTH",
"937 910 OFFCURVE",
"746 854 OFFCURVE",
"583 854 CURVE SMOOTH",
"452 854 LINE"
);
}
);
width = 1379;
}
);
unicode = 0042;
},
{
glyphname = C;
lastChange = "2016-10-15 02:31:49 +0000";
layers = (
{
layerId = UUID0;
paths = (
{
closed = 1;
nodes = (
"92 254 OFFCURVE",
"328 -30 OFFCURVE",
"764 -30 CURVE SMOOTH",
"1034 -30 OFFCURVE",
"1214 85 OFFCURVE",
"1291 238 CURVE SMOOTH",
"1300 256 OFFCURVE",
"1305 271 OFFCURVE",
"1305 284 CURVE SMOOTH",
"1304 299 OFFCURVE",
"1298 310 OFFCURVE",
"1285 318 CURVE SMOOTH",
"1202 365 LINE SMOOTH",
"1194 369 OFFCURVE",
"1187 371 OFFCURVE",
"1179 371 CURVE SMOOTH",
"1161 371 OFFCURVE",
"1145 358 OFFCURVE",
"1130 330 CURVE SMOOTH",
"1080 237 OFFCURVE",
"968 126 OFFCURVE",
"774 126 CURVE SMOOTH",
"437 126 OFFCURVE",
"297 347 OFFCURVE",
"297 717 CURVE SMOOTH",
"297 1089 OFFCURVE",
"439 1308 OFFCURVE",
"774 1308 CURVE SMOOTH",
"962 1308 OFFCURVE",
"1054 1217 OFFCURVE",
"1097 1135 CURVE SMOOTH",
"1112 1105 OFFCURVE",
"1128 1091 OFFCURVE",
"1146 1091 CURVE SMOOTH",
"1153 1091 OFFCURVE",
"1160 1093 OFFCURVE",
"1168 1097 CURVE SMOOTH",
"1247 1143 LINE SMOOTH",
"1261 1151 OFFCURVE",
"1268 1163 OFFCURVE",
"1268 1179 CURVE SMOOTH",
"1268 1192 OFFCURVE",
"1264 1206 OFFCURVE",
"1256 1223 CURVE SMOOTH",
"1184 1372 OFFCURVE",
"1017 1464 OFFCURVE",
"764 1464 CURVE SMOOTH",
"331 1464 OFFCURVE",
"92 1182 OFFCURVE",
"92 717 CURVE SMOOTH"
);
}
);
width = 1402;
},
{
layerId = "39B5C782-31E0-4FF6-90B4-6BA13107E116";
paths = (
{
closed = 1;
nodes = (
"86 259 OFFCURVE",
"332 -34 OFFCURVE",
"766 -34 CURVE SMOOTH",
"1034 -34 OFFCURVE",
"1231 76 OFFCURVE",
"1308 208 CURVE SMOOTH",
"1319 228 OFFCURVE",
"1325 246 OFFCURVE",
"1325 261 CURVE SMOOTH",
"1325 280 OFFCURVE",
"1316 296 OFFCURVE",
"1298 308 CURVE SMOOTH",
"1178 388 LINE SMOOTH",
"1166 396 OFFCURVE",
"1154 400 OFFCURVE",
"1142 400 CURVE SMOOTH",
"1092 400 OFFCURVE",
"1077 326 OFFCURVE",
"966 253 CURVE SMOOTH",
"914 219 OFFCURVE",
"851 202 OFFCURVE",
"776 202 CURVE SMOOTH",
"492 202 OFFCURVE",
"398 388 OFFCURVE",
"398 717 CURVE SMOOTH",
"398 1048 OFFCURVE",
"494 1232 OFFCURVE",
"776 1232 CURVE SMOOTH",
"901 1232 OFFCURVE",
"1005 1172 OFFCURVE",
"1038 1112 CURVE SMOOTH",
"1056 1079 OFFCURVE",
"1078 1063 OFFCURVE",
"1104 1063 CURVE SMOOTH",
"1116 1063 OFFCURVE",
"1128 1067 OFFCURVE",
"1142 1074 CURVE SMOOTH",
"1262 1138 LINE SMOOTH",
"1280 1148 OFFCURVE",
"1289 1163 OFFCURVE",
"1289 1183 CURVE SMOOTH",
"1289 1199 OFFCURVE",
"1284 1217 OFFCURVE",
"1274 1238 CURVE SMOOTH",
"1202 1387 OFFCURVE",
"1019 1468 OFFCURVE",
"766 1468 CURVE SMOOTH",
"325 1468 OFFCURVE",
"86 1173 OFFCURVE",
"86 717 CURVE SMOOTH"
);
}
);
width = 1418;
}
);
unicode = 0043;
},
{
glyphname = D;
lastChange = "2016-10-15 02:31:49 +0000";
layers = (
{
layerId = UUID0;
paths = (
{
closed = 1;
nodes = (
"589 0 LINE SMOOTH",
"872 0 OFFCURVE",
"1068 63 OFFCURVE",
"1178 189 CURVE SMOOTH",
"1289 316 OFFCURVE",
"1344 492 OFFCURVE",
"1344 719 CURVE SMOOTH",
"1344 946 OFFCURVE",
"1289 1120 OFFCURVE",
"1178 1246 CURVE SMOOTH",
"1068 1371 OFFCURVE",
"872 1434 OFFCURVE",
"589 1434 CURVE SMOOTH",
"220 1434 LINE SMOOTH",
"187 1434 OFFCURVE",
"170 1416 OFFCURVE",
"170 1379 CURVE SMOOTH",
"170 55 LINE SMOOTH",
"170 18 OFFCURVE",
"187 0 OFFCURVE",
"220 0 CURVE SMOOTH"
);
},
{
closed = 1;
nodes = (
"362 1272 LINE",
"580 1272 LINE SMOOTH",
"800 1272 OFFCURVE",
"947 1226 OFFCURVE",
"1024 1133 CURVE SMOOTH",
"1101 1040 OFFCURVE",
"1139 902 OFFCURVE",
"1139 719 CURVE SMOOTH",
"1139 536 OFFCURVE",
"1101 397 OFFCURVE",
"1024 304 CURVE SMOOTH",
"948 211 OFFCURVE",
"800 164 OFFCURVE",
"580 164 CURVE SMOOTH",
"362 164 LINE"
);
}
);
width = 1436;
},
{
layerId = "39B5C782-31E0-4FF6-90B4-6BA13107E116";
paths = (
{
closed = 1;
nodes = (
"579 0 LINE SMOOTH",
"886 0 OFFCURVE",
"1092 63 OFFCURVE",
"1201 188 CURVE SMOOTH",
"1310 313 OFFCURVE",
"1364 490 OFFCURVE",
"1364 719 CURVE SMOOTH",
"1364 948 OFFCURVE",
"1310 1123 OFFCURVE",
"1201 1248 CURVE SMOOTH",
"1093 1372 OFFCURVE",
"886 1434 OFFCURVE",
"579 1434 CURVE SMOOTH",
"230 1434 LINE SMOOTH",
"183 1434 OFFCURVE",
"160 1409 OFFCURVE",
"160 1359 CURVE SMOOTH",
"160 75 LINE SMOOTH",
"160 25 OFFCURVE",
"183 0 OFFCURVE",
"230 0 CURVE SMOOTH"
);
},
{
closed = 1;
nodes = (
"452 1188 LINE",
"560 1188 LINE SMOOTH",
"767 1188 OFFCURVE",
"900 1150 OFFCURVE",
"961 1073 CURVE SMOOTH",
"1022 997 OFFCURVE",
"1052 879 OFFCURVE",
"1052 719 CURVE SMOOTH",
"1052 559 OFFCURVE",
"1022 440 OFFCURVE",
"961 363 CURVE SMOOTH",
"900 286 OFFCURVE",
"767 248 OFFCURVE",
"560 248 CURVE SMOOTH",
"452 248 LINE"
);
}
);
width = 1450;
}
);
unicode = 0044;
},
{
glyphname = Eth;
lastChange = "2016-10-15 02:31:49 +0000";
layers = (
{
layerId = UUID0;
paths = (
{
closed = 1;
nodes = (
"220 654 LINE",
"220 55 LINE SMOOTH",
"220 18 OFFCURVE",
"237 0 OFFCURVE",
"270 0 CURVE SMOOTH",
"639 0 LINE SMOOTH",
"922 0 OFFCURVE",
"1118 63 OFFCURVE",
"1228 189 CURVE SMOOTH",
"1339 316 OFFCURVE",
"1394 492 OFFCURVE",
"1394 719 CURVE SMOOTH",
"1394 946 OFFCURVE",
"1339 1120 OFFCURVE",
"1228 1246 CURVE SMOOTH",
"1118 1371 OFFCURVE",
"922 1434 OFFCURVE",
"639 1434 CURVE SMOOTH",
"270 1434 LINE SMOOTH",
"237 1434 OFFCURVE",
"220 1416 OFFCURVE",
"220 1379 CURVE SMOOTH",
"220 818 LINE",
"95 818 LINE SMOOTH",
"58 818 OFFCURVE",
"40 803 OFFCURVE",
"40 773 CURVE SMOOTH",
"40 699 LINE SMOOTH",
"40 669 OFFCURVE",
"58 654 OFFCURVE",
"95 654 CURVE SMOOTH"
);
},
{
closed = 1;
nodes = (
"412 654 LINE",
"723 654 LINE SMOOTH",
"760 654 OFFCURVE",
"778 669 OFFCURVE",
"778 699 CURVE SMOOTH",
"778 773 LINE SMOOTH",
"778 803 OFFCURVE",
"760 818 OFFCURVE",
"723 818 CURVE SMOOTH",
"412 818 LINE",
"412 1272 LINE",
"630 1272 LINE SMOOTH",
"850 1272 OFFCURVE",
"997 1226 OFFCURVE",
"1074 1133 CURVE SMOOTH",
"1151 1040 OFFCURVE",
"1189 902 OFFCURVE",
"1189 719 CURVE SMOOTH",
"1189 536 OFFCURVE",
"1151 397 OFFCURVE",
"1074 304 CURVE SMOOTH",
"998 211 OFFCURVE",
"850 164 OFFCURVE",
"630 164 CURVE SMOOTH",
"412 164 LINE"
);
}
);
width = 1486;
},
{
layerId = "39B5C782-31E0-4FF6-90B4-6BA13107E116";
paths = (
{
closed = 1;
nodes = (
"210 612 LINE",
"210 75 LINE SMOOTH",
"210 25 OFFCURVE",
"233 0 OFFCURVE",
"280 0 CURVE SMOOTH",
"629 0 LINE SMOOTH",
"936 0 OFFCURVE",
"1142 63 OFFCURVE",
"1251 188 CURVE SMOOTH",
"1360 313 OFFCURVE",
"1414 490 OFFCURVE",
"1414 719 CURVE SMOOTH",
"1414 948 OFFCURVE",
"1360 1123 OFFCURVE",
"1251 1248 CURVE SMOOTH",
"1143 1372 OFFCURVE",
"936 1434 OFFCURVE",
"629 1434 CURVE SMOOTH",
"280 1434 LINE SMOOTH",
"233 1434 OFFCURVE",
"210 1409 OFFCURVE",
"210 1359 CURVE SMOOTH",
"210 860 LINE",
"105 860 LINE SMOOTH",
"55 860 OFFCURVE",
"30 838 OFFCURVE",
"30 795 CURVE SMOOTH",
"30 677 LINE SMOOTH",
"30 634 OFFCURVE",
"55 612 OFFCURVE",
"105 612 CURVE SMOOTH"
);
},
{
closed = 1;
nodes = (
"502 612 LINE",
"741 612 LINE SMOOTH",
"791 612 OFFCURVE",
"816 634 OFFCURVE",
"816 677 CURVE SMOOTH",
"816 795 LINE SMOOTH",
"816 838 OFFCURVE",
"791 860 OFFCURVE",
"741 860 CURVE SMOOTH",
"502 860 LINE",
"502 1188 LINE",
"610 1188 LINE SMOOTH",
"817 1188 OFFCURVE",
"950 1150 OFFCURVE",
"1011 1073 CURVE SMOOTH",
"1072 997 OFFCURVE",
"1102 879 OFFCURVE",
"1102 719 CURVE SMOOTH",
"1102 559 OFFCURVE",
"1072 440 OFFCURVE",
"1011 363 CURVE SMOOTH",
"950 286 OFFCURVE",
"817 248 OFFCURVE",
"610 248 CURVE SMOOTH",
"502 248 LINE"
);
}
);
width = 1500;
}
);
unicode = 00D0;
},
{
glyphname = E;
lastChange = "2016-10-15 02:31:49 +0000";
layers = (
{
layerId = UUID0;
paths = (
{
closed = 1;
nodes = (
"1125 0 LINE SMOOTH",
"1162 0 OFFCURVE",
"1180 15 OFFCURVE",
"1180 45 CURVE SMOOTH",
"1180 119 LINE SMOOTH",
"1180 149 OFFCURVE",
"1162 164 OFFCURVE",
"1125 164 CURVE SMOOTH",
"362 164 LINE",
"362 662 LINE",
"1035 662 LINE SMOOTH",
"1072 662 OFFCURVE",
"1090 677 OFFCURVE",
"1090 707 CURVE SMOOTH",
"1090 781 LINE SMOOTH",
"1090 811 OFFCURVE",
"1072 826 OFFCURVE",
"1035 826 CURVE SMOOTH",
"362 826 LINE",
"362 1270 LINE",
"1095 1270 LINE SMOOTH",
"1132 1270 OFFCURVE",
"1150 1285 OFFCURVE",
"1150 1315 CURVE SMOOTH",
"1150 1389 LINE SMOOTH",
"1150 1419 OFFCURVE",
"1132 1434 OFFCURVE",
"1095 1434 CURVE SMOOTH",
"220 1434 LINE SMOOTH",
"187 1434 OFFCURVE",
"170 1416 OFFCURVE",
"170 1379 CURVE SMOOTH",
"170 55 LINE SMOOTH",
"170 18 OFFCURVE",
"187 0 OFFCURVE",
"220 0 CURVE SMOOTH"
);
}
);
width = 1270;
},
{
layerId = "39B5C782-31E0-4FF6-90B4-6BA13107E116";
paths = (
{
closed = 1;
nodes = (
"1120 0 LINE SMOOTH",
"1170 0 OFFCURVE",
"1195 22 OFFCURVE",
"1195 65 CURVE SMOOTH",
"1195 183 LINE SMOOTH",
"1195 226 OFFCURVE",
"1170 248 OFFCURVE",
"1120 248 CURVE SMOOTH",
"452 248 LINE",
"452 620 LINE",
"1035 620 LINE SMOOTH",
"1085 620 OFFCURVE",
"1110 642 OFFCURVE",
"1110 685 CURVE SMOOTH",
"1110 803 LINE SMOOTH",
"1110 846 OFFCURVE",
"1085 868 OFFCURVE",
"1035 868 CURVE SMOOTH",
"452 868 LINE",
"452 1186 LINE",
"1088 1186 LINE SMOOTH",
"1138 1186 OFFCURVE",
"1163 1208 OFFCURVE",
"1163 1251 CURVE SMOOTH",
"1163 1369 LINE SMOOTH",
"1163 1412 OFFCURVE",
"1138 1434 OFFCURVE",
"1088 1434 CURVE SMOOTH",
"230 1434 LINE SMOOTH",
"183 1434 OFFCURVE",
"160 1409 OFFCURVE",
"160 1359 CURVE SMOOTH",
"160 75 LINE SMOOTH",
"160 25 OFFCURVE",
"183 0 OFFCURVE",
"230 0 CURVE SMOOTH"
);
}
);
width = 1280;
}
);
unicode = 0045;
},
{
glyphname = Eogonek;
lastChange = "2016-10-15 02:31:49 +0000";
layers = (
{
layerId = UUID0;
paths = (
{
closed = 1;
nodes = (
"858 0 LINE SMOOTH",
"885 0 OFFCURVE",
"911 1 OFFCURVE",
"938 2 CURVE",
"938 -2 LINE",
"832 -79 OFFCURVE",
"764 -145 OFFCURVE",
"764 -255 CURVE SMOOTH",
"764 -335 OFFCURVE",
"827 -417 OFFCURVE",
"982 -417 CURVE SMOOTH",
"1020 -417 OFFCURVE",
"1124 -417 OFFCURVE",
"1124 -386 CURVE SMOOTH",
"1124 -383 OFFCURVE",
"1123 -381 OFFCURVE",
"1123 -378 CURVE SMOOTH",
"1110 -299 LINE SMOOTH",
"1108 -286 OFFCURVE",
"1101 -279 OFFCURVE",
"1091 -279 CURVE SMOOTH",
"1071 -279 OFFCURVE",
"1042 -287 OFFCURVE",
"1005 -287 CURVE SMOOTH",
"960 -287 OFFCURVE",
"924 -264 OFFCURVE",
"924 -211 CURVE SMOOTH",
"924 -169 OFFCURVE",
"951 -125 OFFCURVE",
"1006 -79 CURVE SMOOTH",
"1061 -33 OFFCURVE",
"1098 -7 OFFCURVE",
"1118 0 CURVE",
"1125 0 LINE SMOOTH",
"1162 0 OFFCURVE",
"1180 15 OFFCURVE",
"1180 45 CURVE SMOOTH",
"1180 119 LINE SMOOTH",
"1180 149 OFFCURVE",
"1162 164 OFFCURVE",
"1125 164 CURVE SMOOTH",
"362 164 LINE",
"362 662 LINE",
"1035 662 LINE SMOOTH",
"1072 662 OFFCURVE",
"1090 677 OFFCURVE",
"1090 707 CURVE SMOOTH",
"1090 781 LINE SMOOTH",
"1090 811 OFFCURVE",
"1072 826 OFFCURVE",
"1035 826 CURVE SMOOTH",
"362 826 LINE",
"362 1270 LINE",
"1095 1270 LINE SMOOTH",
"1132 1270 OFFCURVE",
"1150 1285 OFFCURVE",
"1150 1315 CURVE SMOOTH",
"1150 1389 LINE SMOOTH",
"1150 1419 OFFCURVE",
"1132 1434 OFFCURVE",
"1095 1434 CURVE SMOOTH",
"220 1434 LINE SMOOTH",
"187 1434 OFFCURVE",
"170 1416 OFFCURVE",
"170 1379 CURVE SMOOTH",
"170 55 LINE SMOOTH",
"170 18 OFFCURVE",
"187 0 OFFCURVE",
"220 0 CURVE SMOOTH"
);
}
);
width = 1270;
},
{
layerId = "39B5C782-31E0-4FF6-90B4-6BA13107E116";
paths = (
{
closed = 1;
nodes = (
"710 0 LINE SMOOTH",
"750 0 OFFCURVE",
"790 1 OFFCURVE",
"830 4 CURVE",
"830 -3 LINE",
"717 -97 OFFCURVE",
"674 -170 OFFCURVE",
"674 -247 CURVE SMOOTH",
"674 -360 OFFCURVE",
"768 -420 OFFCURVE",
"956 -420 CURVE SMOOTH",
"1061 -420 OFFCURVE",
"1124 -418 OFFCURVE",
"1124 -375 CURVE SMOOTH",
"1124 -373 OFFCURVE",
"1124 -371 OFFCURVE",
"1124 -368 CURVE SMOOTH",
"1110 -250 LINE SMOOTH",
"1107 -229 OFFCURVE",
"1097 -218 OFFCURVE",
"1079 -218 CURVE SMOOTH",
"1059 -218 OFFCURVE",
"1028 -224 OFFCURVE",
"990 -224 CURVE SMOOTH",
"947 -224 OFFCURVE",
"910 -217 OFFCURVE",
"910 -176 CURVE SMOOTH",
"910 -134 OFFCURVE",
"1051 -40 OFFCURVE",
"1109 0 CURVE",
"1120 0 LINE SMOOTH",
"1170 0 OFFCURVE",
"1195 22 OFFCURVE",
"1195 65 CURVE SMOOTH",
"1195 183 LINE SMOOTH",
"1195 226 OFFCURVE",
"1170 248 OFFCURVE",
"1120 248 CURVE SMOOTH",
"452 248 LINE",
"452 620 LINE",
"1035 620 LINE SMOOTH",
"1085 620 OFFCURVE",
"1110 642 OFFCURVE",
"1110 685 CURVE SMOOTH",
"1110 803 LINE SMOOTH",
"1110 846 OFFCURVE",
"1085 868 OFFCURVE",
"1035 868 CURVE SMOOTH",
"452 868 LINE",
"452 1186 LINE",
"1088 1186 LINE SMOOTH",
"1138 1186 OFFCURVE",
"1163 1208 OFFCURVE",
"1163 1251 CURVE SMOOTH",
"1163 1369 LINE SMOOTH",
"1163 1412 OFFCURVE",
"1138 1434 OFFCURVE",
"1088 1434 CURVE SMOOTH",
"230 1434 LINE SMOOTH",
"183 1434 OFFCURVE",
"160 1409 OFFCURVE",
"160 1359 CURVE SMOOTH",
"160 75 LINE SMOOTH",
"160 25 OFFCURVE",
"183 0 OFFCURVE",
"230 0 CURVE SMOOTH"
);
}
);
width = 1280;
}
);
unicode = 0118;
},
{
glyphname = F;
lastChange = "2016-10-15 02:31:49 +0000";
layers = (
{
layerId = UUID0;
paths = (
{
closed = 1;
nodes = (
"312 0 LINE SMOOTH",
"345 0 OFFCURVE",
"362 18 OFFCURVE",
"362 55 CURVE SMOOTH",
"362 632 LINE",
"949 632 LINE SMOOTH",
"986 632 OFFCURVE",
"1004 647 OFFCURVE",
"1004 677 CURVE SMOOTH",
"1004 751 LINE SMOOTH",
"1004 781 OFFCURVE",
"986 796 OFFCURVE",
"949 796 CURVE SMOOTH",
"362 796 LINE",
"362 1270 LINE",
"1035 1270 LINE SMOOTH",
"1072 1270 OFFCURVE",
"1090 1285 OFFCURVE",
"1090 1315 CURVE SMOOTH",
"1090 1389 LINE SMOOTH",
"1090 1419 OFFCURVE",
"1072 1434 OFFCURVE",
"1035 1434 CURVE SMOOTH",
"220 1434 LINE SMOOTH",
"187 1434 OFFCURVE",
"170 1416 OFFCURVE",
"170 1379 CURVE SMOOTH",
"170 55 LINE SMOOTH",
"170 18 OFFCURVE",
"187 0 OFFCURVE",
"220 0 CURVE SMOOTH"
);
}
);
width = 1166;
},
{
layerId = "39B5C782-31E0-4FF6-90B4-6BA13107E116";
paths = (
{
closed = 1;
nodes = (
"382 0 LINE SMOOTH",
"429 0 OFFCURVE",
"452 25 OFFCURVE",
"452 75 CURVE SMOOTH",
"452 590 LINE",
"939 590 LINE SMOOTH",
"989 590 OFFCURVE",
"1014 612 OFFCURVE",
"1014 655 CURVE SMOOTH",
"1014 773 LINE SMOOTH",
"1014 816 OFFCURVE",
"989 838 OFFCURVE",
"939 838 CURVE SMOOTH",
"452 838 LINE",
"452 1186 LINE",
"1021 1186 LINE SMOOTH",
"1071 1186 OFFCURVE",
"1096 1208 OFFCURVE",
"1096 1251 CURVE SMOOTH",
"1096 1369 LINE SMOOTH",
"1096 1412 OFFCURVE",
"1071 1434 OFFCURVE",
"1021 1434 CURVE SMOOTH",
"230 1434 LINE SMOOTH",
"183 1434 OFFCURVE",
"160 1409 OFFCURVE",
"160 1359 CURVE SMOOTH",
"160 75 LINE SMOOTH",
"160 25 OFFCURVE",
"183 0 OFFCURVE",
"230 0 CURVE SMOOTH"
);
}
);
width = 1176;
}
);
unicode = 0046;
},
{
glyphname = G;
lastChange = "2016-10-15 02:31:49 +0000";
layers = (
{
layerId = UUID0;
paths = (
{
closed = 1;
nodes = (
"92 254 OFFCURVE",
"344 -30 OFFCURVE",
"786 -30 CURVE SMOOTH",
"1055 -30 OFFCURVE",
"1184 36 OFFCURVE",
"1350 157 CURVE",
"1350 629 LINE SMOOTH",
"1350 659 OFFCURVE",
"1332 674 OFFCURVE",
"1295 674 CURVE SMOOTH",
"861 674 LINE SMOOTH",
"824 674 OFFCURVE",
"806 659 OFFCURVE",
"806 629 CURVE SMOOTH",
"806 555 LINE SMOOTH",
"806 525 OFFCURVE",
"824 510 OFFCURVE",
"861 510 CURVE SMOOTH",
"1158 510 LINE",
"1158 245 LINE",
"1106 170 OFFCURVE",
"969 126 OFFCURVE",
"796 126 CURVE SMOOTH",
"444 126 OFFCURVE",
"297 348 OFFCURVE",
"297 717 CURVE SMOOTH",
"297 1089 OFFCURVE",
"459 1308 OFFCURVE",
"786 1308 CURVE SMOOTH",
"878 1308 OFFCURVE",
"952 1287 OFFCURVE",
"1007 1246 CURVE SMOOTH",
"1112 1168 OFFCURVE",
"1135 1100 OFFCURVE",
"1171 1100 CURVE SMOOTH",
"1178 1100 OFFCURVE",
"1186 1103 OFFCURVE",
"1194 1108 CURVE SMOOTH",
"1269 1160 LINE SMOOTH",
"1281 1168 OFFCURVE",
"1287 1180 OFFCURVE",
"1287 1193 CURVE SMOOTH",
"1287 1256 OFFCURVE",
"1185 1345 OFFCURVE",
"1091 1397 CURVE SMOOTH",
"1009 1442 OFFCURVE",
"905 1464 OFFCURVE",
"776 1464 CURVE SMOOTH",
"348 1464 OFFCURVE",
"92 1182 OFFCURVE",
"92 717 CURVE SMOOTH"
);
}
);
width = 1470;
},
{
layerId = "39B5C782-31E0-4FF6-90B4-6BA13107E116";
paths = (
{
closed = 1;
nodes = (
"86 259 OFFCURVE",
"342 -34 OFFCURVE",
"776 -34 CURVE SMOOTH",
"1036 -34 OFFCURVE",
"1205 11 OFFCURVE",
"1394 151 CURVE",
"1394 659 LINE SMOOTH",
"1394 702 OFFCURVE",
"1369 724 OFFCURVE",
"1319 724 CURVE SMOOTH",
"885 724 LINE SMOOTH",
"835 724 OFFCURVE",
"810 702 OFFCURVE",
"810 659 CURVE SMOOTH",
"810 541 LINE SMOOTH",
"810 498 OFFCURVE",
"835 476 OFFCURVE",
"885 476 CURVE SMOOTH",
"1102 476 LINE",
"1102 297 LINE",
"1014 225 OFFCURVE",
"922 202 OFFCURVE",
"786 202 CURVE SMOOTH",
"502 202 OFFCURVE",
"398 388 OFFCURVE",
"398 717 CURVE SMOOTH",
"398 1049 OFFCURVE",
"505 1232 OFFCURVE",
"786 1232 CURVE SMOOTH",
"902 1232 OFFCURVE",
"1001 1181 OFFCURVE",
"1064 1113 CURVE SMOOTH",
"1089 1086 OFFCURVE",
"1113 1072 OFFCURVE",
"1136 1072 CURVE SMOOTH",
"1148 1072 OFFCURVE",
"1159 1076 OFFCURVE",
"1171 1084 CURVE SMOOTH",
"1285 1158 LINE SMOOTH",
"1304 1170 OFFCURVE",
"1313 1185 OFFCURVE",
"1313 1203 CURVE SMOOTH",
"1313 1219 OFFCURVE",
"1305 1238 OFFCURVE",
"1288 1259 CURVE SMOOTH",
"1173 1402 OFFCURVE",
"1046 1468 OFFCURVE",
"776 1468 CURVE SMOOTH",
"335 1468 OFFCURVE",
"86 1174 OFFCURVE",
"86 717 CURVE SMOOTH"
);
}
);
width = 1506;
}
);
unicode = 0047;
},
{
glyphname = H;
lastChange = "2016-10-15 02:31:49 +0000";
layers = (
{
layerId = UUID0;
paths = (
{
closed = 1;
nodes = (
"312 0 LINE SMOOTH",
"345 0 OFFCURVE",
"362 18 OFFCURVE",
"362 55 CURVE SMOOTH",
"362 664 LINE",
"1060 664 LINE",
"1060 55 LINE SMOOTH",
"1060 18 OFFCURVE",
"1077 0 OFFCURVE",
"1110 0 CURVE SMOOTH",
"1202 0 LINE SMOOTH",
"1235 0 OFFCURVE",
"1252 18 OFFCURVE",
"1252 55 CURVE SMOOTH",
"1252 1379 LINE SMOOTH",
"1252 1416 OFFCURVE",
"1235 1434 OFFCURVE",
"1202 1434 CURVE SMOOTH",
"1110 1434 LINE SMOOTH",
"1077 1434 OFFCURVE",
"1060 1416 OFFCURVE",
"1060 1379 CURVE SMOOTH",
"1060 828 LINE",
"362 828 LINE",
"362 1379 LINE SMOOTH",
"362 1416 OFFCURVE",
"345 1434 OFFCURVE",
"312 1434 CURVE SMOOTH",
"220 1434 LINE SMOOTH",
"187 1434 OFFCURVE",
"170 1416 OFFCURVE",
"170 1379 CURVE SMOOTH",
"170 55 LINE SMOOTH",
"170 18 OFFCURVE",
"187 0 OFFCURVE",
"220 0 CURVE SMOOTH"
);
}
);
width = 1422;
},
{
layerId = "39B5C782-31E0-4FF6-90B4-6BA13107E116";
paths = (
{
closed = 1;
nodes = (
"382 0 LINE SMOOTH",
"429 0 OFFCURVE",
"452 25 OFFCURVE",
"452 75 CURVE SMOOTH",
"452 622 LINE",
"990 622 LINE",
"990 75 LINE SMOOTH",
"990 25 OFFCURVE",
"1013 0 OFFCURVE",
"1060 0 CURVE SMOOTH",
"1212 0 LINE SMOOTH",
"1259 0 OFFCURVE",
"1282 25 OFFCURVE",
"1282 75 CURVE SMOOTH",
"1282 1359 LINE SMOOTH",
"1282 1409 OFFCURVE",
"1259 1434 OFFCURVE",
"1212 1434 CURVE SMOOTH",
"1060 1434 LINE SMOOTH",
"1013 1434 OFFCURVE",
"990 1409 OFFCURVE",
"990 1359 CURVE SMOOTH",
"990 870 LINE",
"452 870 LINE",
"452 1359 LINE SMOOTH",
"452 1409 OFFCURVE",
"429 1434 OFFCURVE",
"382 1434 CURVE SMOOTH",
"230 1434 LINE SMOOTH",
"183 1434 OFFCURVE",
"160 1409 OFFCURVE",
"160 1359 CURVE SMOOTH",
"160 75 LINE SMOOTH",
"160 25 OFFCURVE",
"183 0 OFFCURVE",
"230 0 CURVE SMOOTH"
);
}
);
width = 1442;
}
);
unicode = 0048;
},
{
glyphname = I;
lastChange = "2016-10-15 02:31:49 +0000";
layers = (
{
layerId = UUID0;
paths = (
{
closed = 1;
nodes = (
"312 0 LINE SMOOTH",
"345 0 OFFCURVE",
"362 18 OFFCURVE",
"362 55 CURVE SMOOTH",
"362 1379 LINE SMOOTH",
"362 1416 OFFCURVE",
"345 1434 OFFCURVE",
"312 1434 CURVE SMOOTH",
"220 1434 LINE SMOOTH",
"187 1434 OFFCURVE",
"170 1416 OFFCURVE",
"170 1379 CURVE SMOOTH",
"170 55 LINE SMOOTH",
"170 18 OFFCURVE",
"187 0 OFFCURVE",
"220 0 CURVE SMOOTH"
);
}
);
width = 532;
},
{
layerId = "39B5C782-31E0-4FF6-90B4-6BA13107E116";
paths = (
{
closed = 1;
nodes = (
"382 0 LINE SMOOTH",
"429 0 OFFCURVE",
"452 25 OFFCURVE",
"452 75 CURVE SMOOTH",
"452 1359 LINE SMOOTH",
"452 1409 OFFCURVE",
"429 1434 OFFCURVE",
"382 1434 CURVE SMOOTH",
"230 1434 LINE SMOOTH",
"183 1434 OFFCURVE",
"160 1409 OFFCURVE",
"160 1359 CURVE SMOOTH",
"160 75 LINE SMOOTH",
"160 25 OFFCURVE",
"183 0 OFFCURVE",
"230 0 CURVE SMOOTH"
);
}
);
width = 612;
}
);
unicode = 0049;
},
{
glyphname = J;
lastChange = "2016-10-15 02:31:49 +0000";
layers = (
{
layerId = UUID0;
paths = (
{
closed = 1;
nodes = (
"140 -10 OFFCURVE",
"219 -30 OFFCURVE",
"302 -30 CURVE SMOOTH",
"454 -30 OFFCURVE",
"551 9 OFFCURVE",
"592 86 CURVE SMOOTH",
"633 164 OFFCURVE",
"654 269 OFFCURVE",
"654 401 CURVE SMOOTH",
"654 1379 LINE SMOOTH",
"654 1416 OFFCURVE",
"637 1434 OFFCURVE",
"604 1434 CURVE SMOOTH",
"512 1434 LINE SMOOTH",
"479 1434 OFFCURVE",
"462 1416 OFFCURVE",
"462 1379 CURVE SMOOTH",
"462 378 LINE SMOOTH",
"462 221 OFFCURVE",
"440 126 OFFCURVE",
"307 126 CURVE SMOOTH",
"253 126 OFFCURVE",
"199 144 OFFCURVE",
"145 179 CURVE SMOOTH",
"131 188 OFFCURVE",
"118 193 OFFCURVE",
"108 193 CURVE SMOOTH",
"92 193 OFFCURVE",
"81 184 OFFCURVE",
"72 165 CURVE SMOOTH",
"39 94 LINE SMOOTH",
"35 86 OFFCURVE",
"34 79 OFFCURVE",
"34 72 CURVE SMOOTH",
"34 55 OFFCURVE",
"45 41 OFFCURVE",
"67 29 CURVE SMOOTH"
);
}
);
width = 824;
},
{
layerId = "39B5C782-31E0-4FF6-90B4-6BA13107E116";
paths = (
{
closed = 1;
nodes = (
"138 -16 OFFCURVE",
"219 -34 OFFCURVE",
"321 -34 CURVE SMOOTH",
"467 -34 OFFCURVE",
"581 2 OFFCURVE",
"663 74 CURVE SMOOTH",
"746 147 OFFCURVE",
"787 306 OFFCURVE",
"787 551 CURVE SMOOTH",
"787 1359 LINE SMOOTH",
"787 1409 OFFCURVE",
"764 1434 OFFCURVE",
"717 1434 CURVE SMOOTH",
"565 1434 LINE SMOOTH",
"518 1434 OFFCURVE",
"495 1409 OFFCURVE",
"495 1359 CURVE SMOOTH",
"495 531 LINE SMOOTH",
"495 296 OFFCURVE",
"466 202 OFFCURVE",
"318 202 CURVE SMOOTH",
"265 202 OFFCURVE",
"216 216 OFFCURVE",
"173 243 CURVE SMOOTH",
"150 257 OFFCURVE",
"132 263 OFFCURVE",
"117 263 CURVE SMOOTH",
"98 263 OFFCURVE",
"86 253 OFFCURVE",
"79 231 CURVE SMOOTH",
"37 94 LINE SMOOTH",
"35 88 OFFCURVE",
"34 83 OFFCURVE",
"34 77 CURVE SMOOTH",
"34 55 OFFCURVE",
"49 36 OFFCURVE",
"77 19 CURVE SMOOTH"
);
}
);
width = 947;
}
);
unicode = 004A;
},
{
glyphname = K;
lastChange = "2016-10-15 02:31:49 +0000";
layers = (
{
layerId = UUID0;
paths = (
{
closed = 1;
nodes = (
"312 0 LINE SMOOTH",
"345 0 OFFCURVE",
"362 18 OFFCURVE",
"362 55 CURVE SMOOTH",
"362 471 LINE",
"601 714 LINE",
"1058 39 LINE SMOOTH",
"1075 13 OFFCURVE",
"1099 0 OFFCURVE",
"1128 0 CURVE SMOOTH",
"1250 0 LINE SMOOTH",
"1274 0 OFFCURVE",
"1286 8 OFFCURVE",
"1286 23 CURVE SMOOTH",
"1286 33 OFFCURVE",
"1280 48 OFFCURVE",
"1268 66 CURVE SMOOTH",
"733 850 LINE",
"1241 1368 LINE SMOOTH",
"1260 1387 OFFCURVE",
"1269 1402 OFFCURVE",
"1269 1413 CURVE SMOOTH",
"1269 1427 OFFCURVE",
"1254 1434 OFFCURVE",
"1223 1434 CURVE SMOOTH",
"1102 1434 LINE SMOOTH",
"1081 1434 OFFCURVE",
"1057 1421 OFFCURVE",
"1032 1395 CURVE SMOOTH",
"364 711 LINE",
"360 711 LINE",
"361 738 OFFCURVE",
"362 764 OFFCURVE",
"362 791 CURVE SMOOTH",
"362 1379 LINE SMOOTH",
"362 1416 OFFCURVE",
"345 1434 OFFCURVE",
"312 1434 CURVE SMOOTH",
"220 1434 LINE SMOOTH",
"187 1434 OFFCURVE",
"170 1416 OFFCURVE",
"170 1379 CURVE SMOOTH",
"170 55 LINE SMOOTH",
"170 18 OFFCURVE",
"187 0 OFFCURVE",
"220 0 CURVE SMOOTH"
);
}
);
width = 1328;
},
{
layerId = "39B5C782-31E0-4FF6-90B4-6BA13107E116";
paths = (
{
closed = 1;
nodes = (
"382 0 LINE SMOOTH",
"429 0 OFFCURVE",
"452 25 OFFCURVE",
"452 75 CURVE SMOOTH",
"452 447 LINE",
"620 636 LINE",
"988 59 LINE SMOOTH",
"1013 20 OFFCURVE",
"1043 0 OFFCURVE",
"1078 0 CURVE SMOOTH",
"1265 0 LINE SMOOTH",
"1304 0 OFFCURVE",
"1323 11 OFFCURVE",
"1323 34 CURVE SMOOTH",
"1323 48 OFFCURVE",
"1317 65 OFFCURVE",
"1303 86 CURVE SMOOTH",
"816 850 LINE",
"1271 1348 LINE SMOOTH",
"1292 1371 OFFCURVE",
"1303 1389 OFFCURVE",
"1303 1403 CURVE SMOOTH",
"1303 1424 OFFCURVE",
"1279 1434 OFFCURVE",
"1233 1434 CURVE SMOOTH",
"1032 1434 LINE SMOOTH",
"1007 1434 OFFCURVE",
"976 1414 OFFCURVE",
"940 1375 CURVE SMOOTH",
"454 841 LINE",
"447 841 LINE",
"450 881 OFFCURVE",
"452 921 OFFCURVE",
"452 961 CURVE SMOOTH",
"452 1359 LINE SMOOTH",
"452 1409 OFFCURVE",
"429 1434 OFFCURVE",
"382 1434 CURVE SMOOTH",
"230 1434 LINE SMOOTH",
"183 1434 OFFCURVE",
"160 1409 OFFCURVE",
"160 1359 CURVE SMOOTH",
"160 75 LINE SMOOTH",
"160 25 OFFCURVE",
"183 0 OFFCURVE",
"230 0 CURVE SMOOTH"
);
}
);
width = 1361;
}
);
unicode = 004B;
},
{
glyphname = L;
lastChange = "2016-10-15 02:31:49 +0000";
layers = (
{
layerId = UUID0;
paths = (
{
closed = 1;
nodes = (
"1025 0 LINE SMOOTH",
"1062 0 OFFCURVE",
"1080 15 OFFCURVE",
"1080 45 CURVE SMOOTH",
"1080 119 LINE SMOOTH",
"1080 149 OFFCURVE",
"1062 164 OFFCURVE",
"1025 164 CURVE SMOOTH",
"362 164 LINE",
"362 1379 LINE SMOOTH",
"362 1416 OFFCURVE",
"345 1434 OFFCURVE",
"312 1434 CURVE SMOOTH",
"220 1434 LINE SMOOTH",
"187 1434 OFFCURVE",
"170 1416 OFFCURVE",
"170 1379 CURVE SMOOTH",
"170 55 LINE SMOOTH",
"170 18 OFFCURVE",
"187 0 OFFCURVE",
"220 0 CURVE SMOOTH"
);
}
);
width = 1136;
},
{
layerId = "39B5C782-31E0-4FF6-90B4-6BA13107E116";
paths = (
{
closed = 1;
nodes = (
"1035 0 LINE SMOOTH",
"1085 0 OFFCURVE",
"1110 22 OFFCURVE",
"1110 65 CURVE SMOOTH",
"1110 183 LINE SMOOTH",
"1110 226 OFFCURVE",
"1085 248 OFFCURVE",
"1035 248 CURVE SMOOTH",
"452 248 LINE",
"452 1359 LINE SMOOTH",
"452 1409 OFFCURVE",
"432 1434 OFFCURVE",
"392 1434 CURVE SMOOTH",
"230 1434 LINE SMOOTH",
"183 1434 OFFCURVE",
"160 1409 OFFCURVE",
"160 1359 CURVE SMOOTH",
"160 75 LINE SMOOTH",
"160 25 OFFCURVE",
"183 0 OFFCURVE",
"230 0 CURVE SMOOTH"
);
}
);
width = 1162;
}
);
unicode = 004C;
},
{
glyphname = Lslash;
lastChange = "2016-10-15 02:31:49 +0000";
layers = (
{
layerId = UUID0;
paths = (
{
closed = 1;
nodes = (
"273 555 LINE",
"277 555 LINE",
"276 528 OFFCURVE",
"275 502 OFFCURVE",
"275 475 CURVE SMOOTH",
"275 55 LINE SMOOTH",
"275 18 OFFCURVE",
"292 0 OFFCURVE",
"325 0 CURVE SMOOTH",
"1130 0 LINE SMOOTH",
"1167 0 OFFCURVE",
"1185 15 OFFCURVE",
"1185 45 CURVE SMOOTH",
"1185 119 LINE SMOOTH",
"1185 149 OFFCURVE",
"1167 164 OFFCURVE",
"1130 164 CURVE SMOOTH",
"467 164 LINE",
"467 687 LINE",
"757 882 LINE SMOOTH",
"780 898 OFFCURVE",
"792 919 OFFCURVE",
"792 945 CURVE SMOOTH",
"792 1059 LINE SMOOTH",
"792 1079 OFFCURVE",
"786 1089 OFFCURVE",
"773 1089 CURVE SMOOTH",
"764 1089 OFFCURVE",
"752 1084 OFFCURVE",
"737 1074 CURVE SMOOTH",
"469 893 LINE",
"465 893 LINE",
"466 920 OFFCURVE",
"467 946 OFFCURVE",
"467 973 CURVE SMOOTH",
"467 1379 LINE SMOOTH",
"467 1416 OFFCURVE",
"450 1434 OFFCURVE",
"417 1434 CURVE SMOOTH",
"325 1434 LINE SMOOTH",
"292 1434 OFFCURVE",
"275 1416 OFFCURVE",
"275 1379 CURVE SMOOTH",
"275 761 LINE",
"95 640 LINE SMOOTH",
"72 624 OFFCURVE",
"60 603 OFFCURVE",
"60 577 CURVE SMOOTH",
"60 463 LINE SMOOTH",
"60 442 OFFCURVE",
"66 432 OFFCURVE",
"78 432 CURVE SMOOTH",
"87 432 OFFCURVE",
"99 437 OFFCURVE",
"115 448 CURVE SMOOTH"
);
}
);
width = 1241;
},
{
layerId = "39B5C782-31E0-4FF6-90B4-6BA13107E116";
paths = (
{
closed = 1;
nodes = (
"240 476 LINE",
"247 476 LINE",
"244 436 OFFCURVE",
"242 396 OFFCURVE",
"242 356 CURVE SMOOTH",
"242 75 LINE SMOOTH",
"242 25 OFFCURVE",
"265 0 OFFCURVE",
"312 0 CURVE SMOOTH",
"1117 0 LINE SMOOTH",
"1167 0 OFFCURVE",
"1192 22 OFFCURVE",
"1192 65 CURVE SMOOTH",
"1192 183 LINE SMOOTH",
"1192 226 OFFCURVE",
"1167 248 OFFCURVE",
"1117 248 CURVE SMOOTH",
"534 248 LINE",
"534 676 LINE",
"787 845 LINE SMOOTH",
"820 867 OFFCURVE",
"837 896 OFFCURVE",
"837 933 CURVE SMOOTH",
"837 1077 LINE SMOOTH",
"837 1103 OFFCURVE",
"829 1116 OFFCURVE",
"813 1116 CURVE SMOOTH",
"802 1116 OFFCURVE",
"786 1110 OFFCURVE",
"767 1097 CURVE SMOOTH",
"536 942 LINE",
"529 942 LINE",
"532 982 OFFCURVE",
"534 1022 OFFCURVE",
"534 1062 CURVE SMOOTH",
"534 1359 LINE SMOOTH",
"534 1409 OFFCURVE",
"514 1434 OFFCURVE",
"474 1434 CURVE SMOOTH",
"312 1434 LINE SMOOTH",
"265 1434 OFFCURVE",
"242 1409 OFFCURVE",
"242 1359 CURVE SMOOTH",
"242 742 LINE",
"105 650 LINE SMOOTH",
"72 627 OFFCURVE",
"55 597 OFFCURVE",
"55 562 CURVE SMOOTH",
"55 418 LINE SMOOTH",
"55 392 OFFCURVE",
"63 379 OFFCURVE",
"79 379 CURVE SMOOTH",
"90 379 OFFCURVE",
"106 385 OFFCURVE",
"125 398 CURVE SMOOTH"
);
}
);
width = 1244;
}
);
unicode = 0141;
},
{
glyphname = M;
lastChange = "2016-10-15 02:31:49 +0000";
layers = (
{
layerId = UUID0;
paths = (
{
closed = 1;
nodes = (
"312 0 LINE SMOOTH",
"345 0 OFFCURVE",
"362 18 OFFCURVE",
"362 55 CURVE SMOOTH",
"362 1104 LINE SMOOTH",
"362 1131 OFFCURVE",
"361 1157 OFFCURVE",
"360 1184 CURVE",
"364 1184 LINE",
"733 61 LINE SMOOTH",
"746 20 OFFCURVE",
"768 0 OFFCURVE",
"799 0 CURVE SMOOTH",
"909 0 LINE SMOOTH",
"940 0 OFFCURVE",
"961 20 OFFCURVE",
"975 61 CURVE SMOOTH",
"1344 1184 LINE",
"1348 1184 LINE",
"1347 1157 OFFCURVE",
"1346 1131 OFFCURVE",
"1346 1104 CURVE SMOOTH",
"1346 55 LINE SMOOTH",
"1346 18 OFFCURVE",
"1363 0 OFFCURVE",
"1396 0 CURVE SMOOTH",
"1488 0 LINE SMOOTH",
"1521 0 OFFCURVE",
"1538 18 OFFCURVE",
"1538 55 CURVE SMOOTH",
"1538 1379 LINE SMOOTH",
"1538 1416 OFFCURVE",
"1521 1434 OFFCURVE",
"1488 1434 CURVE SMOOTH",
"1275 1434 LINE SMOOTH",
"1250 1434 OFFCURVE",
"1231 1414 OFFCURVE",
"1218 1374 CURVE SMOOTH",
"932 477 LINE SMOOTH",
"870 283 OFFCURVE",
"881 329 OFFCURVE",
"857 206 CURVE",
"851 206 LINE",
"826 329 OFFCURVE",
"838 283 OFFCURVE",
"776 477 CURVE SMOOTH",
"490 1374 LINE SMOOTH",
"477 1414 OFFCURVE",
"458 1434 OFFCURVE",
"433 1434 CURVE SMOOTH",
"220 1434 LINE SMOOTH",
"187 1434 OFFCURVE",
"170 1416 OFFCURVE",
"170 1379 CURVE SMOOTH",
"170 55 LINE SMOOTH",
"170 18 OFFCURVE",
"187 0 OFFCURVE",
"220 0 CURVE SMOOTH"
);
}
);
width = 1708;
},
{
layerId = "39B5C782-31E0-4FF6-90B4-6BA13107E116";
paths = (
{
closed = 1;
nodes = (
"382 0 LINE SMOOTH",
"429 0 OFFCURVE",
"452 25 OFFCURVE",
"452 75 CURVE SMOOTH",
"452 901 LINE SMOOTH",
"452 941 OFFCURVE",
"450 981 OFFCURVE",
"447 1021 CURVE",
"454 1021 LINE",
"743 81 LINE SMOOTH",
"760 27 OFFCURVE",
"788 0 OFFCURVE",
"829 0 CURVE SMOOTH",
"999 0 LINE SMOOTH",
"1040 0 OFFCURVE",
"1068 27 OFFCURVE",
"1085 81 CURVE SMOOTH",
"1374 1021 LINE",
"1381 1021 LINE",
"1378 981 OFFCURVE",
"1376 941 OFFCURVE",
"1376 901 CURVE SMOOTH",
"1376 75 LINE SMOOTH",
"1376 25 OFFCURVE",
"1399 0 OFFCURVE",
"1446 0 CURVE SMOOTH",
"1598 0 LINE SMOOTH",
"1645 0 OFFCURVE",
"1668 25 OFFCURVE",
"1668 75 CURVE SMOOTH",
"1668 1359 LINE SMOOTH",
"1668 1409 OFFCURVE",
"1645 1434 OFFCURVE",
"1598 1434 CURVE SMOOTH",
"1308 1434 LINE SMOOTH",
"1269 1434 OFFCURVE",
"1241 1407 OFFCURVE",
"1225 1354 CURVE SMOOTH",
"954 477 LINE SMOOTH",
"930 399 OFFCURVE",
"923 368 OFFCURVE",
"917 297 CURVE",
"911 297 LINE",
"905 368 OFFCURVE",
"898 399 OFFCURVE",
"874 477 CURVE SMOOTH",
"603 1354 LINE SMOOTH",
"586 1407 OFFCURVE",
"558 1434 OFFCURVE",
"520 1434 CURVE SMOOTH",
"230 1434 LINE SMOOTH",
"183 1434 OFFCURVE",
"160 1409 OFFCURVE",
"160 1359 CURVE SMOOTH",
"160 75 LINE SMOOTH",
"160 25 OFFCURVE",
"183 0 OFFCURVE",
"230 0 CURVE SMOOTH"
);
}
);
width = 1828;
}
);
unicode = 004D;
},
{
glyphname = N;
lastChange = "2016-10-15 02:31:49 +0000";
layers = (
{
layerId = UUID0;
paths = (
{
closed = 1;
nodes = (
"312 0 LINE SMOOTH",
"345 0 OFFCURVE",
"362 18 OFFCURVE",
"362 55 CURVE SMOOTH",
"362 1083 LINE SMOOTH",
"362 1110 OFFCURVE",
"361 1136 OFFCURVE",
"360 1163 CURVE",
"364 1163 LINE",
"1030 50 LINE SMOOTH",
"1050 17 OFFCURVE",
"1083 0 OFFCURVE",
"1130 0 CURVE SMOOTH",
"1218 0 LINE SMOOTH",
"1251 0 OFFCURVE",
"1268 18 OFFCURVE",
"1268 55 CURVE SMOOTH",
"1268 1379 LINE SMOOTH",
"1268 1416 OFFCURVE",
"1251 1434 OFFCURVE",
"1218 1434 CURVE SMOOTH",
"1126 1434 LINE SMOOTH",
"1093 1434 OFFCURVE",
"1076 1416 OFFCURVE",
"1076 1379 CURVE SMOOTH",
"1076 415 LINE SMOOTH",
"1076 388 OFFCURVE",
"1077 362 OFFCURVE",
"1078 335 CURVE",
"1074 335 LINE",
"448 1384 LINE SMOOTH",
"428 1417 OFFCURVE",
"395 1434 OFFCURVE",
"348 1434 CURVE SMOOTH",
"220 1434 LINE SMOOTH",
"187 1434 OFFCURVE",
"170 1416 OFFCURVE",
"170 1379 CURVE SMOOTH",
"170 55 LINE SMOOTH",
"170 18 OFFCURVE",
"187 0 OFFCURVE",
"220 0 CURVE SMOOTH"
);
}
);
width = 1438;
},
{
layerId = "39B5C782-31E0-4FF6-90B4-6BA13107E116";
paths = (
{
closed = 1;
nodes = (
"382 0 LINE SMOOTH",
"429 0 OFFCURVE",
"452 25 OFFCURVE",
"452 75 CURVE SMOOTH",
"452 784 LINE SMOOTH",
"452 824 OFFCURVE",
"450 864 OFFCURVE",
"447 904 CURVE",
"454 904 LINE",
"974 70 LINE SMOOTH",
"1003 23 OFFCURVE",
"1047 0 OFFCURVE",
"1104 0 CURVE SMOOTH",
"1242 0 LINE SMOOTH",
"1289 0 OFFCURVE",
"1312 25 OFFCURVE",
"1312 75 CURVE SMOOTH",
"1312 1359 LINE SMOOTH",
"1312 1409 OFFCURVE",
"1289 1434 OFFCURVE",
"1242 1434 CURVE SMOOTH",
"1090 1434 LINE SMOOTH",
"1043 1434 OFFCURVE",
"1020 1409 OFFCURVE",
"1020 1359 CURVE SMOOTH",
"1020 665 LINE SMOOTH",
"1020 625 OFFCURVE",
"1022 585 OFFCURVE",
"1025 545 CURVE",
"1018 545 LINE",
"508 1364 LINE SMOOTH",
"479 1411 OFFCURVE",
"435 1434 OFFCURVE",
"378 1434 CURVE SMOOTH",
"230 1434 LINE SMOOTH",
"183 1434 OFFCURVE",
"160 1409 OFFCURVE",
"160 1359 CURVE SMOOTH",
"160 75 LINE SMOOTH",
"160 25 OFFCURVE",
"183 0 OFFCURVE",
"230 0 CURVE SMOOTH"
);
}
);
width = 1472;
}
);
unicode = 004E;
},
{
glyphname = Eng;
lastChange = "2016-10-15 02:31:49 +0000";
layers = (
{
layerId = UUID0;
paths = (
{
closed = 1;
nodes = (
"312 0 LINE SMOOTH",
"345 0 OFFCURVE",
"362 18 OFFCURVE",
"362 55 CURVE SMOOTH",
"362 875 LINE SMOOTH",
"362 1040 OFFCURVE",
"402 1153 OFFCURVE",
"483 1215 CURVE SMOOTH",
"564 1277 OFFCURVE",
"645 1308 OFFCURVE",
"728 1308 CURVE SMOOTH",
"989 1308 OFFCURVE",
"1060 1205 OFFCURVE",
"1060 944 CURVE SMOOTH",
"1060 39 LINE SMOOTH",
"1060 -92 OFFCURVE",
"1047 -175 OFFCURVE",
"1022 -209 CURVE SMOOTH",
"997 -244 OFFCURVE",
"958 -261 OFFCURVE",
"906 -261 CURVE SMOOTH",
"870 -261 OFFCURVE",
"831 -251 OFFCURVE",
"790 -232 CURVE SMOOTH",
"777 -226 OFFCURVE",
"766 -223 OFFCURVE",
"757 -223 CURVE SMOOTH",
"739 -223 OFFCURVE",
"728 -233 OFFCURVE",
"722 -253 CURVE SMOOTH",
"701 -324 LINE SMOOTH",
"699 -331 OFFCURVE",
"698 -337 OFFCURVE",
"698 -342 CURVE SMOOTH",
"698 -398 OFFCURVE",
"845 -417 OFFCURVE",
"912 -417 CURVE SMOOTH",
"1133 -417 OFFCURVE",
"1252 -316 OFFCURVE",
"1252 -8 CURVE SMOOTH",
"1252 1032 LINE SMOOTH",
"1252 1309 OFFCURVE",
"1100 1464 OFFCURVE",
"813 1464 CURVE SMOOTH",
"649 1464 OFFCURVE",
"466 1396 OFFCURVE",
"364 1249 CURVE",
"360 1249 LINE",
"352 1379 LINE SMOOTH",
"350 1416 OFFCURVE",
"333 1434 OFFCURVE",
"302 1434 CURVE SMOOTH",
"220 1434 LINE SMOOTH",
"187 1434 OFFCURVE",
"170 1416 OFFCURVE",
"170 1379 CURVE SMOOTH",
"170 55 LINE SMOOTH",
"170 18 OFFCURVE",
"187 0 OFFCURVE",
"220 0 CURVE SMOOTH"
);
}
);
width = 1422;
},
{
layerId = "39B5C782-31E0-4FF6-90B4-6BA13107E116";
paths = (
{
closed = 1;
nodes = (
"382 0 LINE SMOOTH",
"429 0 OFFCURVE",
"452 25 OFFCURVE",
"452 75 CURVE SMOOTH",
"452 627 LINE SMOOTH",
"452 1004 OFFCURVE",
"587 1232 OFFCURVE",
"752 1232 CURVE SMOOTH",
"935 1232 OFFCURVE",
"990 1113 OFFCURVE",
"990 864 CURVE SMOOTH",
"990 91 LINE SMOOTH",
"990 -28 OFFCURVE",
"980 -104 OFFCURVE",
"960 -136 CURVE SMOOTH",
"940 -168 OFFCURVE",
"908 -184 OFFCURVE",
"863 -184 CURVE SMOOTH",
"834 -184 OFFCURVE",
"803 -178 OFFCURVE",
"771 -165 CURVE SMOOTH",
"759 -160 OFFCURVE",
"748 -158 OFFCURVE",
"739 -158 CURVE SMOOTH",
"717 -158 OFFCURVE",
"701 -172 OFFCURVE",
"694 -199 CURVE SMOOTH",
"662 -320 LINE SMOOTH",
"660 -327 OFFCURVE",
"659 -334 OFFCURVE",
"659 -340 CURVE SMOOTH",
"659 -403 OFFCURVE",
"804 -420 OFFCURVE",
"902 -420 CURVE SMOOTH",
"1155 -420 OFFCURVE",
"1282 -280 OFFCURVE",
"1282 35 CURVE SMOOTH",
"1282 952 LINE SMOOTH",
"1282 1304 OFFCURVE",
"1146 1468 OFFCURVE",
"855 1468 CURVE SMOOTH",
"653 1468 OFFCURVE",
"543 1360 OFFCURVE",
"454 1223 CURVE",
"447 1223 LINE",
"434 1359 LINE SMOOTH",
"429 1409 OFFCURVE",
"406 1434 OFFCURVE",
"364 1434 CURVE SMOOTH",
"230 1434 LINE SMOOTH",
"183 1434 OFFCURVE",
"160 1409 OFFCURVE",
"160 1359 CURVE SMOOTH",
"160 75 LINE SMOOTH",
"160 25 OFFCURVE",
"183 0 OFFCURVE",
"230 0 CURVE SMOOTH"
);
}
);
width = 1442;
}
);
unicode = 014A;
},
{
glyphname = O;
lastChange = "2016-10-15 02:31:49 +0000";
layers = (
{
layerId = UUID0;
paths = (
{
closed = 1;
nodes = (
"92 254 OFFCURVE",
"325 -30 OFFCURVE",
"762 -30 CURVE SMOOTH",
"1198 -30 OFFCURVE",
"1432 255 OFFCURVE",
"1432 717 CURVE SMOOTH",
"1432 1180 OFFCURVE",
"1195 1464 OFFCURVE",
"762 1464 CURVE SMOOTH",
"328 1464 OFFCURVE",
"92 1181 OFFCURVE",
"92 717 CURVE SMOOTH"
);
},
{
closed = 1;
nodes = (
"297 1089 OFFCURVE",
"448 1308 OFFCURVE",
"762 1308 CURVE SMOOTH",
"1075 1308 OFFCURVE",
"1227 1089 OFFCURVE",
"1227 717 CURVE SMOOTH",
"1227 347 OFFCURVE",
"1078 126 OFFCURVE",
"762 126 CURVE SMOOTH",
"445 126 OFFCURVE",
"297 347 OFFCURVE",
"297 717 CURVE SMOOTH"
);
}
);
width = 1524;
},
{
layerId = "39B5C782-31E0-4FF6-90B4-6BA13107E116";
paths = (
{
closed = 1;
nodes = (
"86 260 OFFCURVE",
"331 -34 OFFCURVE",
"772 -34 CURVE SMOOTH",
"1213 -34 OFFCURVE",
"1458 260 OFFCURVE",
"1458 717 CURVE SMOOTH",
"1458 1174 OFFCURVE",
"1213 1468 OFFCURVE",
"772 1468 CURVE SMOOTH",
"331 1468 OFFCURVE",
"86 1174 OFFCURVE",
"86 717 CURVE SMOOTH"
);
},
{
closed = 1;
nodes = (
"398 1050 OFFCURVE",
"512 1232 OFFCURVE",
"772 1232 CURVE SMOOTH",
"1032 1232 OFFCURVE",
"1146 1050 OFFCURVE",
"1146 717 CURVE SMOOTH",
"1146 384 OFFCURVE",
"1032 202 OFFCURVE",
"772 202 CURVE SMOOTH",
"512 202 OFFCURVE",
"398 384 OFFCURVE",
"398 717 CURVE SMOOTH"
);
}
);
width = 1544;
}
);
unicode = 004F;
},
{
glyphname = Oslash;
lastChange = "2016-10-15 02:31:49 +0000";
layers = (
{
layerId = UUID0;
paths = (
{
closed = 1;
nodes = (
"92 516 OFFCURVE",
"135 353 OFFCURVE",
"220 227 CURVE",
"87 80 LINE SMOOTH",
"74 66 OFFCURVE",
"68 52 OFFCURVE",
"68 40 CURVE SMOOTH",
"68 29 OFFCURVE",
"73 18 OFFCURVE",
"84 9 CURVE SMOOTH",
"129 -31 LINE SMOOTH",
"139 -40 OFFCURVE",
"148 -45 OFFCURVE",
"158 -45 CURVE SMOOTH",
"171 -45 OFFCURVE",
"185 -37 OFFCURVE",
"199 -21 CURVE SMOOTH",
"320 113 LINE",
"431 18 OFFCURVE",
"578 -30 OFFCURVE",
"762 -30 CURVE SMOOTH",
"1198 -30 OFFCURVE",
"1432 255 OFFCURVE",
"1432 717 CURVE SMOOTH",
"1432 918 OFFCURVE",
"1389 1081 OFFCURVE",
"1304 1207 CURVE",
"1437 1354 LINE SMOOTH",
"1449 1368 OFFCURVE",
"1456 1381 OFFCURVE",
"1456 1394 CURVE SMOOTH",
"1456 1405 OFFCURVE",
"1450 1415 OFFCURVE",
"1440 1425 CURVE SMOOTH",
"1395 1465 LINE SMOOTH",
"1385 1474 OFFCURVE",
"1376 1479 OFFCURVE",
"1366 1478 CURVE",
"1353 1478 OFFCURVE",
"1339 1470 OFFCURVE",
"1325 1455 CURVE SMOOTH",
"1204 1321 LINE",
"1093 1416 OFFCURVE",
"946 1464 OFFCURVE",
"762 1464 CURVE SMOOTH",
"328 1464 OFFCURVE",
"92 1181 OFFCURVE",
"92 717 CURVE SMOOTH"
);
},
{
closed = 1;
nodes = (
"297 1089 OFFCURVE",
"448 1308 OFFCURVE",
"762 1308 CURVE SMOOTH",
"900 1308 OFFCURVE",
"1007 1268 OFFCURVE",
"1083 1187 CURVE",
"356 379 LINE",
"317 470 OFFCURVE",
"297 583 OFFCURVE",
"297 717 CURVE SMOOTH"
);
},
{
closed = 1;
nodes = (
"1168 1055 LINE",
"1207 964 OFFCURVE",
"1227 851 OFFCURVE",
"1227 717 CURVE SMOOTH",
"1227 347 OFFCURVE",
"1078 126 OFFCURVE",
"762 126 CURVE SMOOTH",
"624 126 OFFCURVE",
"517 166 OFFCURVE",
"441 247 CURVE"
);
}
);
width = 1524;
},
{
layerId = "39B5C782-31E0-4FF6-90B4-6BA13107E116";
paths = (
{
closed = 1;
nodes = (
"86 532 OFFCURVE",
"124 378 OFFCURVE",
"201 255 CURVE",
"66 105 LINE SMOOTH",
"53 90 OFFCURVE",
"46 77 OFFCURVE",
"46 64 CURVE SMOOTH",
"46 50 OFFCURVE",
"53 37 OFFCURVE",
"67 24 CURVE SMOOTH",
"156 -57 LINE SMOOTH",
"168 -68 OFFCURVE",
"180 -74 OFFCURVE",
"192 -74 CURVE SMOOTH",
"207 -74 OFFCURVE",
"222 -66 OFFCURVE",
"237 -49 CURVE SMOOTH",
"357 84 LINE",
"466 5 OFFCURVE",
"604 -34 OFFCURVE",
"772 -34 CURVE SMOOTH",
"1213 -34 OFFCURVE",
"1458 260 OFFCURVE",
"1458 717 CURVE SMOOTH",
"1458 902 OFFCURVE",
"1420 1056 OFFCURVE",
"1343 1179 CURVE",
"1478 1329 LINE SMOOTH",
"1491 1344 OFFCURVE",
"1498 1358 OFFCURVE",
"1498 1371 CURVE SMOOTH",
"1498 1385 OFFCURVE",
"1491 1398 OFFCURVE",
"1477 1410 CURVE SMOOTH",
"1388 1491 LINE SMOOTH",
"1376 1502 OFFCURVE",
"1364 1508 OFFCURVE",
"1351 1508 CURVE SMOOTH",
"1337 1508 OFFCURVE",
"1322 1499 OFFCURVE",
"1307 1483 CURVE SMOOTH",
"1187 1350 LINE",
"1078 1429 OFFCURVE",
"940 1468 OFFCURVE",
"772 1468 CURVE SMOOTH",
"331 1468 OFFCURVE",
"86 1174 OFFCURVE",
"86 717 CURVE SMOOTH"
);
},
{
closed = 1;
nodes = (
"398 1050 OFFCURVE",
"512 1232 OFFCURVE",
"772 1232 CURVE SMOOTH",
"872 1232 OFFCURVE",
"951 1206 OFFCURVE",
"1010 1153 CURVE",
"420 498 LINE",
"405 561 OFFCURVE",
"398 634 OFFCURVE",
"398 717 CURVE SMOOTH"
);
},
{
closed = 1;
nodes = (
"1124 936 LINE",
"1139 873 OFFCURVE",
"1146 800 OFFCURVE",
"1146 717 CURVE SMOOTH",
"1146 384 OFFCURVE",
"1032 202 OFFCURVE",
"772 202 CURVE SMOOTH",
"672 202 OFFCURVE",
"593 228 OFFCURVE",
"534 281 CURVE"
);
}
);
width = 1544;
}
);
unicode = 00D8;
},
{
glyphname = OE;
lastChange = "2016-10-15 02:31:38 +0000";
layers = (
{
layerId = UUID0;
paths = (
{
closed = 1;
nodes = (
"92 253 OFFCURVE",
"329 -30 OFFCURVE",
"720 -30 CURVE SMOOTH",
"834 -30 OFFCURVE",
"950 0 OFFCURVE",
"1063 0 CURVE SMOOTH",
"1868 0 LINE SMOOTH",
"1905 0 OFFCURVE",
"1923 15 OFFCURVE",
"1923 45 CURVE SMOOTH",
"1923 119 LINE SMOOTH",
"1923 149 OFFCURVE",
"1905 164 OFFCURVE",
"1868 164 CURVE SMOOTH",
"1145 164 LINE",
"1145 662 LINE",
"1778 662 LINE SMOOTH",
"1815 662 OFFCURVE",
"1833 677 OFFCURVE",
"1833 707 CURVE SMOOTH",
"1833 781 LINE SMOOTH",
"1833 811 OFFCURVE",
"1815 826 OFFCURVE",
"1778 826 CURVE SMOOTH",
"1145 826 LINE",
"1145 1270 LINE",
"1838 1270 LINE SMOOTH",
"1875 1270 OFFCURVE",
"1893 1285 OFFCURVE",
"1893 1315 CURVE SMOOTH",
"1893 1389 LINE SMOOTH",
"1893 1419 OFFCURVE",
"1875 1434 OFFCURVE",
"1838 1434 CURVE SMOOTH",
"1063 1434 LINE SMOOTH",
"950 1434 OFFCURVE",
"834 1464 OFFCURVE",
"720 1464 CURVE SMOOTH",
"332 1464 OFFCURVE",
"92 1186 OFFCURVE",
"92 719 CURVE SMOOTH"
);
},
{
closed = 1;
nodes = (
"297 1091 OFFCURVE",
"438 1308 OFFCURVE",
"720 1308 CURVE SMOOTH",
"800 1308 OFFCURVE",
"878 1295 OFFCURVE",
"953 1270 CURVE",
"953 164 LINE",
"878 139 OFFCURVE",
"800 126 OFFCURVE",
"720 126 CURVE SMOOTH",
"435 126 OFFCURVE",
"297 346 OFFCURVE",
"297 717 CURVE SMOOTH"
);
}
);
width = 2013;
}
);
unicode = 0152;
},
{
glyphname = P;
lastChange = "2016-10-15 02:31:49 +0000";
layers = (
{
layerId = UUID0;
paths = (
{
closed = 1;
nodes = (
"312 0 LINE SMOOTH",
"345 0 OFFCURVE",
"362 18 OFFCURVE",
"362 55 CURVE SMOOTH",
"362 576 LINE",
"640 576 LINE SMOOTH",
"867 576 OFFCURVE",
"1020 614 OFFCURVE",
"1099 690 CURVE SMOOTH",
"1178 766 OFFCURVE",
"1218 872 OFFCURVE",
"1218 1005 CURVE SMOOTH",
"1218 1138 OFFCURVE",
"1178 1243 OFFCURVE",
"1099 1319 CURVE SMOOTH",
"1020 1396 OFFCURVE",
"867 1434 OFFCURVE",
"640 1434 CURVE SMOOTH",
"220 1434 LINE SMOOTH",
"187 1434 OFFCURVE",
"170 1416 OFFCURVE",
"170 1379 CURVE SMOOTH",
"170 55 LINE SMOOTH",
"170 18 OFFCURVE",
"187 0 OFFCURVE",
"220 0 CURVE SMOOTH"
);
},
{
closed = 1;
nodes = (
"362 1270 LINE",
"643 1270 LINE SMOOTH",
"940 1270 OFFCURVE",
"1023 1190 OFFCURVE",
"1023 1005 CURVE SMOOTH",
"1023 821 OFFCURVE",
"942 740 OFFCURVE",
"643 740 CURVE SMOOTH",
"362 740 LINE"
);
}
);
width = 1308;
},
{
layerId = "39B5C782-31E0-4FF6-90B4-6BA13107E116";
paths = (
{
closed = 1;
nodes = (
"382 0 LINE SMOOTH",
"429 0 OFFCURVE",
"452 25 OFFCURVE",
"452 75 CURVE SMOOTH",
"452 536 LINE",
"604 536 LINE SMOOTH",
"844 536 OFFCURVE",
"1010 575 OFFCURVE",
"1103 653 CURVE SMOOTH",
"1196 731 OFFCURVE",
"1243 842 OFFCURVE",
"1243 985 CURVE SMOOTH",
"1243 1128 OFFCURVE",
"1196 1239 OFFCURVE",
"1103 1317 CURVE SMOOTH",
"1010 1395 OFFCURVE",
"844 1434 OFFCURVE",
"604 1434 CURVE SMOOTH",
"230 1434 LINE SMOOTH",
"183 1434 OFFCURVE",
"160 1409 OFFCURVE",
"160 1359 CURVE SMOOTH",
"160 75 LINE SMOOTH",
"160 25 OFFCURVE",
"183 0 OFFCURVE",
"230 0 CURVE SMOOTH"
);
},
{
closed = 1;
nodes = (
"452 1190 LINE",
"603 1190 LINE SMOOTH",
"872 1190 OFFCURVE",
"947 1131 OFFCURVE",
"947 985 CURVE SMOOTH",
"947 840 OFFCURVE",
"874 780 OFFCURVE",
"603 780 CURVE SMOOTH",
"452 780 LINE"
);
}
);
width = 1328;
}
);
unicode = 0050;
},
{
glyphname = Thorn;
lastChange = "2016-10-15 02:31:49 +0000";
layers = (
{
layerId = UUID0;
paths = (
{
closed = 1;
nodes = (
"312 -8 LINE SMOOTH",
"345 -8 OFFCURVE",
"362 10 OFFCURVE",
"362 47 CURVE SMOOTH",
"362 336 LINE",
"560 336 LINE SMOOTH",
"960 336 OFFCURVE",
"1150 463 OFFCURVE",
"1150 756 CURVE SMOOTH",
"1150 1049 OFFCURVE",
"960 1176 OFFCURVE",
"560 1176 CURVE SMOOTH",
"362 1176 LINE",
"362 1380 LINE SMOOTH",
"362 1417 OFFCURVE",
"345 1435 OFFCURVE",
"312 1435 CURVE SMOOTH",
"220 1435 LINE SMOOTH",
"187 1435 OFFCURVE",
"170 1417 OFFCURVE",
"170 1380 CURVE SMOOTH",
"170 47 LINE SMOOTH",
"170 10 OFFCURVE",
"187 -8 OFFCURVE",
"220 -8 CURVE SMOOTH"
);
},
{
closed = 1;
nodes = (
"362 1012 LINE",
"578 1012 LINE SMOOTH",
"816 1012 OFFCURVE",
"945 958 OFFCURVE",
"945 756 CURVE SMOOTH",
"945 554 OFFCURVE",
"816 500 OFFCURVE",
"578 500 CURVE SMOOTH",
"362 500 LINE"
);
}
);
width = 1244;
},
{
layerId = "39B5C782-31E0-4FF6-90B4-6BA13107E116";
paths = (
{
closed = 1;
nodes = (
"382 -11 LINE SMOOTH",
"429 -11 OFFCURVE",
"452 14 OFFCURVE",
"452 64 CURVE SMOOTH",
"452 302 LINE",
"608 302 LINE SMOOTH",
"1036 302 OFFCURVE",
"1222 457 OFFCURVE",
"1222 750 CURVE SMOOTH",
"1222 1043 OFFCURVE",
"1036 1198 OFFCURVE",
"608 1198 CURVE SMOOTH",
"452 1198 LINE",
"452 1363 LINE SMOOTH",
"452 1413 OFFCURVE",
"429 1438 OFFCURVE",
"382 1438 CURVE SMOOTH",
"230 1438 LINE SMOOTH",
"183 1438 OFFCURVE",
"160 1413 OFFCURVE",
"160 1363 CURVE SMOOTH",
"160 64 LINE SMOOTH",
"160 14 OFFCURVE",
"183 -11 OFFCURVE",
"230 -11 CURVE SMOOTH"
);
},
{
closed = 1;
nodes = (
"452 954 LINE",
"615 954 LINE SMOOTH",
"830 954 OFFCURVE",
"920 897 OFFCURVE",
"920 750 CURVE SMOOTH",
"920 603 OFFCURVE",
"830 546 OFFCURVE",
"615 546 CURVE SMOOTH",
"452 546 LINE"
);
}
);
width = 1312;
}
);
unicode = 00DE;
},
{
glyphname = Q;
lastChange = "2016-10-15 02:31:49 +0000";
layers = (
{
layerId = UUID0;
paths = (
{
closed = 1;
nodes = (
"92 290 OFFCURVE",
"295 9 OFFCURVE",
"675 -26 CURVE",
"681 -117 OFFCURVE",
"715 -198 OFFCURVE",
"776 -269 CURVE SMOOTH",
"838 -341 OFFCURVE",
"941 -377 OFFCURVE",
"1084 -377 CURVE SMOOTH",
"1137 -377 OFFCURVE",
"1281 -369 OFFCURVE",
"1281 -332 CURVE SMOOTH",
"1281 -330 OFFCURVE",
"1281 -328 OFFCURVE",
"1281 -326 CURVE SMOOTH",
"1261 -238 LINE SMOOTH",
"1259 -229 OFFCURVE",
"1251 -224 OFFCURVE",
"1239 -224 CURVE SMOOTH",
"1214 -224 OFFCURVE",
"1170 -237 OFFCURVE",
"1116 -237 CURVE SMOOTH",
"963 -237 OFFCURVE",
"880 -153 OFFCURVE",
"867 -24 CURVE",
"1236 16 OFFCURVE",
"1432 295 OFFCURVE",
"1432 717 CURVE SMOOTH",
"1432 1180 OFFCURVE",
"1195 1464 OFFCURVE",
"762 1464 CURVE SMOOTH",
"328 1464 OFFCURVE",
"92 1184 OFFCURVE",
"92 719 CURVE SMOOTH"
);
},
{
closed = 1;
nodes = (
"297 1089 OFFCURVE",
"448 1308 OFFCURVE",
"762 1308 CURVE SMOOTH",
"1075 1308 OFFCURVE",
"1227 1089 OFFCURVE",
"1227 717 CURVE SMOOTH",
"1227 347 OFFCURVE",
"1078 126 OFFCURVE",
"762 126 CURVE SMOOTH",
"445 126 OFFCURVE",
"297 347 OFFCURVE",
"297 717 CURVE SMOOTH"
);
}
);
width = 1524;
},
{
layerId = "39B5C782-31E0-4FF6-90B4-6BA13107E116";
paths = (
{
closed = 1;
nodes = (
"86 317 OFFCURVE",
"277 32 OFFCURVE",
"626 -23 CURVE",
"633 -128 OFFCURVE",
"667 -220 OFFCURVE",
"726 -294 CURVE SMOOTH",
"786 -369 OFFCURVE",
"905 -407 OFFCURVE",
"1084 -407 CURVE SMOOTH",
"1131 -407 OFFCURVE",
"1192 -396 OFFCURVE",
"1272 -376 CURVE SMOOTH",
"1297 -370 OFFCURVE",
"1309 -358 OFFCURVE",
"1309 -338 CURVE SMOOTH",
"1309 -335 OFFCURVE",
"1309 -330 OFFCURVE",
"1308 -326 CURVE SMOOTH",
"1280 -210 LINE SMOOTH",
"1276 -193 OFFCURVE",
"1265 -185 OFFCURVE",
"1246 -185 CURVE SMOOTH",
"1239 -185 OFFCURVE",
"1231 -186 OFFCURVE",
"1222 -188 CURVE SMOOTH",
"1185 -197 OFFCURVE",
"1150 -202 OFFCURVE",
"1116 -202 CURVE SMOOTH",
"968 -202 OFFCURVE",
"931 -145 OFFCURVE",
"919 -23 CURVE",
"1268 35 OFFCURVE",
"1458 317 OFFCURVE",
"1458 717 CURVE SMOOTH",
"1458 1174 OFFCURVE",
"1213 1468 OFFCURVE",
"772 1468 CURVE SMOOTH",
"331 1468 OFFCURVE",
"86 1174 OFFCURVE",
"86 717 CURVE SMOOTH"
);
},
{
closed = 1;
nodes = (
"398 1050 OFFCURVE",
"512 1232 OFFCURVE",
"772 1232 CURVE SMOOTH",
"1032 1232 OFFCURVE",
"1146 1050 OFFCURVE",
"1146 717 CURVE SMOOTH",
"1146 384 OFFCURVE",
"1032 202 OFFCURVE",
"772 202 CURVE SMOOTH",
"512 202 OFFCURVE",
"398 384 OFFCURVE",
"398 717 CURVE SMOOTH"
);
}
);
width = 1544;
}
);
unicode = 0051;
},
{
glyphname = R;
lastChange = "2016-10-15 02:31:49 +0000";
layers = (
{
layerId = UUID0;
paths = (
{
closed = 1;
nodes = (
"312 0 LINE SMOOTH",
"345 0 OFFCURVE",
"362 18 OFFCURVE",
"362 55 CURVE SMOOTH",
"362 621 LINE",
"536 621 LINE SMOOTH",
"703 621 OFFCURVE",
"816 495 OFFCURVE",
"874 396 CURVE SMOOTH",
"1082 39 LINE SMOOTH",
"1097 13 OFFCURVE",
"1121 0 OFFCURVE",
"1152 0 CURVE SMOOTH",
"1266 0 LINE SMOOTH",
"1289 0 OFFCURVE",
"1300 8 OFFCURVE",
"1300 23 CURVE SMOOTH",
"1300 34 OFFCURVE",
"1295 48 OFFCURVE",
"1284 66 CURVE SMOOTH",
"1058 433 LINE SMOOTH",
"998 530 OFFCURVE",
"991 550 OFFCURVE",
"849 655 CURVE",
"849 657 LINE",
"1108 679 OFFCURVE",
"1251 836 OFFCURVE",
"1251 1041 CURVE SMOOTH",
"1251 1272 OFFCURVE",
"1093 1434 OFFCURVE",
"703 1434 CURVE SMOOTH",
"220 1434 LINE SMOOTH",
"187 1434 OFFCURVE",
"170 1416 OFFCURVE",
"170 1379 CURVE SMOOTH",
"170 55 LINE SMOOTH",
"170 18 OFFCURVE",
"187 0 OFFCURVE",
"220 0 CURVE SMOOTH"
);
},
{
closed = 1;
nodes = (
"362 1270 LINE",
"699 1270 LINE SMOOTH",
"914 1270 OFFCURVE",
"1056 1224 OFFCURVE",
"1056 1053 CURVE SMOOTH",
"1056 829 OFFCURVE",
"908 785 OFFCURVE",
"651 785 CURVE SMOOTH",
"362 785 LINE"
);
}
);
width = 1394;
},
{
layerId = "39B5C782-31E0-4FF6-90B4-6BA13107E116";
paths = (
{
closed = 1;
nodes = (
"382 0 LINE SMOOTH",
"429 0 OFFCURVE",
"452 25 OFFCURVE",
"452 75 CURVE SMOOTH",
"452 579 LINE",
"526 579 LINE SMOOTH",
"638 579 OFFCURVE",
"780 462 OFFCURVE",
"820 396 CURVE SMOOTH",
"1022 59 LINE SMOOTH",
"1045 20 OFFCURVE",
"1075 0 OFFCURVE",
"1112 0 CURVE SMOOTH",
"1286 0 LINE SMOOTH",
"1325 0 OFFCURVE",
"1344 11 OFFCURVE",
"1344 34 CURVE",
"1345 48 OFFCURVE",
"1337 64 OFFCURVE",
"1324 86 CURVE",
"1104 433 LINE SMOOTH",
"1064 496 OFFCURVE",
"1007 596 OFFCURVE",
"879 645 CURVE",
"879 647 LINE",
"1110 688 OFFCURVE",
"1286 812 OFFCURVE",
"1286 1028 CURVE SMOOTH",
"1286 1316 OFFCURVE",
"1104 1434 OFFCURVE",
"693 1434 CURVE SMOOTH",
"230 1434 LINE SMOOTH",
"183 1434 OFFCURVE",
"160 1409 OFFCURVE",
"160 1359 CURVE SMOOTH",
"160 75 LINE SMOOTH",
"160 25 OFFCURVE",
"183 0 OFFCURVE",
"230 0 CURVE SMOOTH"
);
},
{
closed = 1;
nodes = (
"452 1190 LINE",
"679 1190 LINE SMOOTH",
"887 1190 OFFCURVE",
"1000 1162 OFFCURVE",
"1000 1017 CURVE SMOOTH",
"1000 886 OFFCURVE",
"902 827 OFFCURVE",
"631 827 CURVE SMOOTH",
"452 827 LINE"
);
}
);
width = 1428;
}
);
unicode = 0052;
},
{
glyphname = S;
lastChange = "2016-10-15 02:31:49 +0000";
layers = (
{
layerId = UUID0;
paths = (
{
closed = 1;
nodes = (
"218 36 OFFCURVE",
"377 -30 OFFCURVE",
"619 -30 CURVE SMOOTH",
"822 -30 OFFCURVE",
"944 11 OFFCURVE",
"1043 139 CURVE SMOOTH",
"1092 202 OFFCURVE",
"1116 281 OFFCURVE",
"1116 376 CURVE SMOOTH",
"1116 597 OFFCURVE",
"992 735 OFFCURVE",
"666 824 CURVE SMOOTH",
"578 848 OFFCURVE",
"513 870 OFFCURVE",
"471 888 CURVE SMOOTH",
"365 933 OFFCURVE",
"342 1016 OFFCURVE",
"342 1095 CURVE SMOOTH",
"342 1239 OFFCURVE",
"450 1307 OFFCURVE",
"626 1307 CURVE SMOOTH",
"719 1307 OFFCURVE",
"830 1254 OFFCURVE",
"896 1208 CURVE SMOOTH",
"922 1189 OFFCURVE",
"944 1181 OFFCURVE",
"960 1180 CURVE SMOOTH",
"971 1180 OFFCURVE",
"980 1185 OFFCURVE",
"986 1194 CURVE SMOOTH",
"1037 1267 LINE SMOOTH",
"1044 1276 OFFCURVE",
"1047 1286 OFFCURVE",
"1047 1295 CURVE SMOOTH",
"1047 1312 OFFCURVE",
"1036 1329 OFFCURVE",
"1013 1345 CURVE SMOOTH",
"914 1416 OFFCURVE",
"793 1464 OFFCURVE",
"624 1464 CURVE SMOOTH",
"422 1464 OFFCURVE",
"150 1386 OFFCURVE",
"150 1093 CURVE SMOOTH",
"150 877 OFFCURVE",
"225 750 OFFCURVE",
"594 636 CURVE SMOOTH",
"675 611 OFFCURVE",
"736 590 OFFCURVE",
"777 571 CURVE SMOOTH",
"853 535 OFFCURVE",
"913 471 OFFCURVE",
"913 353 CURVE",
"910 210 OFFCURVE",
"799 126 OFFCURVE",
"624 126 CURVE SMOOTH",
"459 126 OFFCURVE",
"360 181 OFFCURVE",
"252 261 CURVE SMOOTH",
"230 277 OFFCURVE",
"212 285 OFFCURVE",
"197 285 CURVE SMOOTH",
"184 285 OFFCURVE",
"173 279 OFFCURVE",
"165 267 CURVE SMOOTH",
"113 192 LINE SMOOTH",
"107 184 OFFCURVE",
"105 176 OFFCURVE",
"105 168 CURVE SMOOTH",
"105 150 OFFCURVE",
"117 130 OFFCURVE",
"141 108 CURVE SMOOTH"
);
}
);
width = 1224;
},
{
layerId = "39B5C782-31E0-4FF6-90B4-6BA13107E116";
paths = (
{
closed = 1;
nodes = (
"278 7 OFFCURVE",
"400 -34 OFFCURVE",
"635 -34 CURVE SMOOTH",
"790 -34 OFFCURVE",
"968 -8 OFFCURVE",
"1104 131 CURVE SMOOTH",
"1172 200 OFFCURVE",
"1206 289 OFFCURVE",
"1206 396 CURVE SMOOTH",
"1206 749 OFFCURVE",
"962 791 OFFCURVE",
"581 915 CURVE SMOOTH",
"516 936 OFFCURVE",
"422 972 OFFCURVE",
"422 1080 CURVE SMOOTH",
"422 1206 OFFCURVE",
"552 1232 OFFCURVE",
"656 1232 CURVE SMOOTH",
"815 1232 OFFCURVE",
"947 1107 OFFCURVE",
"993 1107 CURVE SMOOTH",
"1014 1107 OFFCURVE",
"1031 1117 OFFCURVE",
"1046 1137 CURVE SMOOTH",
"1127 1246 LINE SMOOTH",
"1134 1256 OFFCURVE",
"1138 1266 OFFCURVE",
"1138 1276 CURVE SMOOTH",
"1138 1366 OFFCURVE",
"877 1468 OFFCURVE",
"663 1468 CURVE SMOOTH",
"506 1468 OFFCURVE",
"340 1445 OFFCURVE",
"220 1313 CURVE SMOOTH",
"160 1247 OFFCURVE",
"130 1168 OFFCURVE",
"130 1075 CURVE SMOOTH",
"130 918 OFFCURVE",
"182 836 OFFCURVE",
"275 762 CURVE SMOOTH",
"534 553 OFFCURVE",
"908 635 OFFCURVE",
"908 389 CURVE SMOOTH",
"908 258 OFFCURVE",
"806 202 OFFCURVE",
"640 202 CURVE SMOOTH",
"508 202 OFFCURVE",
"375 273 OFFCURVE",
"303 324 CURVE SMOOTH",
"280 340 OFFCURVE",
"259 348 OFFCURVE",
"241 348 CURVE SMOOTH",
"221 348 OFFCURVE",
"205 338 OFFCURVE",
"192 318 CURVE SMOOTH",
"115 202 LINE SMOOTH",
"108 191 OFFCURVE",
"104 180 OFFCURVE",
"104 169 CURVE SMOOTH",
"104 148 OFFCURVE",
"118 127 OFFCURVE",
"145 107 CURVE SMOOTH"
);
}
);
width = 1308;
}
);
unicode = 0053;
},
{
glyphname = uni1E9E;
lastChange = "2016-10-15 02:31:49 +0000";
layers = (
{
layerId = UUID0;
paths = (
{
closed = 1;
nodes = (
"312 0 LINE SMOOTH",
"345 0 OFFCURVE",
"362 18 OFFCURVE",
"362 55 CURVE SMOOTH",
"362 952 LINE SMOOTH",
"362 1211 OFFCURVE",
"520 1308 OFFCURVE",
"700 1308 CURVE SMOOTH",
"801 1308 OFFCURVE",
"854 1296 OFFCURVE",
"921 1228 CURVE",
"921 1225 LINE",
"606 816 LINE SMOOTH",
"594 801 OFFCURVE",
"589 786 OFFCURVE",
"589 771 CURVE SMOOTH",
"589 762 OFFCURVE",
"590 754 OFFCURVE",
"594 746 CURVE SMOOTH",
"616 696 LINE SMOOTH",
"625 675 OFFCURVE",
"642 664 OFFCURVE",
"668 663 CURVE SMOOTH",
"848 655 OFFCURVE",
"991 590 OFFCURVE",
"991 392 CURVE SMOOTH",
"991 213 OFFCURVE",
"911 126 OFFCURVE",
"775 126 CURVE SMOOTH",
"653 126 OFFCURVE",
"605 182 OFFCURVE",
"575 182 CURVE SMOOTH",
"561 182 OFFCURVE",
"549 174 OFFCURVE",
"540 159 CURVE SMOOTH",
"498 88 LINE SMOOTH",
"493 79 OFFCURVE",
"490 71 OFFCURVE",
"490 63 CURVE SMOOTH",
"490 21 OFFCURVE",
"594 -12 OFFCURVE",
"636 -20 CURVE SMOOTH",
"673 -27 OFFCURVE",
"722 -30 OFFCURVE",
"784 -30 CURVE SMOOTH",
"1053 -30 OFFCURVE",
"1196 142 OFFCURVE",
"1196 376 CURVE SMOOTH",
"1196 591 OFFCURVE",
"1083 753 OFFCURVE",
"825 799 CURVE",
"825 802 LINE",
"1110 1175 LINE SMOOTH",
"1121 1189 OFFCURVE",
"1126 1211 OFFCURVE",
"1126 1241 CURVE SMOOTH",
"1126 1284 OFFCURVE",
"1084 1341 OFFCURVE",
"968 1406 CURVE SMOOTH",
"899 1444 OFFCURVE",
"818 1464 OFFCURVE",
"720 1464 CURVE SMOOTH",
"556 1464 OFFCURVE",
"423 1421 OFFCURVE",
"322 1335 CURVE SMOOTH",
"221 1249 OFFCURVE",
"170 1100 OFFCURVE",
"170 889 CURVE SMOOTH",
"170 55 LINE SMOOTH",
"170 18 OFFCURVE",
"187 0 OFFCURVE",
"220 0 CURVE SMOOTH"
);
}
);
width = 1306;
},
{
layerId = "39B5C782-31E0-4FF6-90B4-6BA13107E116";
paths = (
{
closed = 1;
nodes = (
"382 0 LINE SMOOTH",
"429 0 OFFCURVE",
"452 25 OFFCURVE",
"452 75 CURVE SMOOTH",
"452 872 LINE SMOOTH",
"452 1017 OFFCURVE",
"486 1112 OFFCURVE",
"555 1160 CURVE SMOOTH",
"624 1208 OFFCURVE",
"699 1232 OFFCURVE",
"780 1232 CURVE SMOOTH",
"828 1232 OFFCURVE",
"870 1204 OFFCURVE",
"893 1163 CURVE",
"893 1160 LINE",
"668 822 LINE SMOOTH",
"656 804 OFFCURVE",
"649 786 OFFCURVE",
"649 769 CURVE SMOOTH",
"649 756 OFFCURVE",
"653 744 OFFCURVE",
"659 732 CURVE SMOOTH",
"681 688 LINE SMOOTH",
"694 661 OFFCURVE",
"717 646 OFFCURVE",
"750 643 CURVE SMOOTH",
"945 625 OFFCURVE",
"1002 523 OFFCURVE",
"1002 392 CURVE SMOOTH",
"1002 247 OFFCURVE",
"919 202 OFFCURVE",
"835 202 CURVE SMOOTH",
"713 202 OFFCURVE",
"675 260 OFFCURVE",
"641 260 CURVE SMOOTH",
"627 260 OFFCURVE",
"616 252 OFFCURVE",
"610 235 CURVE SMOOTH",
"556 88 LINE SMOOTH",
"553 79 OFFCURVE",
"551 72 OFFCURVE",
"551 64 CURVE SMOOTH",
"551 47 OFFCURVE",
"560 34 OFFCURVE",
"578 24 CURVE SMOOTH",
"660 -21 OFFCURVE",
"747 -34 OFFCURVE",
"854 -34 CURVE SMOOTH",
"1110 -34 OFFCURVE",
"1304 122 OFFCURVE",
"1304 396 CURVE SMOOTH",
"1304 580 OFFCURVE",
"1224 748 OFFCURVE",
"982 811 CURVE",
"982 814 LINE",
"1208 1148 LINE SMOOTH",
"1225 1173 OFFCURVE",
"1233 1198 OFFCURVE",
"1233 1224 CURVE SMOOTH",
"1233 1315 OFFCURVE",
"1055 1468 OFFCURVE",
"790 1468 CURVE SMOOTH",
"610 1468 OFFCURVE",
"460 1419 OFFCURVE",
"340 1320 CURVE SMOOTH",
"220 1222 OFFCURVE",
"160 1052 OFFCURVE",
"160 809 CURVE SMOOTH",
"160 75 LINE SMOOTH",
"160 25 OFFCURVE",
"183 0 OFFCURVE",
"230 0 CURVE SMOOTH"
);
}
);
width = 1408;
}
);
unicode = 1E9E;
},
{
glyphname = T;
lastChange = "2016-10-15 02:31:49 +0000";
layers = (
{
layerId = UUID0;
paths = (
{
closed = 1;
nodes = (
"524 1262 LINE",
"524 55 LINE SMOOTH",
"524 18 OFFCURVE",
"541 0 OFFCURVE",
"574 0 CURVE SMOOTH",
"666 0 LINE SMOOTH",
"699 0 OFFCURVE",
"716 18 OFFCURVE",
"716 55 CURVE SMOOTH",
"716 1262 LINE",
"1149 1262 LINE SMOOTH",
"1186 1262 OFFCURVE",
"1204 1277 OFFCURVE",
"1204 1307 CURVE SMOOTH",
"1204 1389 LINE SMOOTH",
"1204 1419 OFFCURVE",
"1186 1434 OFFCURVE",
"1149 1434 CURVE SMOOTH",
"91 1434 LINE SMOOTH",
"54 1434 OFFCURVE",
"36 1419 OFFCURVE",
"36 1389 CURVE SMOOTH",
"36 1307 LINE SMOOTH",
"36 1277 OFFCURVE",
"54 1262 OFFCURVE",
"91 1262 CURVE SMOOTH"
);
}
);
width = 1240;
},
{
layerId = "39B5C782-31E0-4FF6-90B4-6BA13107E116";
paths = (
{
closed = 1;
nodes = (
"477 1178 LINE",
"477 55 LINE SMOOTH",
"477 18 OFFCURVE",
"494 0 OFFCURVE",
"527 0 CURVE SMOOTH",
"719 0 LINE SMOOTH",
"752 0 OFFCURVE",
"769 18 OFFCURVE",
"769 55 CURVE SMOOTH",
"769 1178 LINE",
"1137 1178 LINE SMOOTH",
"1187 1178 OFFCURVE",
"1212 1200 OFFCURVE",
"1212 1243 CURVE SMOOTH",
"1212 1369 LINE SMOOTH",
"1212 1412 OFFCURVE",
"1187 1434 OFFCURVE",
"1137 1434 CURVE SMOOTH",
"109 1434 LINE SMOOTH",
"59 1434 OFFCURVE",
"34 1412 OFFCURVE",
"34 1369 CURVE SMOOTH",
"34 1243 LINE SMOOTH",
"34 1200 OFFCURVE",
"59 1178 OFFCURVE",
"109 1178 CURVE SMOOTH"
);
}
);
width = 1246;
}
);
unicode = 0054;
},
{
glyphname = U;
lastChange = "2016-10-15 02:31:49 +0000";
layers = (
{
layerId = UUID0;
paths = (
{
closed = 1;
nodes = (
"170 547 LINE SMOOTH",
"170 336 OFFCURVE",
"218 187 OFFCURVE",
"315 100 CURVE SMOOTH",
"412 13 OFFCURVE",
"541 -30 OFFCURVE",
"701 -30 CURVE SMOOTH",
"861 -30 OFFCURVE",
"989 13 OFFCURVE",
"1086 100 CURVE SMOOTH",
"1183 187 OFFCURVE",
"1232 336 OFFCURVE",
"1232 547 CURVE SMOOTH",
"1232 1379 LINE SMOOTH",
"1232 1416 OFFCURVE",
"1215 1434 OFFCURVE",
"1182 1434 CURVE SMOOTH",
"1090 1434 LINE SMOOTH",
"1057 1434 OFFCURVE",
"1040 1416 OFFCURVE",
"1040 1379 CURVE SMOOTH",
"1040 577 LINE SMOOTH",
"1040 390 OFFCURVE",
"1013 268 OFFCURVE",
"960 211 CURVE SMOOTH",
"907 154 OFFCURVE",
"821 126 OFFCURVE",
"701 126 CURVE SMOOTH",
"581 126 OFFCURVE",
"494 154 OFFCURVE",
"441 211 CURVE SMOOTH",
"388 268 OFFCURVE",
"362 390 OFFCURVE",
"362 577 CURVE SMOOTH",
"362 1379 LINE SMOOTH",
"362 1416 OFFCURVE",
"345 1434 OFFCURVE",
"312 1434 CURVE SMOOTH",
"220 1434 LINE SMOOTH",
"187 1434 OFFCURVE",
"170 1416 OFFCURVE",
"170 1379 CURVE SMOOTH"
);
}
);
width = 1402;
},
{
layerId = "39B5C782-31E0-4FF6-90B4-6BA13107E116";
paths = (
{
closed = 1;
nodes = (
"160 597 LINE SMOOTH",
"160 364 OFFCURVE",
"209 199 OFFCURVE",
"308 106 CURVE SMOOTH",
"406 13 OFFCURVE",
"541 -34 OFFCURVE",
"711 -34 CURVE SMOOTH",
"881 -34 OFFCURVE",
"1015 13 OFFCURVE",
"1114 106 CURVE SMOOTH",
"1213 200 OFFCURVE",
"1262 364 OFFCURVE",
"1262 597 CURVE SMOOTH",
"1262 1379 LINE SMOOTH",
"1262 1416 OFFCURVE",
"1239 1434 OFFCURVE",
"1192 1434 CURVE SMOOTH",
"1040 1434 LINE SMOOTH",
"993 1434 OFFCURVE",
"970 1416 OFFCURVE",
"970 1379 CURVE SMOOTH",
"970 607 LINE SMOOTH",
"970 427 OFFCURVE",
"943 314 OFFCURVE",
"890 269 CURVE SMOOTH",
"837 224 OFFCURVE",
"778 202 OFFCURVE",
"711 202 CURVE SMOOTH",
"644 202 OFFCURVE",
"584 224 OFFCURVE",
"531 269 CURVE SMOOTH",
"478 314 OFFCURVE",
"452 427 OFFCURVE",
"452 607 CURVE SMOOTH",
"452 1379 LINE SMOOTH",
"452 1416 OFFCURVE",
"429 1434 OFFCURVE",
"382 1434 CURVE SMOOTH",
"230 1434 LINE SMOOTH",
"183 1434 OFFCURVE",
"160 1416 OFFCURVE",
"160 1379 CURVE SMOOTH"
);
}
);
width = 1422;
}
);
unicode = 0055;
},
{
glyphname = V;
lastChange = "2016-10-15 02:31:49 +0000";
layers = (
{
layerId = UUID0;
paths = (
{
closed = 1;
nodes = (
"533 61 LINE SMOOTH",
"548 20 OFFCURVE",
"570 0 OFFCURVE",
"599 0 CURVE SMOOTH",
"739 0 LINE SMOOTH",
"768 0 OFFCURVE",
"790 20 OFFCURVE",
"805 61 CURVE SMOOTH",
"1292 1368 LINE SMOOTH",
"1297 1382 OFFCURVE",
"1300 1394 OFFCURVE",
"1300 1404 CURVE SMOOTH",
"1300 1424 OFFCURVE",
"1288 1434 OFFCURVE",
"1265 1434 CURVE SMOOTH",
"1163 1434 LINE SMOOTH",
"1127 1434 OFFCURVE",
"1103 1418 OFFCURVE",
"1091 1385 CURVE SMOOTH",
"766 490 LINE SMOOTH",
"741 422 OFFCURVE",
"684 243 OFFCURVE",
"671 173 CURVE",
"667 173 LINE",
"654 242 OFFCURVE",
"596 423 OFFCURVE",
"572 490 CURVE SMOOTH",
"247 1385 LINE SMOOTH",
"235 1418 OFFCURVE",
"211 1434 OFFCURVE",
"175 1434 CURVE SMOOTH",
"73 1434 LINE SMOOTH",
"49 1434 OFFCURVE",
"38 1424 OFFCURVE",
"38 1404 CURVE SMOOTH",
"38 1394 OFFCURVE",
"40 1382 OFFCURVE",
"46 1368 CURVE"
);
}
);
width = 1338;
},
{
layerId = "39B5C782-31E0-4FF6-90B4-6BA13107E116";
paths = (
{
closed = 1;
nodes = (
"521 81 LINE SMOOTH",
"541 27 OFFCURVE",
"572 0 OFFCURVE",
"615 0 CURVE SMOOTH",
"755 0 LINE SMOOTH",
"798 0 OFFCURVE",
"829 27 OFFCURVE",
"849 81 CURVE SMOOTH",
"1327 1368 LINE SMOOTH",
"1331 1379 OFFCURVE",
"1333 1389 OFFCURVE",
"1333 1398 CURVE SMOOTH",
"1333 1422 OFFCURVE",
"1315 1434 OFFCURVE",
"1280 1434 CURVE SMOOTH",
"1121 1434 LINE SMOOTH",
"1076 1434 OFFCURVE",
"1046 1411 OFFCURVE",
"1029 1365 CURVE SMOOTH",
"723 530 LINE",
"691 439 OFFCURVE",
"694 449 OFFCURVE",
"687 373 CURVE",
"683 373 LINE",
"676 449 OFFCURVE",
"678 439 OFFCURVE",
"647 530 CURVE",
"341 1365 LINE SMOOTH",
"324 1411 OFFCURVE",
"294 1434 OFFCURVE",
"249 1434 CURVE SMOOTH",
"90 1434 LINE SMOOTH",
"54 1434 OFFCURVE",
"36 1422 OFFCURVE",
"36 1398 CURVE SMOOTH",
"36 1389 OFFCURVE",
"38 1379 OFFCURVE",
"43 1368 CURVE"
);
}
);
width = 1370;
}
);
unicode = 0056;
},
{
glyphname = W;
lastChange = "2016-10-15 02:31:49 +0000";
layers = (
{
layerId = UUID0;
paths = (
{
closed = 1;
nodes = (
"392 77 LINE SMOOTH",
"405 26 OFFCURVE",
"429 0 OFFCURVE",
"466 0 CURVE SMOOTH",
"591 0 LINE SMOOTH",
"624 0 OFFCURVE",
"648 28 OFFCURVE",
"662 84 CURVE SMOOTH",
"903 1043 LINE SMOOTH",
"928 1144 OFFCURVE",
"934 1189 OFFCURVE",
"943 1259 CURVE",
"945 1259 LINE",
"954 1189 OFFCURVE",
"959 1144 OFFCURVE",
"985 1043 CURVE SMOOTH",
"1226 84 LINE SMOOTH",
"1240 28 OFFCURVE",
"1264 0 OFFCURVE",
"1297 0 CURVE SMOOTH",
"1422 0 LINE SMOOTH",
"1458 0 OFFCURVE",
"1482 26 OFFCURVE",
"1496 77 CURVE SMOOTH",
"1840 1374 LINE SMOOTH",
"1843 1385 OFFCURVE",
"1844 1395 OFFCURVE",
"1844 1403 CURVE SMOOTH",
"1844 1424 OFFCURVE",
"1834 1434 OFFCURVE",
"1814 1434 CURVE SMOOTH",
"1692 1434 LINE SMOOTH",
"1671 1434 OFFCURVE",
"1656 1419 OFFCURVE",
"1649 1388 CURVE SMOOTH",
"1426 427 LINE",
"1407 350 OFFCURVE",
"1381 253 OFFCURVE",
"1364 173 CURVE",
"1359 173 LINE",
"1346 252 OFFCURVE",
"1328 322 OFFCURVE",
"1305 426 CURVE",
"1077 1380 LINE SMOOTH",
"1068 1416 OFFCURVE",
"1047 1434 OFFCURVE",
"1013 1434 CURVE SMOOTH",
"875 1434 LINE SMOOTH",
"841 1434 OFFCURVE",
"820 1416 OFFCURVE",
"811 1380 CURVE SMOOTH",
"583 426 LINE",
"560 322 OFFCURVE",
"542 252 OFFCURVE",
"529 173 CURVE",
"524 173 LINE",
"507 253 OFFCURVE",
"481 350 OFFCURVE",
"462 427 CURVE",
"239 1388 LINE SMOOTH",
"232 1419 OFFCURVE",
"217 1434 OFFCURVE",
"196 1434 CURVE SMOOTH",
"74 1434 LINE SMOOTH",
"54 1434 OFFCURVE",
"43 1424 OFFCURVE",
"43 1403 CURVE SMOOTH",
"43 1395 OFFCURVE",
"45 1385 OFFCURVE",
"48 1374 CURVE SMOOTH"
);
}
);
width = 1888;
},
{
layerId = "39B5C782-31E0-4FF6-90B4-6BA13107E116";
paths = (
{
closed = 1;
nodes = (
"385 97 LINE SMOOTH",
"402 32 OFFCURVE",
"433 0 OFFCURVE",
"479 0 CURVE SMOOTH",
"654 0 LINE SMOOTH",
"693 0 OFFCURVE",
"721 32 OFFCURVE",
"739 96 CURVE SMOOTH",
"979 934 LINE SMOOTH",
"1008 1036 OFFCURVE",
"1003 1016 OFFCURVE",
"1010 1099 CURVE",
"1012 1099 LINE",
"1019 1016 OFFCURVE",
"1014 1036 OFFCURVE",
"1043 934 CURVE SMOOTH",
"1283 96 LINE SMOOTH",
"1301 32 OFFCURVE",
"1329 0 OFFCURVE",
"1368 0 CURVE SMOOTH",
"1543 0 LINE SMOOTH",
"1588 0 OFFCURVE",
"1619 32 OFFCURVE",
"1637 97 CURVE SMOOTH",
"1977 1354 LINE SMOOTH",
"1980 1367 OFFCURVE",
"1983 1378 OFFCURVE",
"1982 1388 CURVE",
"1982 1418 OFFCURVE",
"1965 1434 OFFCURVE",
"1931 1434 CURVE SMOOTH",
"1746 1434 LINE SMOOTH",
"1715 1434 OFFCURVE",
"1694 1412 OFFCURVE",
"1683 1368 CURVE SMOOTH",
"1465 464 LINE",
"1461 443 OFFCURVE",
"1457 410 OFFCURVE",
"1454 363 CURVE",
"1449 363 LINE",
"1443 466 OFFCURVE",
"1444 470 OFFCURVE",
"1410 588 CURVE SMOOTH",
"1187 1360 LINE SMOOTH",
"1173 1409 OFFCURVE",
"1145 1434 OFFCURVE",
"1103 1434 CURVE SMOOTH",
"919 1434 LINE SMOOTH",
"877 1434 OFFCURVE",
"849 1409 OFFCURVE",
"835 1360 CURVE SMOOTH",
"612 588 LINE SMOOTH",
"578 470 OFFCURVE",
"579 466 OFFCURVE",
"573 363 CURVE",
"568 363 LINE",
"562 467 OFFCURVE",
"559 458 OFFCURVE",
"529 582 CURVE SMOOTH",
"339 1368 LINE SMOOTH",
"328 1412 OFFCURVE",
"307 1434 OFFCURVE",
"276 1434 CURVE SMOOTH",
"91 1434 LINE SMOOTH",
"57 1434 OFFCURVE",
"39 1418 OFFCURVE",
"39 1388 CURVE SMOOTH",
"39 1378 OFFCURVE",
"41 1367 OFFCURVE",
"45 1354 CURVE SMOOTH"
);
}
);
width = 2022;
}
);
unicode = 0057;
},
{
glyphname = X;
lastChange = "2016-10-15 02:31:49 +0000";
layers = (
{
layerId = UUID0;
paths = (
{
closed = 1;
nodes = (
"201 0 LINE SMOOTH",
"230 0 OFFCURVE",
"253 13 OFFCURVE",
"271 39 CURVE SMOOTH",
"655 607 LINE",
"1039 39 LINE SMOOTH",
"1056 13 OFFCURVE",
"1080 0 OFFCURVE",
"1109 0 CURVE SMOOTH",
"1233 0 LINE SMOOTH",
"1258 0 OFFCURVE",
"1270 7 OFFCURVE",
"1270 22 CURVE SMOOTH",
"1270 33 OFFCURVE",
"1264 47 OFFCURVE",
"1251 66 CURVE SMOOTH",
"771 740 LINE",
"1217 1368 LINE SMOOTH",
"1230 1386 OFFCURVE",
"1236 1401 OFFCURVE",
"1236 1412 CURVE SMOOTH",
"1236 1426 OFFCURVE",
"1224 1434 OFFCURVE",
"1199 1434 CURVE SMOOTH",
"1076 1434 LINE SMOOTH",
"1047 1434 OFFCURVE",
"1023 1421 OFFCURVE",
"1006 1395 CURVE SMOOTH",
"655 873 LINE",
"304 1395 LINE SMOOTH",
"287 1421 OFFCURVE",
"263 1434 OFFCURVE",
"234 1434 CURVE SMOOTH",
"111 1434 LINE SMOOTH",
"86 1434 OFFCURVE",
"73 1426 OFFCURVE",
"73 1412 CURVE SMOOTH",
"73 1401 OFFCURVE",
"80 1386 OFFCURVE",
"93 1368 CURVE SMOOTH",
"539 740 LINE",
"59 66 LINE SMOOTH",
"46 47 OFFCURVE",
"39 33 OFFCURVE",
"39 22 CURVE SMOOTH",
"39 7 OFFCURVE",
"52 0 OFFCURVE",
"77 0 CURVE SMOOTH"
);
}
);
width = 1310;
},
{
layerId = "39B5C782-31E0-4FF6-90B4-6BA13107E116";
paths = (
{
closed = 1;
nodes = (
"313 0 LINE SMOOTH",
"348 0 OFFCURVE",
"378 20 OFFCURVE",
"403 59 CURVE SMOOTH",
"709 537 LINE",
"1015 59 LINE SMOOTH",
"1040 20 OFFCURVE",
"1070 0 OFFCURVE",
"1105 0 CURVE SMOOTH",
"1310 0 LINE SMOOTH",
"1350 0 OFFCURVE",
"1370 11 OFFCURVE",
"1370 33 CURVE SMOOTH",
"1370 47 OFFCURVE",
"1363 64 OFFCURVE",
"1348 86 CURVE SMOOTH",
"904 740 LINE",
"1312 1348 LINE SMOOTH",
"1326 1370 OFFCURVE",
"1334 1387 OFFCURVE",
"1334 1400 CURVE SMOOTH",
"1334 1423 OFFCURVE",
"1314 1434 OFFCURVE",
"1274 1434 CURVE SMOOTH",
"1072 1434 LINE SMOOTH",
"1037 1434 OFFCURVE",
"1007 1414 OFFCURVE",
"982 1375 CURVE SMOOTH",
"709 943 LINE",
"436 1375 LINE SMOOTH",
"411 1414 OFFCURVE",
"381 1434 OFFCURVE",
"346 1434 CURVE SMOOTH",
"144 1434 LINE SMOOTH",
"104 1434 OFFCURVE",
"84 1423 OFFCURVE",
"84 1400 CURVE SMOOTH",
"84 1387 OFFCURVE",
"91 1370 OFFCURVE",
"106 1348 CURVE SMOOTH",
"513 740 LINE",
"70 86 LINE SMOOTH",
"55 64 OFFCURVE",
"48 47 OFFCURVE",
"48 33 CURVE SMOOTH",
"48 11 OFFCURVE",
"68 0 OFFCURVE",
"108 0 CURVE SMOOTH"
);
}
);
width = 1418;
}
);
unicode = 0058;
},
{
glyphname = Y;
lastChange = "2016-10-15 02:31:49 +0000";
layers = (
{
layerId = UUID0;
paths = (
{
closed = 1;
nodes = (
"555 590 LINE",
"555 55 LINE SMOOTH",
"555 18 OFFCURVE",
"572 0 OFFCURVE",
"605 0 CURVE SMOOTH",
"697 0 LINE SMOOTH",
"730 0 OFFCURVE",
"747 18 OFFCURVE",
"747 55 CURVE SMOOTH",
"747 590 LINE",
"1248 1368 LINE SMOOTH",
"1259 1385 OFFCURVE",
"1264 1398 OFFCURVE",
"1264 1409 CURVE SMOOTH",
"1264 1425 OFFCURVE",
"1250 1434 OFFCURVE",
"1221 1434 CURVE SMOOTH",
"1109 1434 LINE SMOOTH",
"1080 1434 OFFCURVE",
"1056 1418 OFFCURVE",
"1037 1385 CURVE SMOOTH",
"711 822 LINE SMOOTH",
"691 787 OFFCURVE",
"672 749 OFFCURVE",
"653 709 CURVE",
"649 709 LINE",
"630 749 OFFCURVE",
"611 787 OFFCURVE",
"591 822 CURVE SMOOTH",
"265 1385 LINE SMOOTH",
"246 1418 OFFCURVE",
"222 1434 OFFCURVE",
"193 1434 CURVE SMOOTH",
"81 1434 LINE SMOOTH",
"52 1434 OFFCURVE",
"37 1425 OFFCURVE",
"37 1409 CURVE SMOOTH",
"37 1398 OFFCURVE",
"43 1385 OFFCURVE",
"54 1368 CURVE SMOOTH"
);
}
);
width = 1302;
},
{
layerId = "39B5C782-31E0-4FF6-90B4-6BA13107E116";
paths = (
{
closed = 1;
nodes = (
"538 525 LINE",
"538 55 LINE SMOOTH",
"538 18 OFFCURVE",
"561 0 OFFCURVE",
"608 0 CURVE SMOOTH",
"760 0 LINE SMOOTH",
"807 0 OFFCURVE",
"830 18 OFFCURVE",
"830 55 CURVE SMOOTH",
"830 525 LINE",
"1317 1348 LINE SMOOTH",
"1328 1367 OFFCURVE",
"1334 1383 OFFCURVE",
"1334 1396 CURVE SMOOTH",
"1334 1421 OFFCURVE",
"1313 1434 OFFCURVE",
"1270 1434 CURVE SMOOTH",
"1095 1434 LINE SMOOTH",
"1060 1434 OFFCURVE",
"1029 1411 OFFCURVE",
"1003 1365 CURVE SMOOTH",
"790 994 LINE SMOOTH",
"783 982 OFFCURVE",
"695 841 OFFCURVE",
"686 748 CURVE",
"682 748 LINE",
"673 841 OFFCURVE",
"585 982 OFFCURVE",
"578 994 CURVE SMOOTH",
"365 1365 LINE SMOOTH",
"338 1411 OFFCURVE",
"308 1434 OFFCURVE",
"273 1434 CURVE SMOOTH",
"98 1434 LINE SMOOTH",
"55 1434 OFFCURVE",
"33 1421 OFFCURVE",
"33 1396 CURVE SMOOTH",
"33 1383 OFFCURVE",
"39 1367 OFFCURVE",
"51 1348 CURVE SMOOTH"
);
}
);
width = 1368;
}
);
unicode = 0059;
},
{
glyphname = Z;
lastChange = "2016-10-15 02:31:49 +0000";
layers = (
{
layerId = UUID0;
paths = (
{
closed = 1;
nodes = (
"1096 0 LINE SMOOTH",
"1133 0 OFFCURVE",
"1151 15 OFFCURVE",
"1151 45 CURVE SMOOTH",
"1151 119 LINE SMOOTH",
"1151 149 OFFCURVE",
"1133 164 OFFCURVE",
"1096 164 CURVE SMOOTH",
"393 164 LINE SMOOTH",
"358 164 OFFCURVE",
"331 163 OFFCURVE",
"313 162 CURVE",
"313 166 LINE",
"1109 1297 LINE SMOOTH",
"1122 1316 OFFCURVE",
"1129 1336 OFFCURVE",
"1129 1358 CURVE SMOOTH",
"1129 1389 LINE SMOOTH",
"1129 1419 OFFCURVE",
"1111 1434 OFFCURVE",
"1074 1434 CURVE SMOOTH",
"152 1434 LINE SMOOTH",
"115 1434 OFFCURVE",
"97 1419 OFFCURVE",
"97 1389 CURVE SMOOTH",
"97 1315 LINE SMOOTH",
"97 1285 OFFCURVE",
"115 1270 OFFCURVE",
"152 1270 CURVE SMOOTH",
"801 1270 LINE SMOOTH",
"828 1270 OFFCURVE",
"854 1271 OFFCURVE",
"881 1272 CURVE",
"881 1268 LINE",
"95 182 LINE SMOOTH",
"75 155 OFFCURVE",
"65 125 OFFCURVE",
"65 93 CURVE SMOOTH",
"65 45 LINE SMOOTH",
"65 15 OFFCURVE",
"83 0 OFFCURVE",
"120 0 CURVE SMOOTH"
);
}
);
width = 1216;
},
{
layerId = "39B5C782-31E0-4FF6-90B4-6BA13107E116";
paths = (
{
closed = 1;
nodes = (
"1116 0 LINE SMOOTH",
"1166 0 OFFCURVE",
"1191 22 OFFCURVE",
"1191 65 CURVE SMOOTH",
"1191 183 LINE SMOOTH",
"1191 226 OFFCURVE",
"1166 248 OFFCURVE",
"1116 248 CURVE SMOOTH",
"558 248 LINE SMOOTH",
"518 248 OFFCURVE",
"478 246 OFFCURVE",
"438 243 CURVE",
"438 250 LINE",
"1128 1201 LINE SMOOTH",
"1151 1233 OFFCURVE",
"1163 1267 OFFCURVE",
"1163 1302 CURVE SMOOTH",
"1163 1369 LINE SMOOTH",
"1163 1412 OFFCURVE",
"1138 1434 OFFCURVE",
"1088 1434 CURVE SMOOTH",
"176 1434 LINE SMOOTH",
"126 1434 OFFCURVE",
"101 1412 OFFCURVE",
"101 1369 CURVE SMOOTH",
"101 1251 LINE SMOOTH",
"101 1208 OFFCURVE",
"126 1186 OFFCURVE",
"176 1186 CURVE SMOOTH",
"642 1186 LINE SMOOTH",
"682 1186 OFFCURVE",
"722 1188 OFFCURVE",
"762 1191 CURVE",
"762 1184 LINE",
"112 286 LINE SMOOTH",
"78 239 OFFCURVE",
"61 193 OFFCURVE",
"61 147 CURVE SMOOTH",
"61 65 LINE SMOOTH",
"61 22 OFFCURVE",
"86 0 OFFCURVE",
"136 0 CURVE SMOOTH"
);
}
);
width = 1252;
}
);
unicode = 005A;
},
{
glyphname = uni0190;
lastChange = "2016-10-15 02:31:49 +0000";
layers = (
{
layerId = UUID0;
paths = (
{
closed = 1;
nodes = (
"110 116 OFFCURVE",
"330 -30 OFFCURVE",
"632 -30 CURVE SMOOTH",
"843 -30 OFFCURVE",
"986 61 OFFCURVE",
"1066 141 CURVE SMOOTH",
"1084 159 OFFCURVE",
"1093 174 OFFCURVE",
"1093 189 CURVE SMOOTH",
"1093 199 OFFCURVE",
"1089 208 OFFCURVE",
"1082 216 CURVE SMOOTH",
"1019 285 LINE SMOOTH",
"1011 294 OFFCURVE",
"1001 299 OFFCURVE",
"991 299 CURVE SMOOTH",
"960 299 OFFCURVE",
"901 224 OFFCURVE",
"806 173 CURVE SMOOTH",
"749 142 OFFCURVE",
"689 126 OFFCURVE",
"626 126 CURVE SMOOTH",
"436 126 OFFCURVE",
"315 210 OFFCURVE",
"315 414 CURVE SMOOTH",
"315 500 OFFCURVE",
"349 565 OFFCURVE",
"417 609 CURVE SMOOTH",
"485 653 OFFCURVE",
"554 675 OFFCURVE",
"625 675 CURVE SMOOTH",
"738 675 LINE SMOOTH",
"769 675 OFFCURVE",
"785 689 OFFCURVE",
"785 718 CURVE SMOOTH",
"785 788 LINE SMOOTH",
"785 818 OFFCURVE",
"769 833 OFFCURVE",
"738 833 CURVE SMOOTH",
"632 833 LINE SMOOTH",
"444 833 OFFCURVE",
"358 948 OFFCURVE",
"358 1081 CURVE SMOOTH",
"358 1242 OFFCURVE",
"485 1308 OFFCURVE",
"623 1308 CURVE SMOOTH",
"738 1308 OFFCURVE",
"853 1252 OFFCURVE",
"915 1192 CURVE SMOOTH",
"933 1174 OFFCURVE",
"948 1165 OFFCURVE",
"962 1165 CURVE SMOOTH",
"971 1165 OFFCURVE",
"980 1169 OFFCURVE",
"987 1177 CURVE SMOOTH",
"1049 1246 LINE SMOOTH",
"1057 1255 OFFCURVE",
"1062 1265 OFFCURVE",
"1062 1275 CURVE SMOOTH",
"1062 1326 OFFCURVE",
"933 1397 OFFCURVE",
"836 1428 CURVE SMOOTH",
"762 1452 OFFCURVE",
"690 1464 OFFCURVE",
"619 1464 CURVE SMOOTH",
"470 1464 OFFCURVE",
"357 1425 OFFCURVE",
"279 1348 CURVE SMOOTH",
"202 1271 OFFCURVE",
"163 1185 OFFCURVE",
"163 1092 CURVE SMOOTH",
"163 941 OFFCURVE",
"278 808 OFFCURVE",
"422 767 CURVE",
"422 763 LINE",
"271 747 OFFCURVE",
"110 597 OFFCURVE",
"110 397 CURVE SMOOTH"
);
}
);
width = 1194;
},
{
layerId = "39B5C782-31E0-4FF6-90B4-6BA13107E116";
paths = (
{
closed = 1;
nodes = (
"104 117 OFFCURVE",
"361 -34 OFFCURVE",
"662 -34 CURVE SMOOTH",
"885 -34 OFFCURVE",
"1017 21 OFFCURVE",
"1131 137 CURVE SMOOTH",
"1150 156 OFFCURVE",
"1160 175 OFFCURVE",
"1160 193 CURVE SMOOTH",
"1160 207 OFFCURVE",
"1153 222 OFFCURVE",
"1140 236 CURVE SMOOTH",
"1054 329 LINE SMOOTH",
"1043 341 OFFCURVE",
"1030 347 OFFCURVE",
"1015 347 CURVE SMOOTH",
"972 347 OFFCURVE",
"885 259 OFFCURVE",
"819 230 CURVE SMOOTH",
"776 211 OFFCURVE",
"723 202 OFFCURVE",
"658 202 CURVE SMOOTH",
"529 202 OFFCURVE",
"406 257 OFFCURVE",
"406 414 CURVE SMOOTH",
"406 572 OFFCURVE",
"521 636 OFFCURVE",
"657 636 CURVE SMOOTH",
"778 636 LINE SMOOTH",
"821 636 OFFCURVE",
"842 657 OFFCURVE",
"842 699 CURVE SMOOTH",
"842 807 LINE SMOOTH",
"842 850 OFFCURVE",
"821 872 OFFCURVE",
"778 872 CURVE SMOOTH",
"643 872 LINE SMOOTH",
"499 872 OFFCURVE",
"436 950 OFFCURVE",
"436 1062 CURVE SMOOTH",
"436 1159 OFFCURVE",
"503 1232 OFFCURVE",
"658 1232 CURVE SMOOTH",
"777 1232 OFFCURVE",
"855 1193 OFFCURVE",
"919 1138 CURVE SMOOTH",
"943 1117 OFFCURVE",
"965 1106 OFFCURVE",
"985 1106 CURVE SMOOTH",
"1002 1106 OFFCURVE",
"1017 1114 OFFCURVE",
"1030 1129 CURVE SMOOTH",
"1108 1220 LINE SMOOTH",
"1122 1237 OFFCURVE",
"1129 1251 OFFCURVE",
"1129 1267 CURVE SMOOTH",
"1129 1285 OFFCURVE",
"1118 1303 OFFCURVE",
"1095 1320 CURVE SMOOTH",
"927 1443 OFFCURVE",
"820 1468 OFFCURVE",
"649 1468 CURVE SMOOTH",
"347 1468 OFFCURVE",
"155 1310 OFFCURVE",
"155 1085 CURVE SMOOTH",
"155 891 OFFCURVE",
"251 815 OFFCURVE",
"412 767 CURVE",
"412 763 LINE",
"261 722 OFFCURVE",
"104 599 OFFCURVE",
"104 390 CURVE SMOOTH"
);
}
);
width = 1254;
}
);
unicode = 0190;
},
{
glyphname = uni0191;
lastChange = "2016-10-15 02:31:49 +0000";
layers = (
{
layerId = UUID0;
paths = (
{
closed = 1;
nodes = (
"-101 -405 OFFCURVE",
"-40 -417 OFFCURVE",
"22 -417 CURVE SMOOTH",
"243 -417 OFFCURVE",
"362 -315 OFFCURVE",
"362 -9 CURVE SMOOTH",
"362 632 LINE",
"949 632 LINE SMOOTH",
"986 632 OFFCURVE",
"1004 647 OFFCURVE",
"1004 677 CURVE SMOOTH",
"1004 751 LINE SMOOTH",
"1004 781 OFFCURVE",
"986 796 OFFCURVE",
"949 796 CURVE SMOOTH",
"362 796 LINE",
"362 1270 LINE",
"1035 1270 LINE SMOOTH",
"1072 1270 OFFCURVE",
"1090 1285 OFFCURVE",
"1090 1315 CURVE SMOOTH",
"1090 1389 LINE SMOOTH",
"1090 1419 OFFCURVE",
"1072 1434 OFFCURVE",
"1035 1434 CURVE SMOOTH",
"220 1434 LINE SMOOTH",
"187 1434 OFFCURVE",
"170 1416 OFFCURVE",
"170 1379 CURVE SMOOTH",
"170 38 LINE SMOOTH",
"170 -93 OFFCURVE",
"157 -175 OFFCURVE",
"132 -209 CURVE SMOOTH",
"107 -244 OFFCURVE",
"68 -261 OFFCURVE",
"16 -261 CURVE SMOOTH",
"-20 -261 OFFCURVE",
"-59 -251 OFFCURVE",
"-100 -232 CURVE SMOOTH",
"-113 -226 OFFCURVE",
"-124 -223 OFFCURVE",
"-133 -223 CURVE SMOOTH",
"-151 -223 OFFCURVE",
"-162 -233 OFFCURVE",
"-168 -253 CURVE SMOOTH",
"-189 -324 LINE SMOOTH",
"-191 -331 OFFCURVE",
"-192 -337 OFFCURVE",
"-192 -342 CURVE SMOOTH",
"-192 -361 OFFCURVE",
"-182 -374 OFFCURVE",
"-161 -382 CURVE SMOOTH"
);
}
);
width = 1166;
},
{
layerId = "39B5C782-31E0-4FF6-90B4-6BA13107E116";
paths = (
{
closed = 1;
nodes = (
"-71 -410 OFFCURVE",
"-4 -420 OFFCURVE",
"72 -420 CURVE SMOOTH",
"325 -420 OFFCURVE",
"452 -280 OFFCURVE",
"452 35 CURVE SMOOTH",
"452 590 LINE",
"939 590 LINE SMOOTH",
"989 590 OFFCURVE",
"1014 612 OFFCURVE",
"1014 655 CURVE SMOOTH",
"1014 773 LINE SMOOTH",
"1014 816 OFFCURVE",
"989 838 OFFCURVE",
"939 838 CURVE SMOOTH",
"452 838 LINE",
"452 1186 LINE",
"1021 1186 LINE SMOOTH",
"1071 1186 OFFCURVE",
"1096 1208 OFFCURVE",
"1096 1251 CURVE SMOOTH",
"1096 1369 LINE SMOOTH",
"1096 1412 OFFCURVE",
"1071 1434 OFFCURVE",
"1021 1434 CURVE SMOOTH",
"230 1434 LINE SMOOTH",
"183 1434 OFFCURVE",
"160 1409 OFFCURVE",
"160 1359 CURVE SMOOTH",
"160 91 LINE SMOOTH",
"160 -28 OFFCURVE",
"150 -104 OFFCURVE",
"130 -136 CURVE SMOOTH",
"110 -168 OFFCURVE",
"78 -184 OFFCURVE",
"33 -184 CURVE SMOOTH",
"4 -184 OFFCURVE",
"-27 -178 OFFCURVE",
"-59 -165 CURVE SMOOTH",
"-71 -160 OFFCURVE",
"-82 -158 OFFCURVE",
"-91 -158 CURVE SMOOTH",
"-113 -158 OFFCURVE",
"-129 -172 OFFCURVE",
"-136 -199 CURVE SMOOTH",
"-168 -320 LINE SMOOTH",
"-170 -327 OFFCURVE",
"-171 -334 OFFCURVE",
"-171 -340 CURVE SMOOTH",
"-171 -363 OFFCURVE",
"-157 -380 OFFCURVE",
"-130 -389 CURVE SMOOTH"
);
}
);
width = 1176;
}
);
unicode = 0191;
},
{
glyphname = uni0194;
lastChange = "2016-10-15 02:31:49 +0000";
layers = (
{
layerId = UUID0;
paths = (
{
closed = 1;
nodes = (
"536 540 LINE",
"421 407 OFFCURVE",
"358 296 OFFCURVE",
"358 223 CURVE SMOOTH",
"358 56 OFFCURVE",
"462 -30 OFFCURVE",
"639 -30 CURVE SMOOTH",
"816 -30 OFFCURVE",
"920 56 OFFCURVE",
"920 223 CURVE SMOOTH",
"920 296 OFFCURVE",
"861 407 OFFCURVE",
"746 540 CURVE",
"1228 1368 LINE SMOOTH",
"1237 1384 OFFCURVE",
"1241 1397 OFFCURVE",
"1242 1407 CURVE",
"1242 1425 OFFCURVE",
"1228 1434 OFFCURVE",
"1201 1434 CURVE SMOOTH",
"1089 1434 LINE SMOOTH",
"1058 1434 OFFCURVE",
"1034 1418 OFFCURVE",
"1017 1385 CURVE SMOOTH",
"763 898 LINE",
"698 770 LINE SMOOTH",
"680 734 OFFCURVE",
"662 696 OFFCURVE",
"643 656 CURVE",
"639 656 LINE",
"620 696 OFFCURVE",
"602 734 OFFCURVE",
"584 770 CURVE SMOOTH",
"519 898 LINE",
"265 1385 LINE SMOOTH",
"248 1418 OFFCURVE",
"224 1434 OFFCURVE",
"193 1434 CURVE SMOOTH",
"81 1434 LINE SMOOTH",
"54 1434 OFFCURVE",
"40 1425 OFFCURVE",
"40 1407 CURVE SMOOTH",
"40 1397 OFFCURVE",
"45 1384 OFFCURVE",
"54 1368 CURVE SMOOTH"
);
},
{
closed = 1;
nodes = (
"550 256 OFFCURVE",
"538 277 OFFCURVE",
"637 424 CURVE",
"641 424 LINE",
"740 276 OFFCURVE",
"728 254 OFFCURVE",
"728 223 CURVE SMOOTH",
"728 163 OFFCURVE",
"699 126 OFFCURVE",
"639 126 CURVE SMOOTH",
"579 126 OFFCURVE",
"550 163 OFFCURVE",
"550 223 CURVE SMOOTH"
);
}
);
width = 1282;
},
{
layerId = "39B5C782-31E0-4FF6-90B4-6BA13107E116";
paths = (
{
closed = 1;
nodes = (
"502 534 LINE",
"400 430 OFFCURVE",
"331 352 OFFCURVE",
"331 233 CURVE SMOOTH",
"331 95 OFFCURVE",
"415 -34 OFFCURVE",
"674 -34 CURVE SMOOTH",
"932 -34 OFFCURVE",
"1017 96 OFFCURVE",
"1017 233 CURVE SMOOTH",
"1017 352 OFFCURVE",
"948 430 OFFCURVE",
"846 534 CURVE",
"1297 1348 LINE SMOOTH",
"1307 1367 OFFCURVE",
"1313 1383 OFFCURVE",
"1313 1396 CURVE SMOOTH",
"1313 1421 OFFCURVE",
"1292 1434 OFFCURVE",
"1250 1434 CURVE SMOOTH",
"1075 1434 LINE SMOOTH",
"1038 1434 OFFCURVE",
"1007 1411 OFFCURVE",
"983 1365 CURVE SMOOTH",
"780 974 LINE SMOOTH",
"773 961 OFFCURVE",
"685 821 OFFCURVE",
"676 728 CURVE",
"672 728 LINE",
"663 821 OFFCURVE",
"574 961 OFFCURVE",
"568 974 CURVE SMOOTH",
"365 1365 LINE SMOOTH",
"341 1411 OFFCURVE",
"310 1434 OFFCURVE",
"273 1434 CURVE SMOOTH",
"98 1434 LINE SMOOTH",
"56 1434 OFFCURVE",
"35 1421 OFFCURVE",
"35 1396 CURVE",
"34 1383 OFFCURVE",
"41 1367 OFFCURVE",
"51 1348 CURVE SMOOTH"
);
},
{
closed = 1;
nodes = (
"605 298 OFFCURVE",
"613 345 OFFCURVE",
"672 394 CURVE",
"676 394 LINE",
"735 345 OFFCURVE",
"743 298 OFFCURVE",
"743 273 CURVE SMOOTH",
"743 221 OFFCURVE",
"711 196 OFFCURVE",
"674 196 CURVE SMOOTH",
"637 196 OFFCURVE",
"605 221 OFFCURVE",
"605 273 CURVE SMOOTH"
);
}
);
width = 1348;
}
);
unicode = 0194;
},
{
glyphname = uni0196;
lastChange = "2016-10-15 02:31:49 +0000";
layers = (
{
layerId = UUID0;
paths = (
{
closed = 1;
nodes = (
"170 358 LINE SMOOTH",
"170 82 OFFCURVE",
"269 -30 OFFCURVE",
"507 -30 CURVE SMOOTH",
"585 -30 OFFCURVE",
"765 15 OFFCURVE",
"765 78 CURVE SMOOTH",
"765 86 OFFCURVE",
"763 95 OFFCURVE",
"758 104 CURVE SMOOTH",
"729 161 LINE SMOOTH",
"720 179 OFFCURVE",
"708 188 OFFCURVE",
"692 188 CURVE SMOOTH",
"681 188 OFFCURVE",
"669 183 OFFCURVE",
"656 175 CURVE SMOOTH",
"611 147 OFFCURVE",
"555 126 OFFCURVE",
"507 126 CURVE SMOOTH",
"411 126 OFFCURVE",
"362 187 OFFCURVE",
"362 342 CURVE SMOOTH",
"362 1379 LINE SMOOTH",
"362 1416 OFFCURVE",
"345 1434 OFFCURVE",
"312 1434 CURVE SMOOTH",
"220 1434 LINE SMOOTH",
"187 1434 OFFCURVE",
"170 1416 OFFCURVE",
"170 1379 CURVE SMOOTH"
);
}
);
width = 815;
},
{
layerId = "39B5C782-31E0-4FF6-90B4-6BA13107E116";
paths = (
{
closed = 1;
nodes = (
"160 499 LINE SMOOTH",
"160 156 OFFCURVE",
"298 -34 OFFCURVE",
"602 -34 CURVE SMOOTH",
"705 -34 OFFCURVE",
"891 -8 OFFCURVE",
"891 69 CURVE SMOOTH",
"891 77 OFFCURVE",
"889 85 OFFCURVE",
"886 95 CURVE SMOOTH",
"848 208 LINE SMOOTH",
"839 234 OFFCURVE",
"825 247 OFFCURVE",
"804 247 CURVE SMOOTH",
"792 247 OFFCURVE",
"777 242 OFFCURVE",
"761 234 CURVE SMOOTH",
"725 215 OFFCURVE",
"662 202 OFFCURVE",
"621 202 CURVE SMOOTH",
"500 202 OFFCURVE",
"452 300 OFFCURVE",
"452 476 CURVE SMOOTH",
"452 1359 LINE SMOOTH",
"452 1409 OFFCURVE",
"429 1434 OFFCURVE",
"382 1434 CURVE SMOOTH",
"230 1434 LINE SMOOTH",
"183 1434 OFFCURVE",
"160 1409 OFFCURVE",
"160 1359 CURVE SMOOTH"
);
}
);
width = 938;
}
);
unicode = 0196;
},
{
glyphname = uni0197;
lastChange = "2016-10-15 02:31:49 +0000";
layers = (
{
layerId = UUID0;
paths = (
{
closed = 1;
nodes = (
"397 0 LINE SMOOTH",
"430 0 OFFCURVE",
"447 18 OFFCURVE",
"447 55 CURVE SMOOTH",
"447 644 LINE",
"597 644 LINE SMOOTH",
"634 644 OFFCURVE",
"652 659 OFFCURVE",
"652 689 CURVE SMOOTH",
"652 763 LINE SMOOTH",
"652 793 OFFCURVE",
"634 808 OFFCURVE",
"597 808 CURVE SMOOTH",
"447 808 LINE",
"447 1379 LINE SMOOTH",
"447 1416 OFFCURVE",
"430 1434 OFFCURVE",
"397 1434 CURVE SMOOTH",
"305 1434 LINE SMOOTH",
"272 1434 OFFCURVE",
"255 1416 OFFCURVE",
"255 1379 CURVE SMOOTH",
"255 808 LINE",
"105 808 LINE SMOOTH",
"68 808 OFFCURVE",
"50 793 OFFCURVE",
"50 763 CURVE SMOOTH",
"50 689 LINE SMOOTH",
"50 659 OFFCURVE",
"68 644 OFFCURVE",
"105 644 CURVE SMOOTH",
"255 644 LINE",
"255 55 LINE SMOOTH",
"255 18 OFFCURVE",
"272 0 OFFCURVE",
"305 0 CURVE SMOOTH"
);
}
);
width = 702;
},
{
layerId = "39B5C782-31E0-4FF6-90B4-6BA13107E116";
paths = (
{
closed = 1;
nodes = (
"254 622 LINE",
"254 75 LINE SMOOTH",
"254 25 OFFCURVE",
"277 0 OFFCURVE",
"324 0 CURVE SMOOTH",
"476 0 LINE SMOOTH",
"523 0 OFFCURVE",
"546 25 OFFCURVE",
"546 75 CURVE SMOOTH",
"546 622 LINE",
"679 622 LINE SMOOTH",
"729 622 OFFCURVE",
"754 644 OFFCURVE",
"754 687 CURVE SMOOTH",
"754 805 LINE SMOOTH",
"754 848 OFFCURVE",
"729 870 OFFCURVE",
"679 870 CURVE SMOOTH",
"546 870 LINE",
"546 1359 LINE SMOOTH",
"546 1409 OFFCURVE",
"523 1434 OFFCURVE",
"476 1434 CURVE SMOOTH",
"324 1434 LINE SMOOTH",
"277 1434 OFFCURVE",
"254 1409 OFFCURVE",
"254 1359 CURVE SMOOTH",
"254 870 LINE",
"121 870 LINE SMOOTH",
"71 870 OFFCURVE",
"46 848 OFFCURVE",
"46 805 CURVE SMOOTH",
"46 687 LINE SMOOTH",
"46 644 OFFCURVE",
"71 622 OFFCURVE",
"121 622 CURVE SMOOTH"
);
}
);
width = 800;
}
);
unicode = 0197;
},
{
glyphname = uni019D;
lastChange = "2016-10-15 02:31:38 +0000";
layers = (
{
layerId = UUID0;
paths = (
{
closed = 1;
nodes = (
"-77 -405 OFFCURVE",
"-16 -417 OFFCURVE",
"46 -417 CURVE SMOOTH",
"267 -417 OFFCURVE",
"386 -316 OFFCURVE",
"386 -8 CURVE SMOOTH",
"386 1083 LINE SMOOTH",
"386 1110 OFFCURVE",
"385 1136 OFFCURVE",
"384 1163 CURVE",
"388 1163 LINE",
"1054 50 LINE SMOOTH",
"1074 17 OFFCURVE",
"1107 0 OFFCURVE",
"1154 0 CURVE SMOOTH",
"1242 0 LINE SMOOTH",
"1275 0 OFFCURVE",
"1292 18 OFFCURVE",
"1292 55 CURVE SMOOTH",
"1292 1379 LINE SMOOTH",
"1292 1416 OFFCURVE",
"1275 1434 OFFCURVE",
"1242 1434 CURVE SMOOTH",
"1150 1434 LINE SMOOTH",
"1117 1434 OFFCURVE",
"1100 1416 OFFCURVE",
"1100 1379 CURVE SMOOTH",
"1100 415 LINE SMOOTH",
"1100 388 OFFCURVE",
"1101 362 OFFCURVE",
"1102 335 CURVE",
"1098 335 LINE",
"472 1384 LINE SMOOTH",
"452 1417 OFFCURVE",
"419 1434 OFFCURVE",
"372 1434 CURVE SMOOTH",
"244 1434 LINE SMOOTH",
"211 1434 OFFCURVE",
"194 1416 OFFCURVE",
"194 1379 CURVE SMOOTH",
"194 39 LINE SMOOTH",
"194 -92 OFFCURVE",
"181 -175 OFFCURVE",
"156 -209 CURVE SMOOTH",
"131 -244 OFFCURVE",
"92 -261 OFFCURVE",
"40 -261 CURVE SMOOTH",
"4 -261 OFFCURVE",
"-35 -251 OFFCURVE",
"-76 -232 CURVE SMOOTH",
"-89 -226 OFFCURVE",
"-100 -223 OFFCURVE",
"-109 -223 CURVE SMOOTH",
"-127 -223 OFFCURVE",
"-138 -233 OFFCURVE",
"-144 -253 CURVE SMOOTH",
"-165 -324 LINE SMOOTH",
"-167 -331 OFFCURVE",
"-168 -337 OFFCURVE",
"-168 -342 CURVE SMOOTH",
"-168 -361 OFFCURVE",
"-158 -374 OFFCURVE",
"-137 -382 CURVE SMOOTH"
);
}
);
width = 1462;
}
);
unicode = 019D;
},
{
glyphname = uni01B2;
lastChange = "2016-10-15 02:31:49 +0000";
layers = (
{
layerId = UUID0;
paths = (
{
closed = 1;
nodes = (
"170 547 LINE SMOOTH",
"170 119 OFFCURVE",
"376 -30 OFFCURVE",
"686 -30 CURVE SMOOTH",
"893 -30 OFFCURVE",
"1037 39 OFFCURVE",
"1122 177 CURVE SMOOTH",
"1207 315 OFFCURVE",
"1249 506 OFFCURVE",
"1249 749 CURVE SMOOTH",
"1249 985 OFFCURVE",
"1153 1240 OFFCURVE",
"981 1431 CURVE SMOOTH",
"964 1450 OFFCURVE",
"947 1460 OFFCURVE",
"931 1460 CURVE SMOOTH",
"920 1460 OFFCURVE",
"909 1455 OFFCURVE",
"898 1446 CURVE SMOOTH",
"818 1377 LINE SMOOTH",
"805 1366 OFFCURVE",
"798 1354 OFFCURVE",
"798 1341 CURVE SMOOTH",
"798 1327 OFFCURVE",
"806 1311 OFFCURVE",
"823 1295 CURVE SMOOTH",
"931 1190 OFFCURVE",
"1044 1000 OFFCURVE",
"1044 707 CURVE SMOOTH",
"1044 312 OFFCURVE",
"921 126 OFFCURVE",
"693 126 CURVE SMOOTH",
"589 126 OFFCURVE",
"508 154 OFFCURVE",
"449 211 CURVE SMOOTH",
"391 268 OFFCURVE",
"362 390 OFFCURVE",
"362 577 CURVE SMOOTH",
"362 1379 LINE SMOOTH",
"362 1416 OFFCURVE",
"345 1434 OFFCURVE",
"312 1434 CURVE SMOOTH",
"220 1434 LINE SMOOTH",
"187 1434 OFFCURVE",
"170 1416 OFFCURVE",
"170 1379 CURVE SMOOTH"
);
}
);
width = 1341;
},
{
layerId = "39B5C782-31E0-4FF6-90B4-6BA13107E116";
paths = (
{
closed = 1;
nodes = (
"160 597 LINE SMOOTH",
"160 125 OFFCURVE",
"354 -34 OFFCURVE",
"717 -34 CURVE SMOOTH",
"937 -34 OFFCURVE",
"1088 37 OFFCURVE",
"1169 179 CURVE SMOOTH",
"1250 322 OFFCURVE",
"1291 510 OFFCURVE",
"1291 743 CURVE SMOOTH",
"1291 978 OFFCURVE",
"1224 1199 OFFCURVE",
"1043 1407 CURVE SMOOTH",
"1015 1438 OFFCURVE",
"990 1455 OFFCURVE",
"964 1455 CURVE SMOOTH",
"950 1455 OFFCURVE",
"936 1449 OFFCURVE",
"923 1439 CURVE SMOOTH",
"790 1334 LINE SMOOTH",
"769 1317 OFFCURVE",
"758 1300 OFFCURVE",
"758 1280 CURVE SMOOTH",
"758 1262 OFFCURVE",
"767 1243 OFFCURVE",
"786 1222 CURVE SMOOTH",
"914 1078 OFFCURVE",
"979 902 OFFCURVE",
"979 699 CURVE SMOOTH",
"979 347 OFFCURVE",
"912 202 OFFCURVE",
"719 202 CURVE SMOOTH",
"655 202 OFFCURVE",
"594 224 OFFCURVE",
"537 269 CURVE SMOOTH",
"480 314 OFFCURVE",
"452 427 OFFCURVE",
"452 607 CURVE SMOOTH",
"452 1379 LINE SMOOTH",
"452 1416 OFFCURVE",
"429 1434 OFFCURVE",
"382 1434 CURVE SMOOTH",
"230 1434 LINE SMOOTH",
"183 1434 OFFCURVE",
"160 1416 OFFCURVE",
"160 1379 CURVE SMOOTH"
);
}
);
width = 1377;
}
);
unicode = 01B2;
},
{
glyphname = uni0220;
lastChange = "2016-10-15 02:31:38 +0000";
layers = (
{
layerId = UUID0;
paths = (
{
closed = 1;
nodes = (
"312 0 LINE SMOOTH",
"345 0 OFFCURVE",
"362 18 OFFCURVE",
"362 55 CURVE SMOOTH",
"362 875 LINE SMOOTH",
"362 1040 OFFCURVE",
"402 1153 OFFCURVE",
"483 1215 CURVE SMOOTH",
"564 1277 OFFCURVE",
"645 1308 OFFCURVE",
"728 1308 CURVE SMOOTH",
"989 1308 OFFCURVE",
"1060 1205 OFFCURVE",
"1060 944 CURVE SMOOTH",
"1060 -345 LINE SMOOTH",
"1060 -382 OFFCURVE",
"1077 -400 OFFCURVE",
"1110 -400 CURVE SMOOTH",
"1202 -400 LINE SMOOTH",
"1235 -400 OFFCURVE",
"1252 -382 OFFCURVE",
"1252 -345 CURVE SMOOTH",
"1252 1032 LINE SMOOTH",
"1252 1309 OFFCURVE",
"1100 1464 OFFCURVE",
"813 1464 CURVE SMOOTH",
"649 1464 OFFCURVE",
"466 1396 OFFCURVE",
"364 1249 CURVE",
"360 1249 LINE",
"352 1379 LINE SMOOTH",
"350 1416 OFFCURVE",
"333 1434 OFFCURVE",
"302 1434 CURVE SMOOTH",
"220 1434 LINE SMOOTH",
"187 1434 OFFCURVE",
"170 1416 OFFCURVE",
"170 1379 CURVE SMOOTH",
"170 55 LINE SMOOTH",
"170 18 OFFCURVE",
"187 0 OFFCURVE",
"220 0 CURVE SMOOTH"
);
}
);
width = 1422;
}
);
unicode = 0220;
},
{
glyphname = uni0241;
lastChange = "2016-10-15 02:31:38 +0000";
layers = (
{
layerId = UUID0;
paths = (
{
closed = 1;
nodes = (
"183 1131 LINE SMOOTH",
"191 1126 OFFCURVE",
"199 1123 OFFCURVE",
"206 1123 CURVE SMOOTH",
"224 1123 OFFCURVE",
"239 1138 OFFCURVE",
"252 1169 CURVE SMOOTH",
"291 1261 OFFCURVE",
"378 1309 OFFCURVE",
"498 1309 CURVE SMOOTH",
"626 1309 OFFCURVE",
"727 1222 OFFCURVE",
"727 1075 CURVE SMOOTH",
"727 978 OFFCURVE",
"675 873 OFFCURVE",
"572 759 CURVE SMOOTH",
"469 645 OFFCURVE",
"418 520 OFFCURVE",
"418 383 CURVE SMOOTH",
"418 55 LINE SMOOTH",
"418 18 OFFCURVE",
"435 0 OFFCURVE",
"468 0 CURVE SMOOTH",
"560 0 LINE SMOOTH",
"593 0 OFFCURVE",
"610 18 OFFCURVE",
"610 55 CURVE SMOOTH",
"610 355 LINE SMOOTH",
"610 472 OFFCURVE",
"663 591 OFFCURVE",
"768 712 CURVE SMOOTH",
"873 833 OFFCURVE",
"926 952 OFFCURVE",
"926 1069 CURVE SMOOTH",
"926 1316 OFFCURVE",
"742 1464 OFFCURVE",
"500 1464 CURVE SMOOTH",
"391 1464 OFFCURVE",
"302 1439 OFFCURVE",
"235 1389 CURVE SMOOTH",
"131 1312 OFFCURVE",
"94 1252 OFFCURVE",
"94 1208 CURVE SMOOTH",
"94 1193 OFFCURVE",
"100 1183 OFFCURVE",
"111 1176 CURVE SMOOTH"
);
}
);
width = 1030;
}
);
unicode = 0241;
},
{
glyphname = uni0243;
lastChange = "2016-10-15 02:32:22 +0000";
layers = (
{
layerId = UUID0;
paths = (
{
closed = 1;
nodes = (
"210 345 LINE",
"210 55 LINE SMOOTH",
"210 18 OFFCURVE",
"227 0 OFFCURVE",
"260 0 CURVE SMOOTH",
"700 0 LINE SMOOTH",
"925 0 OFFCURVE",
"1079 38 OFFCURVE",
"1162 114 CURVE SMOOTH",
"1246 190 OFFCURVE",
"1288 285 OFFCURVE",
"1288 398 CURVE SMOOTH",
"1288 503 OFFCURVE",
"1246 585 OFFCURVE",
"1163 646 CURVE SMOOTH",
"1080 707 OFFCURVE",
"1005 741 OFFCURVE",
"938 747 CURVE",
"938 750 LINE",
"1055 769 OFFCURVE",
"1226 893 OFFCURVE",
"1226 1059 CURVE SMOOTH",
"1226 1162 OFFCURVE",
"1187 1251 OFFCURVE",
"1108 1324 CURVE SMOOTH",
"1029 1397 OFFCURVE",
"877 1434 OFFCURVE",
"650 1434 CURVE SMOOTH",
"260 1434 LINE SMOOTH",
"227 1434 OFFCURVE",
"210 1416 OFFCURVE",
"210 1379 CURVE SMOOTH",
"210 503 LINE",
"95 503 LINE SMOOTH",
"58 503 OFFCURVE",
"40 488 OFFCURVE",
"40 458 CURVE SMOOTH",
"40 390 LINE SMOOTH",
"40 360 OFFCURVE",
"58 345 OFFCURVE",
"95 345 CURVE SMOOTH"
);
},
{
closed = 1;
nodes = (
"402 345 LINE",
"690 345 LINE SMOOTH",
"727 345 OFFCURVE",
"745 360 OFFCURVE",
"745 390 CURVE SMOOTH",
"745 458 LINE SMOOTH",
"745 488 OFFCURVE",
"727 503 OFFCURVE",
"690 503 CURVE SMOOTH",
"402 503 LINE",
"402 664 LINE",
"668 664 LINE SMOOTH",
"951 664 OFFCURVE",
"1083 569 OFFCURVE",
"1083 404 CURVE SMOOTH",
"1083 224 OFFCURVE",
"953 164 OFFCURVE",
"668 164 CURVE SMOOTH",
"402 164 LINE"
);
},
{
closed = 1;
nodes = (
"402 1270 LINE",
"653 1270 LINE SMOOTH",
"951 1270 OFFCURVE",
"1031 1194 OFFCURVE",
"1031 1059 CURVE SMOOTH",
"1031 916 OFFCURVE",
"875 808 OFFCURVE",
"653 808 CURVE SMOOTH",
"402 808 LINE"
);
}
);
width = 1398;
},
{
layerId = "39B5C782-31E0-4FF6-90B4-6BA13107E116";
width = 600;
}
);
unicode = 0243;
},
{
glyphname = uni0244;
lastChange = "2016-10-15 02:31:49 +0000";
layers = (
{
layerId = UUID0;
paths = (
{
closed = 1;
nodes = (
"255 644 LINE",
"255 547 LINE SMOOTH",
"255 336 OFFCURVE",
"303 187 OFFCURVE",
"400 100 CURVE SMOOTH",
"497 13 OFFCURVE",
"626 -30 OFFCURVE",
"786 -30 CURVE SMOOTH",
"946 -30 OFFCURVE",
"1074 13 OFFCURVE",
"1171 100 CURVE SMOOTH",
"1268 187 OFFCURVE",
"1317 336 OFFCURVE",
"1317 547 CURVE SMOOTH",
"1317 644 LINE",
"1467 644 LINE SMOOTH",
"1504 644 OFFCURVE",
"1522 659 OFFCURVE",
"1522 689 CURVE SMOOTH",
"1522 763 LINE SMOOTH",
"1522 793 OFFCURVE",
"1504 808 OFFCURVE",
"1467 808 CURVE SMOOTH",
"1317 808 LINE",
"1317 1379 LINE SMOOTH",
"1317 1416 OFFCURVE",
"1300 1434 OFFCURVE",
"1267 1434 CURVE SMOOTH",
"1175 1434 LINE SMOOTH",
"1142 1434 OFFCURVE",
"1125 1416 OFFCURVE",
"1125 1379 CURVE SMOOTH",
"1125 808 LINE",
"447 808 LINE",
"447 1379 LINE SMOOTH",
"447 1416 OFFCURVE",
"430 1434 OFFCURVE",
"397 1434 CURVE SMOOTH",
"305 1434 LINE SMOOTH",
"272 1434 OFFCURVE",
"255 1416 OFFCURVE",
"255 1379 CURVE SMOOTH",
"255 808 LINE",
"105 808 LINE SMOOTH",
"68 808 OFFCURVE",
"50 793 OFFCURVE",
"50 763 CURVE SMOOTH",
"50 689 LINE SMOOTH",
"50 659 OFFCURVE",
"68 644 OFFCURVE",
"105 644 CURVE SMOOTH"
);
},
{
closed = 1;
nodes = (
"447 644 LINE",
"1125 644 LINE",
"1125 577 LINE SMOOTH",
"1125 390 OFFCURVE",
"1098 268 OFFCURVE",
"1045 211 CURVE SMOOTH",
"992 154 OFFCURVE",
"906 126 OFFCURVE",
"786 126 CURVE SMOOTH",
"666 126 OFFCURVE",
"579 154 OFFCURVE",
"526 211 CURVE SMOOTH",
"473 268 OFFCURVE",
"447 390 OFFCURVE",
"447 577 CURVE SMOOTH"
);
}
);
width = 1572;
},
{
layerId = "39B5C782-31E0-4FF6-90B4-6BA13107E116";
paths = (
{
closed = 1;
nodes = (
"546 622 LINE",
"1064 622 LINE",
"1064 607 LINE SMOOTH",
"1064 427 OFFCURVE",
"1037 314 OFFCURVE",
"984 269 CURVE SMOOTH",
"931 224 OFFCURVE",
"872 202 OFFCURVE",
"805 202 CURVE SMOOTH",
"738 202 OFFCURVE",
"678 224 OFFCURVE",
"625 269 CURVE SMOOTH",
"572 314 OFFCURVE",
"546 427 OFFCURVE",
"546 607 CURVE SMOOTH"
);
},
{
closed = 1;
nodes = (
"254 622 LINE",
"254 597 LINE SMOOTH",
"254 364 OFFCURVE",
"303 199 OFFCURVE",
"402 106 CURVE SMOOTH",
"500 13 OFFCURVE",
"635 -34 OFFCURVE",
"805 -34 CURVE SMOOTH",
"975 -34 OFFCURVE",
"1109 13 OFFCURVE",
"1208 106 CURVE SMOOTH",
"1307 200 OFFCURVE",
"1356 364 OFFCURVE",
"1356 597 CURVE SMOOTH",
"1356 622 LINE",
"1489 622 LINE SMOOTH",
"1539 622 OFFCURVE",
"1564 644 OFFCURVE",
"1564 687 CURVE SMOOTH",
"1564 805 LINE SMOOTH",
"1564 848 OFFCURVE",
"1539 870 OFFCURVE",
"1489 870 CURVE SMOOTH",
"1356 870 LINE",
"1356 1379 LINE SMOOTH",
"1356 1416 OFFCURVE",
"1333 1434 OFFCURVE",
"1286 1434 CURVE SMOOTH",
"1134 1434 LINE SMOOTH",
"1087 1434 OFFCURVE",
"1064 1416 OFFCURVE",
"1064 1379 CURVE SMOOTH",
"1064 870 LINE",
"546 870 LINE",
"546 1379 LINE SMOOTH",
"546 1416 OFFCURVE",
"523 1434 OFFCURVE",
"476 1434 CURVE SMOOTH",
"324 1434 LINE SMOOTH",
"277 1434 OFFCURVE",
"254 1416 OFFCURVE",
"254 1379 CURVE SMOOTH",
"254 870 LINE",
"121 870 LINE SMOOTH",
"71 870 OFFCURVE",
"46 848 OFFCURVE",
"46 805 CURVE SMOOTH",
"46 687 LINE SMOOTH",
"46 644 OFFCURVE",
"71 622 OFFCURVE",
"121 622 CURVE SMOOTH"
);
}
);
width = 1610;
}
);
unicode = 0244;
},
{
glyphname = uni0245;
lastChange = "2016-10-15 02:31:49 +0000";
layers = (
{
layerId = UUID0;
paths = (
{
closed = 1;
nodes = (
"175 0 LINE SMOOTH",
"211 0 OFFCURVE",
"235 16 OFFCURVE",
"247 49 CURVE SMOOTH",
"572 944 LINE SMOOTH",
"597 1013 OFFCURVE",
"655 1193 OFFCURVE",
"667 1261 CURVE",
"671 1261 LINE",
"683 1193 OFFCURVE",
"741 1013 OFFCURVE",
"766 944 CURVE SMOOTH",
"1091 49 LINE SMOOTH",
"1103 16 OFFCURVE",
"1127 0 OFFCURVE",
"1163 0 CURVE SMOOTH",
"1265 0 LINE SMOOTH",
"1288 0 OFFCURVE",
"1300 10 OFFCURVE",
"1300 30 CURVE SMOOTH",
"1300 40 OFFCURVE",
"1297 51 OFFCURVE",
"1292 66 CURVE SMOOTH",
"805 1373 LINE SMOOTH",
"790 1414 OFFCURVE",
"768 1434 OFFCURVE",
"739 1434 CURVE SMOOTH",
"599 1434 LINE SMOOTH",
"570 1434 OFFCURVE",
"548 1414 OFFCURVE",
"533 1373 CURVE SMOOTH",
"46 66 LINE SMOOTH",
"40 51 OFFCURVE",
"38 40 OFFCURVE",
"38 30 CURVE SMOOTH",
"38 10 OFFCURVE",
"49 0 OFFCURVE",
"73 0 CURVE SMOOTH"
);
}
);
width = 1338;
},
{
layerId = "39B5C782-31E0-4FF6-90B4-6BA13107E116";
paths = (
{
closed = 1;
nodes = (
"249 0 LINE SMOOTH",
"294 0 OFFCURVE",
"324 23 OFFCURVE",
"341 69 CURVE SMOOTH",
"647 904 LINE",
"680 999 OFFCURVE",
"676 988 OFFCURVE",
"683 1061 CURVE",
"687 1061 LINE",
"693 988 OFFCURVE",
"690 999 OFFCURVE",
"723 904 CURVE",
"1029 69 LINE SMOOTH",
"1046 23 OFFCURVE",
"1076 0 OFFCURVE",
"1121 0 CURVE SMOOTH",
"1280 0 LINE SMOOTH",
"1315 0 OFFCURVE",
"1333 12 OFFCURVE",
"1333 36 CURVE SMOOTH",
"1333 45 OFFCURVE",
"1331 54 OFFCURVE",
"1327 66 CURVE SMOOTH",
"849 1353 LINE SMOOTH",
"829 1407 OFFCURVE",
"798 1434 OFFCURVE",
"755 1434 CURVE SMOOTH",
"615 1434 LINE SMOOTH",
"572 1434 OFFCURVE",
"541 1407 OFFCURVE",
"521 1353 CURVE SMOOTH",
"43 66 LINE SMOOTH",
"38 54 OFFCURVE",
"36 45 OFFCURVE",
"36 36 CURVE SMOOTH",
"36 12 OFFCURVE",
"54 0 OFFCURVE",
"90 0 CURVE SMOOTH"
);
}
);
width = 1370;
}
);
unicode = 0245;
},
{
glyphname = uni0248;
lastChange = "2016-10-15 02:31:38 +0000";
layers = (
{
layerId = UUID0;
paths = (
{
closed = 1;
nodes = (
"140 -10 OFFCURVE",
"219 -30 OFFCURVE",
"302 -30 CURVE SMOOTH",
"454 -30 OFFCURVE",
"551 9 OFFCURVE",
"592 86 CURVE SMOOTH",
"633 164 OFFCURVE",
"654 269 OFFCURVE",
"654 401 CURVE SMOOTH",
"654 644 LINE",
"785 644 LINE SMOOTH",
"822 644 OFFCURVE",
"840 659 OFFCURVE",
"840 689 CURVE SMOOTH",
"840 763 LINE SMOOTH",
"840 793 OFFCURVE",
"822 808 OFFCURVE",
"785 808 CURVE SMOOTH",
"654 808 LINE",
"654 1379 LINE SMOOTH",
"654 1416 OFFCURVE",
"637 1434 OFFCURVE",
"604 1434 CURVE SMOOTH",
"512 1434 LINE SMOOTH",
"479 1434 OFFCURVE",
"462 1416 OFFCURVE",
"462 1379 CURVE SMOOTH",
"462 808 LINE",
"282 808 LINE SMOOTH",
"245 808 OFFCURVE",
"227 793 OFFCURVE",
"227 763 CURVE SMOOTH",
"227 689 LINE SMOOTH",
"227 659 OFFCURVE",
"245 644 OFFCURVE",
"282 644 CURVE SMOOTH",
"462 644 LINE",
"462 378 LINE SMOOTH",
"462 220 OFFCURVE",
"436 126 OFFCURVE",
"315 126 CURVE SMOOTH",
"256 126 OFFCURVE",
"199 144 OFFCURVE",
"145 179 CURVE SMOOTH",
"131 188 OFFCURVE",
"118 193 OFFCURVE",
"108 193 CURVE SMOOTH",
"92 193 OFFCURVE",
"81 184 OFFCURVE",
"72 165 CURVE SMOOTH",
"39 94 LINE SMOOTH",
"35 86 OFFCURVE",
"34 79 OFFCURVE",
"34 72 CURVE SMOOTH",
"34 55 OFFCURVE",
"45 41 OFFCURVE",
"67 29 CURVE SMOOTH"
);
}
);
width = 890;
}
);
unicode = 0248;
},
{
glyphname = uni2C6E;
lastChange = "2016-10-15 02:31:49 +0000";
layers = (
{
layerId = UUID0;
paths = (
{
closed = 1;
nodes = (
"312 0 LINE SMOOTH",
"345 0 OFFCURVE",
"362 18 OFFCURVE",
"362 55 CURVE SMOOTH",
"362 1104 LINE SMOOTH",
"362 1131 OFFCURVE",
"361 1157 OFFCURVE",
"360 1184 CURVE",
"364 1184 LINE",
"733 61 LINE SMOOTH",
"746 20 OFFCURVE",
"768 0 OFFCURVE",
"799 0 CURVE SMOOTH",
"909 0 LINE SMOOTH",
"940 0 OFFCURVE",
"961 20 OFFCURVE",
"975 61 CURVE SMOOTH",
"1344 1184 LINE",
"1348 1184 LINE",
"1347 1157 OFFCURVE",
"1346 1131 OFFCURVE",
"1346 1104 CURVE SMOOTH",
"1346 38 LINE SMOOTH",
"1346 -93 OFFCURVE",
"1333 -175 OFFCURVE",
"1308 -209 CURVE SMOOTH",
"1283 -244 OFFCURVE",
"1244 -261 OFFCURVE",
"1192 -261 CURVE SMOOTH",
"1156 -261 OFFCURVE",
"1117 -251 OFFCURVE",
"1076 -232 CURVE SMOOTH",
"1063 -226 OFFCURVE",
"1052 -223 OFFCURVE",
"1043 -223 CURVE SMOOTH",
"1025 -223 OFFCURVE",
"1014 -233 OFFCURVE",
"1008 -253 CURVE SMOOTH",
"987 -324 LINE SMOOTH",
"985 -331 OFFCURVE",
"984 -337 OFFCURVE",
"984 -343 CURVE SMOOTH",
"984 -397 OFFCURVE",
"1131 -417 OFFCURVE",
"1198 -417 CURVE SMOOTH",
"1419 -417 OFFCURVE",
"1538 -315 OFFCURVE",
"1538 -9 CURVE SMOOTH",
"1538 1379 LINE SMOOTH",
"1538 1416 OFFCURVE",
"1521 1434 OFFCURVE",
"1488 1434 CURVE SMOOTH",
"1275 1434 LINE SMOOTH",
"1250 1434 OFFCURVE",
"1231 1414 OFFCURVE",
"1218 1374 CURVE SMOOTH",
"932 477 LINE SMOOTH",
"870 283 OFFCURVE",
"881 329 OFFCURVE",
"857 206 CURVE",
"851 206 LINE",
"826 329 OFFCURVE",
"838 283 OFFCURVE",
"776 477 CURVE SMOOTH",
"490 1374 LINE SMOOTH",
"477 1414 OFFCURVE",
"458 1434 OFFCURVE",
"433 1434 CURVE SMOOTH",
"220 1434 LINE SMOOTH",
"187 1434 OFFCURVE",
"170 1416 OFFCURVE",
"170 1379 CURVE SMOOTH",
"170 55 LINE SMOOTH",
"170 18 OFFCURVE",
"187 0 OFFCURVE",
"220 0 CURVE SMOOTH"
);
}
);
width = 1708;
},
{
layerId = "39B5C782-31E0-4FF6-90B4-6BA13107E116";
paths = (
{
closed = 1;
nodes = (
"382 0 LINE SMOOTH",
"429 0 OFFCURVE",
"452 25 OFFCURVE",
"452 75 CURVE SMOOTH",
"452 901 LINE SMOOTH",
"452 941 OFFCURVE",
"450 981 OFFCURVE",
"447 1021 CURVE",
"454 1021 LINE",
"743 81 LINE SMOOTH",
"760 27 OFFCURVE",
"788 0 OFFCURVE",
"829 0 CURVE SMOOTH",
"999 0 LINE SMOOTH",
"1040 0 OFFCURVE",
"1068 27 OFFCURVE",
"1085 81 CURVE SMOOTH",
"1374 1021 LINE",
"1381 1021 LINE",
"1378 981 OFFCURVE",
"1376 941 OFFCURVE",
"1376 901 CURVE SMOOTH",
"1376 91 LINE SMOOTH",
"1376 -28 OFFCURVE",
"1366 -104 OFFCURVE",
"1346 -136 CURVE SMOOTH",
"1326 -168 OFFCURVE",
"1294 -184 OFFCURVE",
"1249 -184 CURVE SMOOTH",
"1220 -184 OFFCURVE",
"1189 -178 OFFCURVE",
"1157 -165 CURVE SMOOTH",
"1145 -160 OFFCURVE",
"1134 -158 OFFCURVE",
"1125 -158 CURVE SMOOTH",
"1103 -158 OFFCURVE",
"1087 -172 OFFCURVE",
"1080 -199 CURVE SMOOTH",
"1048 -320 LINE SMOOTH",
"1046 -327 OFFCURVE",
"1045 -334 OFFCURVE",
"1045 -340 CURVE SMOOTH",
"1045 -403 OFFCURVE",
"1190 -420 OFFCURVE",
"1288 -420 CURVE SMOOTH",
"1541 -420 OFFCURVE",
"1668 -280 OFFCURVE",
"1668 35 CURVE SMOOTH",
"1668 1359 LINE SMOOTH",
"1668 1409 OFFCURVE",
"1645 1434 OFFCURVE",
"1598 1434 CURVE SMOOTH",
"1308 1434 LINE SMOOTH",
"1269 1434 OFFCURVE",
"1241 1407 OFFCURVE",
"1225 1354 CURVE SMOOTH",
"954 477 LINE",
"927 393 OFFCURVE",
"923 368 OFFCURVE",
"917 297 CURVE",
"911 297 LINE",
"904 368 OFFCURVE",
"901 393 OFFCURVE",
"874 477 CURVE",
"603 1354 LINE SMOOTH",
"586 1407 OFFCURVE",
"558 1434 OFFCURVE",
"520 1434 CURVE SMOOTH",
"230 1434 LINE SMOOTH",
"183 1434 OFFCURVE",
"160 1409 OFFCURVE",
"160 1359 CURVE SMOOTH",
"160 75 LINE SMOOTH",
"160 25 OFFCURVE",
"183 0 OFFCURVE",
"230 0 CURVE SMOOTH"
);
}
);
width = 1828;
}
);
unicode = 2C6E;
},
{
glyphname = a;
lastChange = "2016-10-15 02:31:49 +0000";
layers = (
{
layerId = UUID0;
paths = (
{
closed = 1;
nodes = (
"85 93 OFFCURVE",
"207 -17 OFFCURVE",
"426 -17 CURVE SMOOTH",
"550 -17 OFFCURVE",
"644 11 OFFCURVE",
"749 94 CURVE",
"751 94 LINE",
"751 45 LINE SMOOTH",
"751 15 OFFCURVE",
"764 0 OFFCURVE",
"790 0 CURVE SMOOTH",
"880 0 LINE SMOOTH",
"910 0 OFFCURVE",
"925 15 OFFCURVE",
"925 45 CURVE SMOOTH",
"925 665 LINE SMOOTH",
"925 913 OFFCURVE",
"818 1067 OFFCURVE",
"538 1067 CURVE SMOOTH",
"368 1067 OFFCURVE",
"249 1017 OFFCURVE",
"159 932 CURVE SMOOTH",
"143 917 OFFCURVE",
"135 904 OFFCURVE",
"135 892 CURVE SMOOTH",
"135 885 OFFCURVE",
"138 878 OFFCURVE",
"144 872 CURVE SMOOTH",
"196 812 LINE SMOOTH",
"203 803 OFFCURVE",
"211 799 OFFCURVE",
"219 799 CURVE SMOOTH",
"228 799 OFFCURVE",
"237 804 OFFCURVE",
"247 815 CURVE SMOOTH",
"321 896 OFFCURVE",
"397 937 OFFCURVE",
"538 937 CURVE SMOOTH",
"708 937 OFFCURVE",
"749 827 OFFCURVE",
"749 706 CURVE SMOOTH",
"749 638 LINE",
"309 620 OFFCURVE",
"85 519 OFFCURVE",
"85 280 CURVE SMOOTH"
);
},
{
closed = 1;
nodes = (
"267 367 OFFCURVE",
"349 442 OFFCURVE",
"461 470 CURVE SMOOTH",
"518 484 OFFCURVE",
"614 497 OFFCURVE",
"749 507 CURVE",
"749 212 LINE",
"650 125 OFFCURVE",
"564 118 OFFCURVE",
"461 118 CURVE SMOOTH",
"360 118 OFFCURVE",
"267 139 OFFCURVE",
"267 276 CURVE SMOOTH"
);
}
);
width = 1067;
},
{
layerId = "39B5C782-31E0-4FF6-90B4-6BA13107E116";
paths = (
{
closed = 1;
nodes = (
"80 95 OFFCURVE",
"195 -20 OFFCURVE",
"414 -20 CURVE SMOOTH",
"504 -20 OFFCURVE",
"630 15 OFFCURVE",
"707 90 CURVE",
"709 90 LINE",
"709 60 LINE SMOOTH",
"709 20 OFFCURVE",
"727 0 OFFCURVE",
"763 0 CURVE SMOOTH",
"927 0 LINE SMOOTH",
"967 0 OFFCURVE",
"987 20 OFFCURVE",
"987 60 CURVE SMOOTH",
"987 691 LINE SMOOTH",
"987 940 OFFCURVE",
"833 1070 OFFCURVE",
"556 1070 CURVE SMOOTH",
"210 1070 OFFCURVE",
"123 934 OFFCURVE",
"123 905 CURVE SMOOTH",
"123 894 OFFCURVE",
"128 884 OFFCURVE",
"136 874 CURVE SMOOTH",
"219 772 LINE SMOOTH",
"228 760 OFFCURVE",
"239 755 OFFCURVE",
"251 755 CURVE SMOOTH",
"264 755 OFFCURVE",
"278 762 OFFCURVE",
"295 776 CURVE SMOOTH",
"344 818 OFFCURVE",
"417 874 OFFCURVE",
"533 874 CURVE SMOOTH",
"642 874 OFFCURVE",
"707 829 OFFCURVE",
"707 706 CURVE SMOOTH",
"707 666 LINE",
"544 662 OFFCURVE",
"398 630 OFFCURVE",
"271 570 CURVE SMOOTH",
"144 510 OFFCURVE",
"80 413 OFFCURVE",
"80 280 CURVE SMOOTH"
);
},
{
closed = 1;
nodes = (
"376 345 OFFCURVE",
"406 384 OFFCURVE",
"482 424 CURVE SMOOTH",
"520 444 OFFCURVE",
"595 460 OFFCURVE",
"707 473 CURVE",
"707 256 LINE",
"628 185 OFFCURVE",
"570 176 OFFCURVE",
"501 176 CURVE SMOOTH",
"424 176 OFFCURVE",
"376 214 OFFCURVE",
"376 286 CURVE SMOOTH"
);
}
);
width = 1123;
}
);
unicode = 0061;
},
{
glyphname = aogonek;
lastChange = "2016-10-15 02:31:49 +0000";
layers = (
{
layerId = UUID0;
paths = (
{
closed = 1;
nodes = (
"85 93 OFFCURVE",
"207 -17 OFFCURVE",
"426 -17 CURVE SMOOTH",
"550 -17 OFFCURVE",
"644 11 OFFCURVE",
"749 94 CURVE",
"751 94 LINE",
"751 45 LINE SMOOTH",
"751 21 OFFCURVE",
"746 2 OFFCURVE",
"735 -6 CURVE SMOOTH",
"631 -82 OFFCURVE",
"564 -143 OFFCURVE",
"564 -255 CURVE SMOOTH",
"564 -335 OFFCURVE",
"627 -417 OFFCURVE",
"782 -417 CURVE SMOOTH",
"820 -417 OFFCURVE",
"924 -417 OFFCURVE",
"924 -386 CURVE SMOOTH",
"924 -383 OFFCURVE",
"923 -381 OFFCURVE",
"923 -378 CURVE SMOOTH",
"910 -299 LINE SMOOTH",
"908 -286 OFFCURVE",
"901 -279 OFFCURVE",
"891 -279 CURVE SMOOTH",
"871 -279 OFFCURVE",
"842 -287 OFFCURVE",
"805 -287 CURVE SMOOTH",
"760 -287 OFFCURVE",
"724 -264 OFFCURVE",
"724 -211 CURVE SMOOTH",
"724 -143 OFFCURVE",
"782 -92 OFFCURVE",
"908 0 CURVE",
"919 10 OFFCURVE",
"925 25 OFFCURVE",
"925 45 CURVE SMOOTH",
"925 665 LINE SMOOTH",
"925 913 OFFCURVE",
"818 1067 OFFCURVE",
"538 1067 CURVE SMOOTH",
"368 1067 OFFCURVE",
"249 1017 OFFCURVE",
"159 932 CURVE SMOOTH",
"143 917 OFFCURVE",
"135 904 OFFCURVE",
"135 892 CURVE SMOOTH",
"135 885 OFFCURVE",
"138 878 OFFCURVE",
"144 872 CURVE SMOOTH",
"196 812 LINE SMOOTH",
"203 803 OFFCURVE",
"211 799 OFFCURVE",
"219 799 CURVE SMOOTH",
"228 799 OFFCURVE",
"237 804 OFFCURVE",
"247 815 CURVE SMOOTH",
"321 896 OFFCURVE",
"397 937 OFFCURVE",
"538 937 CURVE SMOOTH",
"708 937 OFFCURVE",
"749 827 OFFCURVE",
"749 706 CURVE SMOOTH",
"749 638 LINE",
"309 620 OFFCURVE",
"85 519 OFFCURVE",
"85 280 CURVE SMOOTH"
);
},
{
closed = 1;
nodes = (
"267 367 OFFCURVE",
"349 442 OFFCURVE",
"461 470 CURVE SMOOTH",
"518 484 OFFCURVE",
"614 497 OFFCURVE",
"749 507 CURVE",
"749 212 LINE",
"650 125 OFFCURVE",
"564 118 OFFCURVE",
"461 118 CURVE SMOOTH",
"360 118 OFFCURVE",
"267 139 OFFCURVE",
"267 276 CURVE SMOOTH"
);
}
);
width = 1067;
},
{
layerId = "39B5C782-31E0-4FF6-90B4-6BA13107E116";
paths = (
{
closed = 1;
nodes = (
"80 95 OFFCURVE",
"195 -20 OFFCURVE",
"414 -20 CURVE SMOOTH",
"504 -20 OFFCURVE",
"630 15 OFFCURVE",
"707 90 CURVE",
"709 90 LINE",
"709 60 LINE SMOOTH",
"709 28 OFFCURVE",
"703 10 OFFCURVE",
"691 0 CURVE SMOOTH",
"623 -57 OFFCURVE",
"558 -134 OFFCURVE",
"545 -177 CURVE SMOOTH",
"538 -200 OFFCURVE",
"536 -224 OFFCURVE",
"536 -247 CURVE SMOOTH",
"536 -360 OFFCURVE",
"630 -420 OFFCURVE",
"818 -420 CURVE SMOOTH",
"923 -420 OFFCURVE",
"986 -418 OFFCURVE",
"986 -375 CURVE SMOOTH",
"986 -373 OFFCURVE",
"986 -371 OFFCURVE",
"986 -368 CURVE SMOOTH",
"972 -250 LINE SMOOTH",
"969 -229 OFFCURVE",
"959 -218 OFFCURVE",
"941 -218 CURVE SMOOTH",
"919 -218 OFFCURVE",
"889 -224 OFFCURVE",
"851 -224 CURVE SMOOTH",
"808 -224 OFFCURVE",
"772 -217 OFFCURVE",
"772 -176 CURVE SMOOTH",
"772 -135 OFFCURVE",
"884 -65 OFFCURVE",
"950 -11 CURVE",
"975 6 OFFCURVE",
"987 30 OFFCURVE",
"987 60 CURVE SMOOTH",
"987 691 LINE SMOOTH",
"987 940 OFFCURVE",
"833 1070 OFFCURVE",
"556 1070 CURVE SMOOTH",
"210 1070 OFFCURVE",
"123 934 OFFCURVE",
"123 905 CURVE SMOOTH",
"123 894 OFFCURVE",
"128 884 OFFCURVE",
"136 874 CURVE SMOOTH",
"219 772 LINE SMOOTH",
"228 760 OFFCURVE",
"239 755 OFFCURVE",
"251 755 CURVE SMOOTH",
"264 755 OFFCURVE",
"278 762 OFFCURVE",
"295 776 CURVE SMOOTH",
"344 818 OFFCURVE",
"417 874 OFFCURVE",
"533 874 CURVE SMOOTH",
"642 874 OFFCURVE",
"707 829 OFFCURVE",
"707 706 CURVE SMOOTH",
"707 666 LINE",
"544 662 OFFCURVE",
"398 630 OFFCURVE",
"271 570 CURVE SMOOTH",
"144 510 OFFCURVE",
"80 413 OFFCURVE",
"80 280 CURVE SMOOTH"
);
},
{
closed = 1;
nodes = (
"376 345 OFFCURVE",
"406 384 OFFCURVE",
"482 424 CURVE SMOOTH",
"520 444 OFFCURVE",
"595 460 OFFCURVE",
"707 473 CURVE",
"707 256 LINE",
"628 185 OFFCURVE",
"570 176 OFFCURVE",
"501 176 CURVE SMOOTH",
"422 176 OFFCURVE",
"376 214 OFFCURVE",
"376 286 CURVE SMOOTH"
);
}
);
width = 1123;
}
);
unicode = 0105;
},
{
glyphname = ae;
lastChange = "2016-10-15 02:31:49 +0000";
layers = (
{
layerId = UUID0;
paths = (
{
closed = 1;
nodes = (
"85 93 OFFCURVE",
"209 -17 OFFCURVE",
"421 -17 CURVE SMOOTH",
"556 -17 OFFCURVE",
"680 28 OFFCURVE",
"831 156 CURVE",
"833 156 LINE",
"930 25 OFFCURVE",
"1043 -17 OFFCURVE",
"1211 -17 CURVE SMOOTH",
"1335 -17 OFFCURVE",
"1426 4 OFFCURVE",
"1485 47 CURVE SMOOTH",
"1581 117 OFFCURVE",
"1604 145 OFFCURVE",
"1604 171 CURVE SMOOTH",
"1604 180 OFFCURVE",
"1600 188 OFFCURVE",
"1593 195 CURVE SMOOTH",
"1534 246 LINE SMOOTH",
"1526 252 OFFCURVE",
"1519 256 OFFCURVE",
"1511 256 CURVE SMOOTH",
"1465 256 OFFCURVE",
"1429 114 OFFCURVE",
"1211 114 CURVE SMOOTH",
"1072 114 OFFCURVE",
"941 195 OFFCURVE",
"919 458 CURVE",
"1599 458 LINE SMOOTH",
"1626 458 OFFCURVE",
"1640 473 OFFCURVE",
"1640 503 CURVE SMOOTH",
"1640 900 OFFCURVE",
"1446 1067 OFFCURVE",
"1203 1067 CURVE SMOOTH",
"1083 1067 OFFCURVE",
"964 1040 OFFCURVE",
"857 913 CURVE",
"854 913 LINE",
"786 1039 OFFCURVE",
"666 1067 OFFCURVE",
"533 1067 CURVE SMOOTH",
"370 1067 OFFCURVE",
"230 1000 OFFCURVE",
"159 932 CURVE SMOOTH",
"143 917 OFFCURVE",
"135 905 OFFCURVE",
"135 892 CURVE SMOOTH",
"135 885 OFFCURVE",
"138 878 OFFCURVE",
"144 872 CURVE SMOOTH",
"196 812 LINE SMOOTH",
"203 803 OFFCURVE",
"211 799 OFFCURVE",
"219 799 CURVE SMOOTH",
"228 799 OFFCURVE",
"237 804 OFFCURVE",
"247 815 CURVE SMOOTH",
"314 889 OFFCURVE",
"376 937 OFFCURVE",
"533 937 CURVE SMOOTH",
"697 937 OFFCURVE",
"739 827 OFFCURVE",
"739 706 CURVE SMOOTH",
"739 638 LINE",
"307 620 OFFCURVE",
"85 519 OFFCURVE",
"85 280 CURVE SMOOTH"
);
},
{
closed = 1;
nodes = (
"267 359 OFFCURVE",
"335 434 OFFCURVE",
"451 467 CURVE SMOOTH",
"510 483 OFFCURVE",
"606 497 OFFCURVE",
"739 507 CURVE",
"739 412 OFFCURVE",
"746 321 OFFCURVE",
"759 233 CURVE",
"660 142 OFFCURVE",
"586 118 OFFCURVE",
"456 118 CURVE SMOOTH",
"290 118 OFFCURVE",
"267 191 OFFCURVE",
"267 276 CURVE SMOOTH"
);
},
{
closed = 1;
nodes = (
"915 588 LINE",
"935 856 OFFCURVE",
"1054 939 OFFCURVE",
"1199 939 CURVE SMOOTH",
"1372 939 OFFCURVE",
"1457 769 OFFCURVE",
"1463 588 CURVE"
);
}
);
width = 1729;
},
{
layerId = "39B5C782-31E0-4FF6-90B4-6BA13107E116";
paths = (
{
closed = 1;
nodes = (
"80 95 OFFCURVE",
"187 -20 OFFCURVE",
"424 -20 CURVE SMOOTH",
"548 -20 OFFCURVE",
"695 54 OFFCURVE",
"777 146 CURVE",
"779 146 LINE",
"863 28 OFFCURVE",
"988 -20 OFFCURVE",
"1207 -20 CURVE SMOOTH",
"1447 -20 OFFCURVE",
"1521 25 OFFCURVE",
"1604 125 CURVE SMOOTH",
"1615 138 OFFCURVE",
"1621 151 OFFCURVE",
"1621 163 CURVE SMOOTH",
"1621 180 OFFCURVE",
"1609 196 OFFCURVE",
"1587 211 CURVE SMOOTH",
"1494 272 LINE SMOOTH",
"1481 280 OFFCURVE",
"1469 285 OFFCURVE",
"1457 285 CURVE SMOOTH",
"1440 285 OFFCURVE",
"1424 276 OFFCURVE",
"1410 258 CURVE SMOOTH",
"1367 205 OFFCURVE",
"1293 176 OFFCURVE",
"1202 176 CURVE SMOOTH",
"1096 176 OFFCURVE",
"991 227 OFFCURVE",
"977 428 CURVE",
"1627 428 LINE SMOOTH",
"1664 428 OFFCURVE",
"1683 448 OFFCURVE",
"1683 488 CURVE SMOOTH",
"1683 896 OFFCURVE",
"1517 1070 OFFCURVE",
"1160 1070 CURVE SMOOTH",
"1051 1070 OFFCURVE",
"927 1039 OFFCURVE",
"862 976 CURVE",
"859 976 LINE",
"776 1049 OFFCURVE",
"664 1070 OFFCURVE",
"552 1070 CURVE SMOOTH",
"252 1070 OFFCURVE",
"123 954 OFFCURVE",
"123 905 CURVE SMOOTH",
"123 894 OFFCURVE",
"128 884 OFFCURVE",
"136 874 CURVE SMOOTH",
"219 772 LINE SMOOTH",
"228 760 OFFCURVE",
"239 755 OFFCURVE",
"251 755 CURVE SMOOTH",
"295 755 OFFCURVE",
"378 874 OFFCURVE",
"527 874 CURVE SMOOTH",
"631 874 OFFCURVE",
"697 829 OFFCURVE",
"697 706 CURVE SMOOTH",
"697 666 LINE",
"537 662 OFFCURVE",
"394 630 OFFCURVE",
"268 570 CURVE SMOOTH",
"143 510 OFFCURVE",
"80 413 OFFCURVE",
"80 280 CURVE SMOOTH"
);
},
{
closed = 1;
nodes = (
"376 378 OFFCURVE",
"438 440 OFFCURVE",
"697 473 CURVE",
"698 398 OFFCURVE",
"703 335 OFFCURVE",
"710 284 CURVE",
"626 204 OFFCURVE",
"559 176 OFFCURVE",
"495 176 CURVE SMOOTH",
"424 176 OFFCURVE",
"376 211 OFFCURVE",
"376 286 CURVE SMOOTH"
);
},
{
closed = 1;
nodes = (
"977 628 LINE",
"984 780 OFFCURVE",
"1057 873 OFFCURVE",
"1182 873 CURVE SMOOTH",
"1340 873 OFFCURVE",
"1403 769 OFFCURVE",
"1403 628 CURVE"
);
}
);
width = 1765;
}
);
unicode = 00E6;
},
{
glyphname = b;
lastChange = "2016-10-15 02:31:49 +0000";
layers = (
{
layerId = UUID0;
paths = (
{
closed = 1;
nodes = (
"271 0 LINE SMOOTH",
"295 0 OFFCURVE",
"308 15 OFFCURVE",
"310 45 CURVE SMOOTH",
"316 125 LINE",
"318 125 LINE",
"392 36 OFFCURVE",
"471 -17 OFFCURVE",
"626 -17 CURVE SMOOTH",
"759 -17 OFFCURVE",
"861 37 OFFCURVE",
"930 146 CURVE SMOOTH",
"999 255 OFFCURVE",
"1034 382 OFFCURVE",
"1034 525 CURVE SMOOTH",
"1034 668 OFFCURVE",
"999 794 OFFCURVE",
"930 903 CURVE SMOOTH",
"861 1012 OFFCURVE",
"759 1067 OFFCURVE",
"626 1067 CURVE SMOOTH",
"471 1067 OFFCURVE",
"392 1014 OFFCURVE",
"318 925 CURVE",
"316 925 LINE",
"317 945 OFFCURVE",
"318 965 OFFCURVE",
"318 986 CURVE SMOOTH",
"318 1431 LINE SMOOTH",
"318 1461 OFFCURVE",
"303 1476 OFFCURVE",
"273 1476 CURVE SMOOTH",
"187 1476 LINE SMOOTH",
"157 1476 OFFCURVE",
"142 1461 OFFCURVE",
"142 1431 CURVE SMOOTH",
"142 45 LINE SMOOTH",
"142 15 OFFCURVE",
"157 0 OFFCURVE",
"187 0 CURVE SMOOTH"
);
},
{
closed = 1;
nodes = (
"318 640 LINE SMOOTH",
"318 842 OFFCURVE",
"428 937 OFFCURVE",
"569 937 CURVE SMOOTH",
"774 937 OFFCURVE",
"848 765 OFFCURVE",
"848 525 CURVE SMOOTH",
"848 285 OFFCURVE",
"774 113 OFFCURVE",
"569 113 CURVE SMOOTH",
"427 113 OFFCURVE",
"318 207 OFFCURVE",
"318 410 CURVE SMOOTH"
);
}
);
width = 1119;
},
{
layerId = "39B5C782-31E0-4FF6-90B4-6BA13107E116";
paths = (
{
closed = 1;
nodes = (
"354 0 LINE SMOOTH",
"387 0 OFFCURVE",
"405 20 OFFCURVE",
"408 60 CURVE SMOOTH",
"412 118 LINE",
"416 118 LINE",
"487 2 OFFCURVE",
"565 -20 OFFCURVE",
"686 -20 CURVE SMOOTH",
"843 -20 OFFCURVE",
"953 34 OFFCURVE",
"1016 142 CURVE SMOOTH",
"1080 251 OFFCURVE",
"1112 378 OFFCURVE",
"1112 525 CURVE SMOOTH",
"1112 672 OFFCURVE",
"1079 798 OFFCURVE",
"1016 907 CURVE SMOOTH",
"952 1016 OFFCURVE",
"843 1070 OFFCURVE",
"686 1070 CURVE SMOOTH",
"565 1070 OFFCURVE",
"487 1048 OFFCURVE",
"416 932 CURVE",
"412 932 LINE",
"415 959 OFFCURVE",
"416 985 OFFCURVE",
"416 1012 CURVE SMOOTH",
"416 1416 LINE SMOOTH",
"416 1456 OFFCURVE",
"396 1476 OFFCURVE",
"356 1476 CURVE SMOOTH",
"196 1476 LINE SMOOTH",
"156 1476 OFFCURVE",
"136 1456 OFFCURVE",
"136 1416 CURVE SMOOTH",
"136 60 LINE SMOOTH",
"136 20 OFFCURVE",
"156 0 OFFCURVE",
"196 0 CURVE SMOOTH"
);
},
{
closed = 1;
nodes = (
"416 570 LINE SMOOTH",
"416 750 OFFCURVE",
"499 874 OFFCURVE",
"598 874 CURVE SMOOTH",
"781 874 OFFCURVE",
"816 733 OFFCURVE",
"816 525 CURVE SMOOTH",
"816 317 OFFCURVE",
"782 176 OFFCURVE",
"598 176 CURVE SMOOTH",
"497 176 OFFCURVE",
"416 302 OFFCURVE",
"416 480 CURVE SMOOTH"
);
}
);
width = 1192;
}
);
unicode = 0062;
},
{
glyphname = c;
lastChange = "2016-10-15 02:31:49 +0000";
layers = (
{
layerId = UUID0;
paths = (
{
closed = 1;
nodes = (
"85 217 OFFCURVE",
"233 -17 OFFCURVE",
"558 -17 CURVE SMOOTH",
"683 -17 OFFCURVE",
"776 9 OFFCURVE",
"835 60 CURVE SMOOTH",
"914 130 OFFCURVE",
"957 179 OFFCURVE",
"958 207 CURVE SMOOTH",
"958 219 OFFCURVE",
"952 228 OFFCURVE",
"940 235 CURVE SMOOTH",
"873 275 LINE SMOOTH",
"866 279 OFFCURVE",
"860 281 OFFCURVE",
"854 281 CURVE SMOOTH",
"839 281 OFFCURVE",
"826 270 OFFCURVE",
"814 248 CURVE SMOOTH",
"778 183 OFFCURVE",
"709 113 OFFCURVE",
"558 113 CURVE SMOOTH",
"375 113 OFFCURVE",
"271 245 OFFCURVE",
"271 525 CURVE SMOOTH",
"271 805 OFFCURVE",
"375 937 OFFCURVE",
"558 937 CURVE SMOOTH",
"699 937 OFFCURVE",
"759 886 OFFCURVE",
"797 825 CURVE SMOOTH",
"811 803 OFFCURVE",
"825 791 OFFCURVE",
"839 791 CURVE SMOOTH",
"845 791 OFFCURVE",
"851 794 OFFCURVE",
"857 798 CURVE SMOOTH",
"920 839 LINE SMOOTH",
"932 847 OFFCURVE",
"938 856 OFFCURVE",
"938 867 CURVE SMOOTH",
"938 905 OFFCURVE",
"868 966 OFFCURVE",
"805 1009 CURVE SMOOTH",
"747 1048 OFFCURVE",
"666 1067 OFFCURVE",
"558 1067 CURVE SMOOTH",
"236 1067 OFFCURVE",
"85 835 OFFCURVE",
"85 525 CURVE SMOOTH"
);
}
);
width = 1026;
},
{
layerId = "39B5C782-31E0-4FF6-90B4-6BA13107E116";
paths = (
{
closed = 1;
nodes = (
"80 188 OFFCURVE",
"245 -20 OFFCURVE",
"601 -20 CURVE SMOOTH",
"885 -20 OFFCURVE",
"1021 128 OFFCURVE",
"1021 197 CURVE SMOOTH",
"1021 212 OFFCURVE",
"1014 226 OFFCURVE",
"999 238 CURVE SMOOTH",
"906 311 LINE SMOOTH",
"894 320 OFFCURVE",
"882 325 OFFCURVE",
"871 325 CURVE SMOOTH",
"855 325 OFFCURVE",
"840 316 OFFCURVE",
"826 298 CURVE SMOOTH",
"768 226 OFFCURVE",
"710 176 OFFCURVE",
"601 176 CURVE SMOOTH",
"451 176 OFFCURVE",
"376 269 OFFCURVE",
"376 525 CURVE SMOOTH",
"376 781 OFFCURVE",
"452 874 OFFCURVE",
"601 874 CURVE SMOOTH",
"764 874 OFFCURVE",
"787 754 OFFCURVE",
"833 754 CURVE SMOOTH",
"843 754 OFFCURVE",
"853 758 OFFCURVE",
"864 765 CURVE SMOOTH",
"970 835 LINE SMOOTH",
"985 845 OFFCURVE",
"993 858 OFFCURVE",
"993 873 CURVE SMOOTH",
"993 927 OFFCURVE",
"900 1001 OFFCURVE",
"842 1029 CURVE SMOOTH",
"785 1056 OFFCURVE",
"704 1070 OFFCURVE",
"601 1070 CURVE SMOOTH",
"245 1070 OFFCURVE",
"80 862 OFFCURVE",
"80 525 CURVE SMOOTH"
);
}
);
width = 1086;
}
);
unicode = 0063;
},
{
glyphname = d;
lastChange = "2016-10-15 02:31:49 +0000";
layers = (
{
layerId = UUID0;
paths = (
{
closed = 1;
nodes = (
"85 382 OFFCURVE",
"120 255 OFFCURVE",
"189 146 CURVE SMOOTH",
"258 37 OFFCURVE",
"360 -17 OFFCURVE",
"493 -17 CURVE SMOOTH",
"648 -17 OFFCURVE",
"726 36 OFFCURVE",
"801 125 CURVE",
"803 125 LINE",
"809 45 LINE SMOOTH",
"811 15 OFFCURVE",
"824 0 OFFCURVE",
"848 0 CURVE SMOOTH",
"932 0 LINE SMOOTH",
"962 0 OFFCURVE",
"977 15 OFFCURVE",
"977 45 CURVE SMOOTH",
"977 1431 LINE SMOOTH",
"977 1461 OFFCURVE",
"962 1476 OFFCURVE",
"932 1476 CURVE SMOOTH",
"846 1476 LINE SMOOTH",
"816 1476 OFFCURVE",
"801 1461 OFFCURVE",
"801 1431 CURVE SMOOTH",
"801 986 LINE SMOOTH",
"801 965 OFFCURVE",
"802 945 OFFCURVE",
"803 925 CURVE",
"801 925 LINE",
"726 1014 OFFCURVE",
"648 1067 OFFCURVE",
"493 1067 CURVE SMOOTH",
"360 1067 OFFCURVE",
"258 1012 OFFCURVE",
"189 903 CURVE SMOOTH",
"120 794 OFFCURVE",
"85 668 OFFCURVE",
"85 525 CURVE SMOOTH"
);
},
{
closed = 1;
nodes = (
"271 767 OFFCURVE",
"345 937 OFFCURVE",
"550 937 CURVE SMOOTH",
"692 937 OFFCURVE",
"801 839 OFFCURVE",
"801 640 CURVE SMOOTH",
"801 410 LINE SMOOTH",
"801 209 OFFCURVE",
"693 113 OFFCURVE",
"550 113 CURVE SMOOTH",
"345 113 OFFCURVE",
"271 283 OFFCURVE",
"271 525 CURVE SMOOTH"
);
}
);
width = 1119;
},
{
layerId = "39B5C782-31E0-4FF6-90B4-6BA13107E116";
paths = (
{
closed = 1;
nodes = (
"80 378 OFFCURVE",
"111 250 OFFCURVE",
"175 142 CURVE SMOOTH",
"238 34 OFFCURVE",
"349 -20 OFFCURVE",
"506 -20 CURVE SMOOTH",
"627 -20 OFFCURVE",
"705 2 OFFCURVE",
"776 118 CURVE",
"780 118 LINE",
"784 60 LINE SMOOTH",
"787 20 OFFCURVE",
"805 0 OFFCURVE",
"838 0 CURVE SMOOTH",
"996 0 LINE SMOOTH",
"1036 0 OFFCURVE",
"1056 20 OFFCURVE",
"1056 60 CURVE SMOOTH",
"1056 1416 LINE SMOOTH",
"1056 1456 OFFCURVE",
"1036 1476 OFFCURVE",
"996 1476 CURVE SMOOTH",
"836 1476 LINE SMOOTH",
"796 1476 OFFCURVE",
"776 1456 OFFCURVE",
"776 1416 CURVE SMOOTH",
"776 1012 LINE SMOOTH",
"776 985 OFFCURVE",
"777 959 OFFCURVE",
"780 932 CURVE",
"776 932 LINE",
"705 1048 OFFCURVE",
"627 1070 OFFCURVE",
"506 1070 CURVE SMOOTH",
"349 1070 OFFCURVE",
"239 1016 OFFCURVE",
"175 907 CURVE SMOOTH",
"112 799 OFFCURVE",
"80 672 OFFCURVE",
"80 525 CURVE SMOOTH"
);
},
{
closed = 1;
nodes = (
"376 735 OFFCURVE",
"411 874 OFFCURVE",
"594 874 CURVE SMOOTH",
"693 874 OFFCURVE",
"776 748 OFFCURVE",
"776 570 CURVE SMOOTH",
"776 480 LINE SMOOTH",
"776 305 OFFCURVE",
"695 176 OFFCURVE",
"594 176 CURVE SMOOTH",
"410 176 OFFCURVE",
"376 315 OFFCURVE",
"376 525 CURVE SMOOTH"
);
}
);
width = 1192;
}
);
unicode = 0064;
},
{
glyphname = eth;
lastChange = "2016-10-15 02:31:49 +0000";
layers = (
{
layerId = UUID0;
paths = (
{
closed = 1;
nodes = (
"85 370 OFFCURVE",
"126 245 OFFCURVE",
"209 140 CURVE SMOOTH",
"292 35 OFFCURVE",
"414 -17 OFFCURVE",
"574 -17 CURVE SMOOTH",
"918 -17 OFFCURVE",
"1064 253 OFFCURVE",
"1064 586 CURVE SMOOTH",
"1064 747 OFFCURVE",
"1030 895 OFFCURVE",
"962 1030 CURVE SMOOTH",
"894 1165 OFFCURVE",
"825 1261 OFFCURVE",
"756 1320 CURVE",
"839 1363 LINE SMOOTH",
"857 1372 OFFCURVE",
"866 1384 OFFCURVE",
"866 1398 CURVE SMOOTH",
"866 1404 OFFCURVE",
"865 1409 OFFCURVE",
"863 1415 CURVE SMOOTH",
"845 1461 LINE SMOOTH",
"840 1474 OFFCURVE",
"830 1481 OFFCURVE",
"818 1481 CURVE SMOOTH",
"810 1481 OFFCURVE",
"800 1478 OFFCURVE",
"789 1472 CURVE SMOOTH",
"654 1403 LINE",
"615 1433 OFFCURVE",
"564 1460 OFFCURVE",
"499 1484 CURVE SMOOTH",
"486 1489 OFFCURVE",
"475 1491 OFFCURVE",
"465 1491 CURVE SMOOTH",
"450 1491 OFFCURVE",
"438 1485 OFFCURVE",
"431 1474 CURVE SMOOTH",
"401 1426 LINE SMOOTH",
"397 1419 OFFCURVE",
"395 1413 OFFCURVE",
"395 1407 CURVE SMOOTH",
"395 1379 OFFCURVE",
"485 1346 OFFCURVE",
"512 1330 CURVE",
"382 1264 LINE SMOOTH",
"363 1254 OFFCURVE",
"354 1243 OFFCURVE",
"354 1228 CURVE SMOOTH",
"354 1223 OFFCURVE",
"355 1218 OFFCURVE",
"358 1212 CURVE SMOOTH",
"376 1166 LINE SMOOTH",
"381 1153 OFFCURVE",
"390 1146 OFFCURVE",
"402 1146 CURVE SMOOTH",
"411 1146 OFFCURVE",
"420 1149 OFFCURVE",
"432 1155 CURVE SMOOTH",
"615 1248 LINE",
"664 1206 OFFCURVE",
"800 1068 OFFCURVE",
"848 938 CURVE",
"839 938 LINE",
"778 1002 OFFCURVE",
"672 1050 OFFCURVE",
"531 1050 CURVE SMOOTH",
"253 1050 OFFCURVE",
"85 807 OFFCURVE",
"85 517 CURVE SMOOTH"
);
},
{
closed = 1;
nodes = (
"271 785 OFFCURVE",
"394 920 OFFCURVE",
"574 920 CURVE SMOOTH",
"756 920 OFFCURVE",
"877 755 OFFCURVE",
"877 517 CURVE SMOOTH",
"877 252 OFFCURVE",
"756 113 OFFCURVE",
"574 113 CURVE SMOOTH",
"392 113 OFFCURVE",
"271 243 OFFCURVE",
"271 517 CURVE SMOOTH"
);
}
);
width = 1153;
},
{
layerId = "39B5C782-31E0-4FF6-90B4-6BA13107E116";
paths = (
{
closed = 1;
nodes = (
"80 194 OFFCURVE",
"254 -20 OFFCURVE",
"603 -20 CURVE SMOOTH",
"948 -20 OFFCURVE",
"1119 150 OFFCURVE",
"1119 595 CURVE SMOOTH",
"1119 810 OFFCURVE",
"1080 970 OFFCURVE",
"1002 1078 CURVE SMOOTH",
"925 1185 OFFCURVE",
"856 1262 OFFCURVE",
"795 1310 CURVE",
"830 1333 LINE SMOOTH",
"854 1349 OFFCURVE",
"866 1364 OFFCURVE",
"866 1382 CURVE SMOOTH",
"866 1389 OFFCURVE",
"864 1398 OFFCURVE",
"859 1406 CURVE SMOOTH",
"822 1472 LINE SMOOTH",
"812 1489 OFFCURVE",
"800 1498 OFFCURVE",
"784 1498 CURVE SMOOTH",
"773 1498 OFFCURVE",
"760 1494 OFFCURVE",
"746 1486 CURVE SMOOTH",
"630 1422 LINE",
"577 1450 OFFCURVE",
"486 1500 OFFCURVE",
"440 1500 CURVE SMOOTH",
"421 1500 OFFCURVE",
"407 1492 OFFCURVE",
"398 1476 CURVE SMOOTH",
"351 1394 LINE SMOOTH",
"345 1383 OFFCURVE",
"342 1374 OFFCURVE",
"342 1365 CURVE SMOOTH",
"342 1334 OFFCURVE",
"384 1324 OFFCURVE",
"422 1307 CURVE",
"370 1278 LINE SMOOTH",
"346 1264 OFFCURVE",
"333 1248 OFFCURVE",
"333 1230 CURVE SMOOTH",
"333 1222 OFFCURVE",
"336 1214 OFFCURVE",
"341 1205 CURVE SMOOTH",
"378 1139 LINE SMOOTH",
"387 1122 OFFCURVE",
"400 1113 OFFCURVE",
"416 1113 CURVE SMOOTH",
"427 1113 OFFCURVE",
"440 1117 OFFCURVE",
"454 1125 CURVE SMOOTH",
"602 1207 LINE",
"662 1168 OFFCURVE",
"813 1067 OFFCURVE",
"876 909 CURVE",
"867 909 LINE",
"786 1006 OFFCURVE",
"709 1035 OFFCURVE",
"562 1035 CURVE SMOOTH",
"265 1035 OFFCURVE",
"80 844 OFFCURVE",
"80 518 CURVE SMOOTH"
);
},
{
closed = 1;
nodes = (
"376 741 OFFCURVE",
"456 839 OFFCURVE",
"603 839 CURVE SMOOTH",
"750 839 OFFCURVE",
"830 741 OFFCURVE",
"830 508 CURVE SMOOTH",
"830 275 OFFCURVE",
"750 176 OFFCURVE",
"603 176 CURVE SMOOTH",
"456 176 OFFCURVE",
"376 275 OFFCURVE",
"376 508 CURVE SMOOTH"
);
}
);
width = 1206;
}
);
unicode = 00F0;
},
{
glyphname = dcroat;
lastChange = "2016-10-15 02:31:49 +0000";
layers = (
{
layerId = UUID0;
paths = (
{
closed = 1;
nodes = (
"85 382 OFFCURVE",
"120 255 OFFCURVE",
"189 146 CURVE SMOOTH",
"258 37 OFFCURVE",
"360 -17 OFFCURVE",
"493 -17 CURVE SMOOTH",
"648 -17 OFFCURVE",
"726 36 OFFCURVE",
"801 125 CURVE",
"803 125 LINE",
"809 45 LINE SMOOTH",
"811 15 OFFCURVE",
"824 0 OFFCURVE",
"848 0 CURVE SMOOTH",
"932 0 LINE SMOOTH",
"962 0 OFFCURVE",
"977 15 OFFCURVE",
"977 45 CURVE SMOOTH",
"977 1208 LINE",
"1091 1208 LINE SMOOTH",
"1121 1208 OFFCURVE",
"1136 1220 OFFCURVE",
"1136 1243 CURVE SMOOTH",
"1136 1305 LINE SMOOTH",
"1136 1328 OFFCURVE",
"1121 1340 OFFCURVE",
"1091 1340 CURVE SMOOTH",
"977 1340 LINE",
"977 1431 LINE SMOOTH",
"977 1461 OFFCURVE",
"962 1476 OFFCURVE",
"932 1476 CURVE SMOOTH",
"846 1476 LINE SMOOTH",
"816 1476 OFFCURVE",
"801 1461 OFFCURVE",
"801 1431 CURVE SMOOTH",
"801 1340 LINE",
"493 1340 LINE SMOOTH",
"463 1340 OFFCURVE",
"448 1328 OFFCURVE",
"448 1305 CURVE SMOOTH",
"448 1243 LINE SMOOTH",
"448 1220 OFFCURVE",
"463 1208 OFFCURVE",
"493 1208 CURVE SMOOTH",
"801 1208 LINE",
"801 986 LINE SMOOTH",
"801 965 OFFCURVE",
"802 945 OFFCURVE",
"803 925 CURVE",
"801 925 LINE",
"726 1014 OFFCURVE",
"648 1067 OFFCURVE",
"493 1067 CURVE SMOOTH",
"360 1067 OFFCURVE",
"258 1012 OFFCURVE",
"189 903 CURVE SMOOTH",
"120 794 OFFCURVE",
"85 668 OFFCURVE",
"85 525 CURVE SMOOTH"
);
},
{
closed = 1;
nodes = (
"271 767 OFFCURVE",
"345 937 OFFCURVE",
"550 937 CURVE SMOOTH",
"692 937 OFFCURVE",
"801 839 OFFCURVE",
"801 640 CURVE SMOOTH",
"801 410 LINE SMOOTH",
"801 209 OFFCURVE",
"693 113 OFFCURVE",
"550 113 CURVE SMOOTH",
"345 113 OFFCURVE",
"271 283 OFFCURVE",
"271 525 CURVE SMOOTH"
);
}
);
width = 1156;
},
{
layerId = "39B5C782-31E0-4FF6-90B4-6BA13107E116";
paths = (
{
closed = 1;
nodes = (
"80 378 OFFCURVE",
"111 250 OFFCURVE",
"175 142 CURVE SMOOTH",
"238 34 OFFCURVE",
"349 -20 OFFCURVE",
"506 -20 CURVE SMOOTH",
"627 -20 OFFCURVE",
"705 2 OFFCURVE",
"776 118 CURVE",
"780 118 LINE",
"784 60 LINE SMOOTH",
"787 20 OFFCURVE",
"805 0 OFFCURVE",
"838 0 CURVE SMOOTH",
"996 0 LINE SMOOTH",
"1036 0 OFFCURVE",
"1056 20 OFFCURVE",
"1056 60 CURVE SMOOTH",
"1056 1180 LINE",
"1161 1180 LINE SMOOTH",
"1201 1180 OFFCURVE",
"1221 1197 OFFCURVE",
"1221 1230 CURVE SMOOTH",
"1221 1330 LINE SMOOTH",
"1221 1363 OFFCURVE",
"1201 1380 OFFCURVE",
"1161 1380 CURVE SMOOTH",
"1056 1380 LINE",
"1056 1416 LINE SMOOTH",
"1056 1456 OFFCURVE",
"1036 1476 OFFCURVE",
"996 1476 CURVE SMOOTH",
"836 1476 LINE SMOOTH",
"796 1476 OFFCURVE",
"776 1456 OFFCURVE",
"776 1416 CURVE SMOOTH",
"776 1380 LINE",
"505 1380 LINE SMOOTH",
"465 1380 OFFCURVE",
"445 1363 OFFCURVE",
"445 1330 CURVE SMOOTH",
"445 1230 LINE SMOOTH",
"445 1197 OFFCURVE",
"465 1180 OFFCURVE",
"505 1180 CURVE SMOOTH",
"776 1180 LINE",
"776 1012 LINE SMOOTH",
"776 985 OFFCURVE",
"777 959 OFFCURVE",
"780 932 CURVE",
"776 932 LINE",
"705 1048 OFFCURVE",
"627 1070 OFFCURVE",
"506 1070 CURVE SMOOTH",
"349 1070 OFFCURVE",
"239 1016 OFFCURVE",
"175 907 CURVE SMOOTH",
"112 799 OFFCURVE",
"80 672 OFFCURVE",
"80 525 CURVE SMOOTH"
);
},
{
closed = 1;
nodes = (
"376 735 OFFCURVE",
"411 874 OFFCURVE",
"594 874 CURVE SMOOTH",
"693 874 OFFCURVE",
"776 748 OFFCURVE",
"776 570 CURVE SMOOTH",
"776 480 LINE SMOOTH",
"776 305 OFFCURVE",
"695 176 OFFCURVE",
"594 176 CURVE SMOOTH",
"410 176 OFFCURVE",
"376 315 OFFCURVE",
"376 525 CURVE SMOOTH"
);
}
);
width = 1238;
}
);
unicode = 0111;
},
{
glyphname = e;
lastChange = "2016-10-15 02:31:49 +0000";
layers = (
{
layerId = UUID0;
paths = (
{
closed = 1;
nodes = (
"85 199 OFFCURVE",
"234 -17 OFFCURVE",
"572 -17 CURVE SMOOTH",
"700 -17 OFFCURVE",
"793 4 OFFCURVE",
"853 47 CURVE SMOOTH",
"951 118 OFFCURVE",
"973 145 OFFCURVE",
"973 171 CURVE SMOOTH",
"973 180 OFFCURVE",
"969 188 OFFCURVE",
"962 195 CURVE SMOOTH",
"903 246 LINE SMOOTH",
"895 252 OFFCURVE",
"888 256 OFFCURVE",
"880 256 CURVE SMOOTH",
"834 256 OFFCURVE",
"796 114 OFFCURVE",
"572 114 CURVE SMOOTH",
"429 114 OFFCURVE",
"293 197 OFFCURVE",
"271 458 CURVE",
"968 458 LINE SMOOTH",
"995 458 OFFCURVE",
"1009 473 OFFCURVE",
"1009 503 CURVE SMOOTH",
"1009 901 OFFCURVE",
"814 1067 OFFCURVE",
"564 1067 CURVE SMOOTH",
"255 1067 OFFCURVE",
"85 852 OFFCURVE",
"85 525 CURVE SMOOTH"
);
},
{
closed = 1;
nodes = (
"267 588 LINE",
"287 854 OFFCURVE",
"410 939 OFFCURVE",
"560 939 CURVE SMOOTH",
"738 939 OFFCURVE",
"826 769 OFFCURVE",
"832 588 CURVE"
);
}
);
width = 1098;
},
{
layerId = "39B5C782-31E0-4FF6-90B4-6BA13107E116";
paths = (
{
closed = 1;
nodes = (
"80 191 OFFCURVE",
"225 -20 OFFCURVE",
"611 -20 CURVE SMOOTH",
"850 -20 OFFCURVE",
"930 25 OFFCURVE",
"1013 125 CURVE SMOOTH",
"1024 139 OFFCURVE",
"1030 152 OFFCURVE",
"1030 164 CURVE SMOOTH",
"1030 181 OFFCURVE",
"1019 197 OFFCURVE",
"996 211 CURVE SMOOTH",
"896 272 LINE SMOOTH",
"883 280 OFFCURVE",
"870 284 OFFCURVE",
"858 284 CURVE SMOOTH",
"823 284 OFFCURVE",
"786 223 OFFCURVE",
"738 198 CURVE SMOOTH",
"709 183 OFFCURVE",
"666 176 OFFCURVE",
"611 176 CURVE SMOOTH",
"553 176 OFFCURVE",
"502 190 OFFCURVE",
"458 219 CURVE SMOOTH",
"414 248 OFFCURVE",
"387 317 OFFCURVE",
"376 428 CURVE",
"1036 428 LINE SMOOTH",
"1073 428 OFFCURVE",
"1092 448 OFFCURVE",
"1092 488 CURVE SMOOTH",
"1092 897 OFFCURVE",
"921 1070 OFFCURVE",
"564 1070 CURVE SMOOTH",
"256 1070 OFFCURVE",
"80 862 OFFCURVE",
"80 525 CURVE SMOOTH"
);
},
{
closed = 1;
nodes = (
"377 628 LINE",
"384 780 OFFCURVE",
"461 873 OFFCURVE",
"586 873 CURVE SMOOTH",
"744 873 OFFCURVE",
"812 771 OFFCURVE",
"812 628 CURVE"
);
}
);
width = 1174;
}
);
unicode = 0065;
},
{
glyphname = eogonek;
lastChange = "2016-10-15 02:31:49 +0000";
layers = (
{
layerId = UUID0;
paths = (
{
closed = 1;
nodes = (
"85 199 OFFCURVE",
"234 -17 OFFCURVE",
"572 -17 CURVE SMOOTH",
"588 -17 OFFCURVE",
"604 -16 OFFCURVE",
"620 -15 CURVE",
"620 -17 LINE",
"523 -89 OFFCURVE",
"463 -141 OFFCURVE",
"463 -255 CURVE SMOOTH",
"463 -335 OFFCURVE",
"526 -417 OFFCURVE",
"681 -417 CURVE SMOOTH",
"719 -417 OFFCURVE",
"823 -417 OFFCURVE",
"823 -386 CURVE SMOOTH",
"823 -383 OFFCURVE",
"822 -381 OFFCURVE",
"822 -378 CURVE SMOOTH",
"809 -299 LINE SMOOTH",
"807 -286 OFFCURVE",
"800 -279 OFFCURVE",
"790 -279 CURVE SMOOTH",
"770 -279 OFFCURVE",
"741 -287 OFFCURVE",
"704 -287 CURVE SMOOTH",
"659 -287 OFFCURVE",
"623 -264 OFFCURVE",
"623 -211 CURVE SMOOTH",
"623 -174 OFFCURVE",
"647 -133 OFFCURVE",
"696 -89 CURVE SMOOTH",
"745 -46 OFFCURVE",
"788 -6 OFFCURVE",
"826 29 CURVE",
"877 62 OFFCURVE",
"975 123 OFFCURVE",
"975 170 CURVE SMOOTH",
"975 179 OFFCURVE",
"971 187 OFFCURVE",
"962 195 CURVE SMOOTH",
"903 246 LINE SMOOTH",
"895 252 OFFCURVE",
"888 256 OFFCURVE",
"880 256 CURVE SMOOTH",
"834 256 OFFCURVE",
"796 114 OFFCURVE",
"572 114 CURVE SMOOTH",
"429 114 OFFCURVE",
"293 197 OFFCURVE",
"271 458 CURVE",
"968 458 LINE SMOOTH",
"995 458 OFFCURVE",
"1009 473 OFFCURVE",
"1009 503 CURVE SMOOTH",
"1009 901 OFFCURVE",
"814 1067 OFFCURVE",
"564 1067 CURVE SMOOTH",
"255 1067 OFFCURVE",
"85 852 OFFCURVE",
"85 525 CURVE SMOOTH"
);
},
{
closed = 1;
nodes = (
"267 588 LINE",
"287 854 OFFCURVE",
"410 939 OFFCURVE",
"560 939 CURVE SMOOTH",
"738 939 OFFCURVE",
"826 769 OFFCURVE",
"832 588 CURVE"
);
}
);
width = 1098;
},
{
layerId = "39B5C782-31E0-4FF6-90B4-6BA13107E116";
paths = (
{
closed = 1;
nodes = (
"80 190 OFFCURVE",
"233 -20 OFFCURVE",
"590 -20 CURVE SMOOTH",
"597 -20 OFFCURVE",
"603 -19 OFFCURVE",
"610 -18 CURVE",
"610 -22 LINE",
"456 -106 OFFCURVE",
"449 -179 OFFCURVE",
"446 -247 CURVE",
"446 -360 OFFCURVE",
"540 -420 OFFCURVE",
"728 -420 CURVE SMOOTH",
"833 -420 OFFCURVE",
"896 -418 OFFCURVE",
"896 -375 CURVE SMOOTH",
"896 -373 OFFCURVE",
"896 -371 OFFCURVE",
"896 -368 CURVE SMOOTH",
"882 -250 LINE SMOOTH",
"879 -229 OFFCURVE",
"869 -218 OFFCURVE",
"851 -218 CURVE SMOOTH",
"829 -218 OFFCURVE",
"799 -224 OFFCURVE",
"761 -224 CURVE SMOOTH",
"718 -224 OFFCURVE",
"682 -217 OFFCURVE",
"682 -176 CURVE SMOOTH",
"682 -135 OFFCURVE",
"794 -65 OFFCURVE",
"860 -11 CURVE",
"923 50 OFFCURVE",
"965 68 OFFCURVE",
"1013 125 CURVE SMOOTH",
"1024 139 OFFCURVE",
"1030 152 OFFCURVE",
"1030 164 CURVE SMOOTH",
"1030 181 OFFCURVE",
"1019 197 OFFCURVE",
"996 211 CURVE SMOOTH",
"896 272 LINE SMOOTH",
"883 280 OFFCURVE",
"870 284 OFFCURVE",
"858 284 CURVE SMOOTH",
"823 284 OFFCURVE",
"786 223 OFFCURVE",
"738 198 CURVE SMOOTH",
"709 183 OFFCURVE",
"666 176 OFFCURVE",
"611 176 CURVE SMOOTH",
"553 176 OFFCURVE",
"502 190 OFFCURVE",
"458 219 CURVE SMOOTH",
"414 248 OFFCURVE",
"387 317 OFFCURVE",
"376 428 CURVE",
"1036 428 LINE SMOOTH",
"1073 428 OFFCURVE",
"1092 448 OFFCURVE",
"1092 488 CURVE SMOOTH",
"1092 897 OFFCURVE",
"921 1070 OFFCURVE",
"564 1070 CURVE SMOOTH",
"256 1070 OFFCURVE",
"80 862 OFFCURVE",
"80 525 CURVE SMOOTH"
);
},
{
closed = 1;
nodes = (
"377 628 LINE",
"384 780 OFFCURVE",
"461 873 OFFCURVE",
"586 873 CURVE SMOOTH",
"744 873 OFFCURVE",
"812 771 OFFCURVE",
"812 628 CURVE"
);
}
);
width = 1174;
}
);
unicode = 0119;
},
{
glyphname = uni025A;
lastChange = "2016-10-15 02:31:38 +0000";
layers = (
{
layerId = UUID0;
paths = (
{
closed = 1;
nodes = (
"831 555 LINE",
"831 372 OFFCURVE",
"801 251 OFFCURVE",
"742 195 CURVE SMOOTH",
"683 139 OFFCURVE",
"615 111 OFFCURVE",
"538 111 CURVE SMOOTH",
"420 111 OFFCURVE",
"333 162 OFFCURVE",
"283 343 CURVE"
);
},
{
closed = 1;
nodes = (
"102 292 OFFCURVE",
"141 197 OFFCURVE",
"218 111 CURVE SMOOTH",
"294 26 OFFCURVE",
"401 -17 OFFCURVE",
"534 -17 CURVE SMOOTH",
"843 -17 OFFCURVE",
"1013 197 OFFCURVE",
"1013 525 CURVE SMOOTH",
"1013 564 OFFCURVE",
"1011 601 OFFCURVE",
"1006 636 CURVE",
"1200 729 LINE",
"1200 725 LINE",
"1179 692 OFFCURVE",
"1167 655 OFFCURVE",
"1167 619 CURVE SMOOTH",
"1167 517 OFFCURVE",
"1245 432 OFFCURVE",
"1370 432 CURVE SMOOTH",
"1451 432 OFFCURVE",
"1512 454 OFFCURVE",
"1560 490 CURVE SMOOTH",
"1566 494 OFFCURVE",
"1569 500 OFFCURVE",
"1569 508 CURVE SMOOTH",
"1569 513 OFFCURVE",
"1568 518 OFFCURVE",
"1565 524 CURVE SMOOTH",
"1544 570 LINE SMOOTH",
"1539 581 OFFCURVE",
"1532 586 OFFCURVE",
"1522 586 CURVE SMOOTH",
"1518 586 OFFCURVE",
"1513 585 OFFCURVE",
"1508 583 CURVE SMOOTH",
"1469 566 OFFCURVE",
"1431 557 OFFCURVE",
"1394 557 CURVE SMOOTH",
"1325 557 OFFCURVE",
"1297 593 OFFCURVE",
"1297 668 CURVE SMOOTH",
"1297 709 OFFCURVE",
"1323 778 OFFCURVE",
"1374 830 CURVE SMOOTH",
"1381 837 OFFCURVE",
"1384 845 OFFCURVE",
"1384 854 CURVE SMOOTH",
"1384 861 OFFCURVE",
"1382 870 OFFCURVE",
"1376 879 CURVE SMOOTH",
"1357 910 LINE SMOOTH",
"1352 918 OFFCURVE",
"1345 922 OFFCURVE",
"1336 922 CURVE SMOOTH",
"1330 922 OFFCURVE",
"1323 920 OFFCURVE",
"1316 917 CURVE SMOOTH",
"978 764 LINE",
"959 823 OFFCURVE",
"920 888 OFFCURVE",
"862 960 CURVE SMOOTH",
"805 1031 OFFCURVE",
"693 1067 OFFCURVE",
"526 1067 CURVE SMOOTH",
"398 1067 OFFCURVE",
"304 1046 OFFCURVE",
"244 1003 CURVE SMOOTH",
"147 933 OFFCURVE",
"125 905 OFFCURVE",
"125 879 CURVE SMOOTH",
"125 869 OFFCURVE",
"128 861 OFFCURVE",
"136 855 CURVE SMOOTH",
"195 804 LINE SMOOTH",
"203 797 OFFCURVE",
"210 794 OFFCURVE",
"218 794 CURVE SMOOTH",
"261 794 OFFCURVE",
"309 936 OFFCURVE",
"517 936 CURVE SMOOTH",
"659 936 OFFCURVE",
"747 876 OFFCURVE",
"812 697 CURVE",
"143 440 LINE SMOOTH",
"116 429 OFFCURVE",
"102 413 OFFCURVE",
"102 395 CURVE SMOOTH"
);
}
);
width = 1545;
}
);
unicode = 025A;
},
{
glyphname = f;
lastChange = "2016-10-15 02:31:49 +0000";
layers = (
{
layerId = UUID0;
paths = (
{
closed = 1;
nodes = (
"197 918 LINE",
"197 45 LINE SMOOTH",
"197 15 OFFCURVE",
"212 0 OFFCURVE",
"242 0 CURVE SMOOTH",
"328 0 LINE SMOOTH",
"358 0 OFFCURVE",
"373 15 OFFCURVE",
"373 45 CURVE SMOOTH",
"373 918 LINE",
"556 918 LINE SMOOTH",
"586 918 OFFCURVE",
"601 930 OFFCURVE",
"601 953 CURVE SMOOTH",
"601 1015 LINE SMOOTH",
"601 1038 OFFCURVE",
"586 1050 OFFCURVE",
"556 1050 CURVE SMOOTH",
"373 1050 LINE",
"373 1170 LINE SMOOTH",
"373 1324 OFFCURVE",
"420 1363 OFFCURVE",
"529 1363 CURVE SMOOTH",
"590 1363 OFFCURVE",
"647 1331 OFFCURVE",
"669 1331 CURVE SMOOTH",
"678 1331 OFFCURVE",
"684 1336 OFFCURVE",
"687 1344 CURVE SMOOTH",
"718 1423 LINE SMOOTH",
"720 1427 OFFCURVE",
"721 1431 OFFCURVE",
"721 1435 CURVE SMOOTH",
"721 1462 OFFCURVE",
"627 1482 OFFCURVE",
"604 1486 CURVE SMOOTH",
"576 1491 OFFCURVE",
"539 1493 OFFCURVE",
"493 1493 CURVE SMOOTH",
"416 1493 OFFCURVE",
"347 1472 OFFCURVE",
"287 1429 CURVE SMOOTH",
"227 1387 OFFCURVE",
"197 1310 OFFCURVE",
"197 1199 CURVE SMOOTH",
"197 1050 LINE",
"90 1050 LINE SMOOTH",
"60 1050 OFFCURVE",
"45 1038 OFFCURVE",
"45 1015 CURVE SMOOTH",
"45 953 LINE SMOOTH",
"45 930 OFFCURVE",
"60 918 OFFCURVE",
"90 918 CURVE SMOOTH"
);
}
);
width = 652;
},
{
layerId = "39B5C782-31E0-4FF6-90B4-6BA13107E116";
paths = (
{
closed = 1;
nodes = (
"157 850 LINE",
"157 60 LINE SMOOTH",
"157 20 OFFCURVE",
"177 0 OFFCURVE",
"217 0 CURVE SMOOTH",
"377 0 LINE SMOOTH",
"417 0 OFFCURVE",
"437 20 OFFCURVE",
"437 60 CURVE SMOOTH",
"437 850 LINE",
"569 850 LINE SMOOTH",
"608 850 OFFCURVE",
"628 867 OFFCURVE",
"628 900 CURVE SMOOTH",
"628 1000 LINE SMOOTH",
"628 1033 OFFCURVE",
"608 1050 OFFCURVE",
"569 1050 CURVE SMOOTH",
"437 1050 LINE",
"437 1090 LINE SMOOTH",
"437 1232 OFFCURVE",
"445 1300 OFFCURVE",
"544 1300 CURVE SMOOTH",
"589 1300 OFFCURVE",
"686 1281 OFFCURVE",
"687 1281 CURVE SMOOTH",
"701 1281 OFFCURVE",
"710 1289 OFFCURVE",
"714 1305 CURVE SMOOTH",
"744 1418 LINE SMOOTH",
"745 1423 OFFCURVE",
"746 1428 OFFCURVE",
"746 1433 CURVE SMOOTH",
"746 1479 OFFCURVE",
"630 1496 OFFCURVE",
"512 1496 CURVE SMOOTH",
"415 1496 OFFCURVE",
"332 1476 OFFCURVE",
"262 1435 CURVE SMOOTH",
"192 1394 OFFCURVE",
"157 1313 OFFCURVE",
"157 1190 CURVE SMOOTH",
"157 1050 LINE",
"101 1050 LINE SMOOTH",
"62 1050 OFFCURVE",
"42 1033 OFFCURVE",
"42 1000 CURVE SMOOTH",
"42 900 LINE SMOOTH",
"42 867 OFFCURVE",
"62 850 OFFCURVE",
"101 850 CURVE SMOOTH"
);
}
);
width = 682;
}
);
unicode = 0066;
},
{
glyphname = g;
lastChange = "2016-10-15 02:31:49 +0000";
layers = (
{
layerId = UUID0;
paths = (
{
closed = 1;
nodes = (
"85 382 OFFCURVE",
"120 255 OFFCURVE",
"189 146 CURVE SMOOTH",
"258 37 OFFCURVE",
"360 -17 OFFCURVE",
"493 -17 CURVE SMOOTH",
"647 -17 OFFCURVE",
"731 40 OFFCURVE",
"801 132 CURVE",
"803 132 LINE",
"802 112 OFFCURVE",
"801 92 OFFCURVE",
"801 71 CURVE SMOOTH",
"801 11 LINE SMOOTH",
"801 -233 OFFCURVE",
"721 -287 OFFCURVE",
"540 -287 CURVE SMOOTH",
"377 -287 OFFCURVE",
"342 -264 OFFCURVE",
"269 -198 CURVE SMOOTH",
"252 -183 OFFCURVE",
"237 -176 OFFCURVE",
"225 -176 CURVE SMOOTH",
"217 -176 OFFCURVE",
"211 -178 OFFCURVE",
"205 -184 CURVE SMOOTH",
"150 -238 LINE SMOOTH",
"142 -245 OFFCURVE",
"139 -253 OFFCURVE",
"139 -262 CURVE SMOOTH",
"139 -297 OFFCURVE",
"200 -342 OFFCURVE",
"277 -377 CURVE SMOOTH",
"335 -404 OFFCURVE",
"421 -417 OFFCURVE",
"539 -417 CURVE SMOOTH",
"713 -417 OFFCURVE",
"829 -381 OFFCURVE",
"888 -308 CURVE SMOOTH",
"947 -236 OFFCURVE",
"977 -136 OFFCURVE",
"977 -8 CURVE SMOOTH",
"977 1005 LINE SMOOTH",
"977 1035 OFFCURVE",
"962 1050 OFFCURVE",
"932 1050 CURVE SMOOTH",
"848 1050 LINE SMOOTH",
"824 1050 OFFCURVE",
"811 1035 OFFCURVE",
"809 1005 CURVE SMOOTH",
"803 925 LINE",
"801 925 LINE",
"726 1014 OFFCURVE",
"648 1067 OFFCURVE",
"493 1067 CURVE SMOOTH",
"360 1067 OFFCURVE",
"258 1012 OFFCURVE",
"189 903 CURVE SMOOTH",
"120 794 OFFCURVE",
"85 668 OFFCURVE",
"85 525 CURVE SMOOTH"
);
},
{
closed = 1;
nodes = (
"271 767 OFFCURVE",
"345 937 OFFCURVE",
"550 937 CURVE SMOOTH",
"692 937 OFFCURVE",
"801 839 OFFCURVE",
"801 640 CURVE SMOOTH",
"801 410 LINE SMOOTH",
"801 209 OFFCURVE",
"693 113 OFFCURVE",
"550 113 CURVE SMOOTH",
"345 113 OFFCURVE",
"271 283 OFFCURVE",
"271 525 CURVE SMOOTH"
);
}
);
width = 1119;
},
{
layerId = "39B5C782-31E0-4FF6-90B4-6BA13107E116";
paths = (
{
closed = 1;
nodes = (
"80 385 OFFCURVE",
"111 260 OFFCURVE",
"175 152 CURVE SMOOTH",
"238 44 OFFCURVE",
"349 -10 OFFCURVE",
"506 -10 CURVE SMOOTH",
"627 -10 OFFCURVE",
"705 12 OFFCURVE",
"776 128 CURVE",
"780 128 LINE",
"777 101 OFFCURVE",
"776 75 OFFCURVE",
"776 48 CURVE SMOOTH",
"776 31 LINE SMOOTH",
"776 -188 OFFCURVE",
"677 -224 OFFCURVE",
"512 -224 CURVE SMOOTH",
"388 -224 OFFCURVE",
"312 -200 OFFCURVE",
"257 -175 CURVE SMOOTH",
"245 -170 OFFCURVE",
"234 -167 OFFCURVE",
"225 -167 CURVE SMOOTH",
"208 -167 OFFCURVE",
"193 -176 OFFCURVE",
"184 -195 CURVE SMOOTH",
"148 -267 LINE SMOOTH",
"139 -284 OFFCURVE",
"135 -299 OFFCURVE",
"135 -312 CURVE SMOOTH",
"135 -368 OFFCURVE",
"284 -402 OFFCURVE",
"346 -409 CURVE SMOOTH",
"406 -416 OFFCURVE",
"471 -420 OFFCURVE",
"542 -420 CURVE SMOOTH",
"872 -420 OFFCURVE",
"1056 -320 OFFCURVE",
"1056 11 CURVE SMOOTH",
"1056 990 LINE SMOOTH",
"1056 1030 OFFCURVE",
"1036 1050 OFFCURVE",
"996 1050 CURVE SMOOTH",
"838 1050 LINE SMOOTH",
"805 1050 OFFCURVE",
"787 1030 OFFCURVE",
"784 990 CURVE SMOOTH",
"780 932 LINE",
"776 932 LINE",
"705 1048 OFFCURVE",
"627 1070 OFFCURVE",
"506 1070 CURVE SMOOTH",
"349 1070 OFFCURVE",
"239 1016 OFFCURVE",
"175 907 CURVE SMOOTH",
"112 799 OFFCURVE",
"80 672 OFFCURVE",
"80 525 CURVE SMOOTH"
);
},
{
closed = 1;
nodes = (
"376 735 OFFCURVE",
"411 874 OFFCURVE",
"594 874 CURVE SMOOTH",
"693 874 OFFCURVE",
"776 748 OFFCURVE",
"776 570 CURVE SMOOTH",
"776 490 LINE SMOOTH",
"776 315 OFFCURVE",
"695 186 OFFCURVE",
"594 186 CURVE SMOOTH",
"409 186 OFFCURVE",
"376 329 OFFCURVE",
"376 525 CURVE SMOOTH"
);
}
);
width = 1192;
}
);
unicode = 0067;
},
{
glyphname = h;
lastChange = "2016-10-15 02:31:49 +0000";
layers = (
{
layerId = UUID0;
paths = (
{
closed = 1;
nodes = (
"273 0 LINE SMOOTH",
"303 0 OFFCURVE",
"318 15 OFFCURVE",
"318 45 CURVE SMOOTH",
"318 594 LINE SMOOTH",
"318 848 OFFCURVE",
"411 937 OFFCURVE",
"582 937 CURVE SMOOTH",
"649 937 OFFCURVE",
"704 919 OFFCURVE",
"747 884 CURVE SMOOTH",
"790 849 OFFCURVE",
"812 767 OFFCURVE",
"812 636 CURVE SMOOTH",
"812 45 LINE SMOOTH",
"812 15 OFFCURVE",
"827 0 OFFCURVE",
"857 0 CURVE SMOOTH",
"943 0 LINE SMOOTH",
"973 0 OFFCURVE",
"988 15 OFFCURVE",
"988 45 CURVE SMOOTH",
"988 684 LINE SMOOTH",
"988 919 OFFCURVE",
"890 1067 OFFCURVE",
"647 1067 CURVE SMOOTH",
"496 1067 OFFCURVE",
"407 1022 OFFCURVE",
"320 925 CURVE",
"316 925 LINE",
"317 945 OFFCURVE",
"318 965 OFFCURVE",
"318 985 CURVE SMOOTH",
"318 1431 LINE SMOOTH",
"318 1461 OFFCURVE",
"303 1476 OFFCURVE",
"273 1476 CURVE SMOOTH",
"187 1476 LINE SMOOTH",
"157 1476 OFFCURVE",
"142 1461 OFFCURVE",
"142 1431 CURVE SMOOTH",
"142 45 LINE SMOOTH",
"142 15 OFFCURVE",
"157 0 OFFCURVE",
"187 0 CURVE SMOOTH"
);
}
);
width = 1128;
},
{
layerId = "39B5C782-31E0-4FF6-90B4-6BA13107E116";
paths = (
{
closed = 1;
nodes = (
"356 0 LINE SMOOTH",
"396 0 OFFCURVE",
"416 20 OFFCURVE",
"416 60 CURVE SMOOTH",
"416 454 LINE SMOOTH",
"416 625 OFFCURVE",
"434 738 OFFCURVE",
"469 792 CURVE SMOOTH",
"504 847 OFFCURVE",
"557 874 OFFCURVE",
"627 874 CURVE SMOOTH",
"693 874 OFFCURVE",
"736 855 OFFCURVE",
"756 817 CURVE SMOOTH",
"776 779 OFFCURVE",
"786 687 OFFCURVE",
"786 542 CURVE SMOOTH",
"786 60 LINE SMOOTH",
"786 20 OFFCURVE",
"806 0 OFFCURVE",
"846 0 CURVE SMOOTH",
"1006 0 LINE SMOOTH",
"1046 0 OFFCURVE",
"1066 20 OFFCURVE",
"1066 60 CURVE SMOOTH",
"1066 614 LINE SMOOTH",
"1066 787 OFFCURVE",
"1032 907 OFFCURVE",
"964 972 CURVE SMOOTH",
"896 1037 OFFCURVE",
"810 1070 OFFCURVE",
"706 1070 CURVE SMOOTH",
"573 1070 OFFCURVE",
"479 1037 OFFCURVE",
"418 932 CURVE",
"412 932 LINE",
"415 959 OFFCURVE",
"416 985 OFFCURVE",
"416 1012 CURVE SMOOTH",
"416 1416 LINE SMOOTH",
"416 1456 OFFCURVE",
"396 1476 OFFCURVE",
"356 1476 CURVE SMOOTH",
"196 1476 LINE SMOOTH",
"156 1476 OFFCURVE",
"136 1456 OFFCURVE",
"136 1416 CURVE SMOOTH",
"136 60 LINE SMOOTH",
"136 20 OFFCURVE",
"156 0 OFFCURVE",
"196 0 CURVE SMOOTH"
);
}
);
width = 1200;
}
);
unicode = 0068;
},
{
glyphname = hbar;
lastChange = "2016-10-15 02:31:49 +0000";
layers = (
{
layerId = UUID0;
paths = (
{
closed = 1;
nodes = (
"212 1208 LINE",
"212 45 LINE SMOOTH",
"212 15 OFFCURVE",
"227 0 OFFCURVE",
"257 0 CURVE SMOOTH",
"343 0 LINE SMOOTH",
"373 0 OFFCURVE",
"388 15 OFFCURVE",
"388 45 CURVE SMOOTH",
"388 594 LINE SMOOTH",
"388 848 OFFCURVE",
"481 937 OFFCURVE",
"652 937 CURVE SMOOTH",
"719 937 OFFCURVE",
"774 919 OFFCURVE",
"817 884 CURVE SMOOTH",
"860 849 OFFCURVE",
"882 767 OFFCURVE",
"882 636 CURVE SMOOTH",
"882 45 LINE SMOOTH",
"882 15 OFFCURVE",
"897 0 OFFCURVE",
"927 0 CURVE SMOOTH",
"1013 0 LINE SMOOTH",
"1043 0 OFFCURVE",
"1058 15 OFFCURVE",
"1058 45 CURVE SMOOTH",
"1058 684 LINE SMOOTH",
"1058 919 OFFCURVE",
"960 1067 OFFCURVE",
"717 1067 CURVE SMOOTH",
"566 1067 OFFCURVE",
"477 1022 OFFCURVE",
"390 925 CURVE",
"386 925 LINE",
"387 945 OFFCURVE",
"388 965 OFFCURVE",
"388 985 CURVE SMOOTH",
"388 1208 LINE",
"751 1208 LINE SMOOTH",
"781 1208 OFFCURVE",
"796 1220 OFFCURVE",
"796 1243 CURVE SMOOTH",
"796 1305 LINE SMOOTH",
"796 1328 OFFCURVE",
"781 1340 OFFCURVE",
"751 1340 CURVE SMOOTH",
"388 1340 LINE",
"388 1431 LINE SMOOTH",
"388 1461 OFFCURVE",
"373 1476 OFFCURVE",
"343 1476 CURVE SMOOTH",
"257 1476 LINE SMOOTH",
"227 1476 OFFCURVE",
"212 1461 OFFCURVE",
"212 1431 CURVE SMOOTH",
"212 1340 LINE",
"75 1340 LINE SMOOTH",
"45 1340 OFFCURVE",
"30 1328 OFFCURVE",
"30 1305 CURVE SMOOTH",
"30 1243 LINE SMOOTH",
"30 1220 OFFCURVE",
"45 1208 OFFCURVE",
"75 1208 CURVE SMOOTH"
);
}
);
width = 1198;
},
{
layerId = "39B5C782-31E0-4FF6-90B4-6BA13107E116";
paths = (
{
closed = 1;
nodes = (
"168 1180 LINE",
"168 60 LINE SMOOTH",
"168 20 OFFCURVE",
"188 0 OFFCURVE",
"228 0 CURVE SMOOTH",
"388 0 LINE SMOOTH",
"428 0 OFFCURVE",
"448 20 OFFCURVE",
"448 60 CURVE SMOOTH",
"448 454 LINE SMOOTH",
"448 625 OFFCURVE",
"466 738 OFFCURVE",
"501 792 CURVE SMOOTH",
"536 847 OFFCURVE",
"589 874 OFFCURVE",
"659 874 CURVE SMOOTH",
"725 874 OFFCURVE",
"768 855 OFFCURVE",
"788 817 CURVE SMOOTH",
"808 779 OFFCURVE",
"818 687 OFFCURVE",
"818 542 CURVE SMOOTH",
"818 60 LINE SMOOTH",
"818 20 OFFCURVE",
"838 0 OFFCURVE",
"878 0 CURVE SMOOTH",
"1038 0 LINE SMOOTH",
"1078 0 OFFCURVE",
"1098 20 OFFCURVE",
"1098 60 CURVE SMOOTH",
"1098 614 LINE SMOOTH",
"1098 787 OFFCURVE",
"1064 907 OFFCURVE",
"996 972 CURVE SMOOTH",
"928 1037 OFFCURVE",
"842 1070 OFFCURVE",
"738 1070 CURVE SMOOTH",
"605 1070 OFFCURVE",
"511 1037 OFFCURVE",
"450 932 CURVE",
"444 932 LINE",
"447 959 OFFCURVE",
"448 985 OFFCURVE",
"448 1012 CURVE SMOOTH",
"448 1180 LINE",
"791 1180 LINE SMOOTH",
"831 1180 OFFCURVE",
"851 1197 OFFCURVE",
"851 1230 CURVE SMOOTH",
"851 1330 LINE SMOOTH",
"851 1363 OFFCURVE",
"831 1380 OFFCURVE",
"791 1380 CURVE SMOOTH",
"448 1380 LINE",
"448 1416 LINE SMOOTH",
"448 1456 OFFCURVE",
"428 1476 OFFCURVE",
"388 1476 CURVE SMOOTH",
"228 1476 LINE SMOOTH",
"188 1476 OFFCURVE",
"168 1456 OFFCURVE",
"168 1416 CURVE SMOOTH",
"168 1380 LINE",
"77 1380 LINE SMOOTH",
"37 1380 OFFCURVE",
"17 1363 OFFCURVE",
"17 1330 CURVE SMOOTH",
"17 1230 LINE SMOOTH",
"17 1197 OFFCURVE",
"37 1180 OFFCURVE",
"77 1180 CURVE SMOOTH"
);
}
);
width = 1232;
}
);
unicode = 0127;
},
{
glyphname = dotlessi;
lastChange = "2016-10-15 02:31:49 +0000";
layers = (
{
layerId = UUID0;
paths = (
{
closed = 1;
nodes = (
"273 0 LINE SMOOTH",
"303 0 OFFCURVE",
"318 15 OFFCURVE",
"318 45 CURVE SMOOTH",
"318 1005 LINE SMOOTH",
"318 1035 OFFCURVE",
"303 1050 OFFCURVE",
"273 1050 CURVE SMOOTH",
"187 1050 LINE SMOOTH",
"157 1050 OFFCURVE",
"142 1035 OFFCURVE",
"142 1005 CURVE SMOOTH",
"142 45 LINE SMOOTH",
"142 15 OFFCURVE",
"157 0 OFFCURVE",
"187 0 CURVE SMOOTH"
);
}
);
width = 460;
},
{
layerId = "39B5C782-31E0-4FF6-90B4-6BA13107E116";
paths = (
{
closed = 1;
nodes = (
"356 0 LINE SMOOTH",
"396 0 OFFCURVE",
"416 20 OFFCURVE",
"416 60 CURVE SMOOTH",
"416 990 LINE SMOOTH",
"416 1030 OFFCURVE",
"396 1050 OFFCURVE",
"356 1050 CURVE SMOOTH",
"196 1050 LINE SMOOTH",
"156 1050 OFFCURVE",
"136 1030 OFFCURVE",
"136 990 CURVE SMOOTH",
"136 60 LINE SMOOTH",
"136 20 OFFCURVE",
"156 0 OFFCURVE",
"196 0 CURVE SMOOTH"
);
}
);
width = 552;
}
);
unicode = 0131;
},
{
glyphname = uni0237;
lastChange = "2016-10-15 02:31:49 +0000";
layers = (
{
layerId = UUID0;
paths = (
{
closed = 1;
nodes = (
"-53 -410 OFFCURVE",
"-3 -417 OFFCURVE",
"68 -417 CURVE SMOOTH",
"141 -417 OFFCURVE",
"201 -395 OFFCURVE",
"250 -352 CURVE SMOOTH",
"299 -309 OFFCURVE",
"324 -222 OFFCURVE",
"324 -93 CURVE SMOOTH",
"324 1005 LINE SMOOTH",
"324 1035 OFFCURVE",
"309 1050 OFFCURVE",
"279 1050 CURVE SMOOTH",
"193 1050 LINE SMOOTH",
"163 1050 OFFCURVE",
"148 1035 OFFCURVE",
"148 1005 CURVE SMOOTH",
"148 6 LINE SMOOTH",
"148 -234 OFFCURVE",
"113 -287 OFFCURVE",
"36 -287 CURVE SMOOTH",
"-2 -287 OFFCURVE",
"-34 -281 OFFCURVE",
"-60 -269 CURVE SMOOTH",
"-64 -267 OFFCURVE",
"-67 -267 OFFCURVE",
"-70 -267 CURVE SMOOTH",
"-78 -267 OFFCURVE",
"-83 -272 OFFCURVE",
"-85 -284 CURVE SMOOTH",
"-102 -365 LINE SMOOTH",
"-103 -368 OFFCURVE",
"-103 -370 OFFCURVE",
"-103 -372 CURVE SMOOTH",
"-103 -383 OFFCURVE",
"-97 -391 OFFCURVE",
"-84 -397 CURVE SMOOTH"
);
}
);
width = 466;
},
{
layerId = "39B5C782-31E0-4FF6-90B4-6BA13107E116";
paths = (
{
closed = 1;
nodes = (
"-40 -416 OFFCURVE",
"10 -420 OFFCURVE",
"70 -420 CURVE SMOOTH",
"178 -420 OFFCURVE",
"264 -392 OFFCURVE",
"329 -336 CURVE SMOOTH",
"394 -280 OFFCURVE",
"426 -169 OFFCURVE",
"426 -4 CURVE SMOOTH",
"426 990 LINE SMOOTH",
"426 1030 OFFCURVE",
"406 1050 OFFCURVE",
"366 1050 CURVE SMOOTH",
"206 1050 LINE SMOOTH",
"166 1050 OFFCURVE",
"146 1030 OFFCURVE",
"146 990 CURVE SMOOTH",
"146 26 LINE SMOOTH",
"146 -131 OFFCURVE",
"119 -224 OFFCURVE",
"35 -224 CURVE SMOOTH",
"-27 -224 OFFCURVE",
"-42 -213 OFFCURVE",
"-57 -213 CURVE SMOOTH",
"-73 -213 OFFCURVE",
"-84 -224 OFFCURVE",
"-88 -247 CURVE SMOOTH",
"-110 -357 LINE SMOOTH",
"-111 -363 OFFCURVE",
"-112 -368 OFFCURVE",
"-112 -373 CURVE SMOOTH",
"-112 -393 OFFCURVE",
"-101 -405 OFFCURVE",
"-81 -409 CURVE SMOOTH"
);
}
);
width = 562;
}
);
unicode = 0237;
},
{
glyphname = k;
lastChange = "2016-10-15 02:31:49 +0000";
layers = (
{
layerId = UUID0;
paths = (
{
closed = 1;
nodes = (
"273 0 LINE SMOOTH",
"303 0 OFFCURVE",
"318 15 OFFCURVE",
"318 45 CURVE SMOOTH",
"318 306 LINE",
"469 486 LINE",
"757 37 LINE SMOOTH",
"773 12 OFFCURVE",
"792 0 OFFCURVE",
"814 0 CURVE SMOOTH",
"912 0 LINE SMOOTH",
"939 0 OFFCURVE",
"952 8 OFFCURVE",
"952 23 CURVE SMOOTH",
"952 32 OFFCURVE",
"947 44 OFFCURVE",
"938 59 CURVE SMOOTH",
"579 617 LINE",
"893 991 LINE SMOOTH",
"906 1006 OFFCURVE",
"913 1019 OFFCURVE",
"913 1028 CURVE SMOOTH",
"913 1043 OFFCURVE",
"898 1050 OFFCURVE",
"867 1050 CURVE SMOOTH",
"776 1050 LINE SMOOTH",
"755 1050 OFFCURVE",
"737 1041 OFFCURVE",
"723 1024 CURVE SMOOTH",
"318 539 LINE",
"316 539 LINE",
"317 559 OFFCURVE",
"318 579 OFFCURVE",
"318 599 CURVE SMOOTH",
"318 1431 LINE SMOOTH",
"318 1461 OFFCURVE",
"303 1476 OFFCURVE",
"273 1476 CURVE SMOOTH",
"187 1476 LINE SMOOTH",
"157 1476 OFFCURVE",
"142 1461 OFFCURVE",
"142 1431 CURVE SMOOTH",
"142 45 LINE SMOOTH",
"142 15 OFFCURVE",
"157 0 OFFCURVE",
"187 0 CURVE SMOOTH"
);
}
);
width = 1003;
},
{
layerId = "39B5C782-31E0-4FF6-90B4-6BA13107E116";
paths = (
{
closed = 1;
nodes = (
"356 0 LINE SMOOTH",
"396 0 OFFCURVE",
"416 20 OFFCURVE",
"416 60 CURVE SMOOTH",
"416 264 LINE",
"543 417 LINE",
"770 52 LINE SMOOTH",
"791 17 OFFCURVE",
"818 0 OFFCURVE",
"852 0 CURVE SMOOTH",
"1023 0 LINE SMOOTH",
"1056 0 OFFCURVE",
"1072 10 OFFCURVE",
"1072 29 CURVE SMOOTH",
"1072 40 OFFCURVE",
"1066 55 OFFCURVE",
"1054 74 CURVE SMOOTH",
"704 611 LINE",
"1006 976 LINE SMOOTH",
"1022 995 OFFCURVE",
"1030 1011 OFFCURVE",
"1030 1023 CURVE SMOOTH",
"1030 1041 OFFCURVE",
"1012 1050 OFFCURVE",
"975 1050 CURVE SMOOTH",
"811 1050 LINE SMOOTH",
"780 1050 OFFCURVE",
"754 1036 OFFCURVE",
"733 1009 CURVE SMOOTH",
"416 601 LINE",
"412 601 LINE",
"415 628 OFFCURVE",
"416 654 OFFCURVE",
"416 681 CURVE SMOOTH",
"416 1416 LINE SMOOTH",
"416 1456 OFFCURVE",
"396 1476 OFFCURVE",
"356 1476 CURVE SMOOTH",
"196 1476 LINE SMOOTH",
"156 1476 OFFCURVE",
"136 1456 OFFCURVE",
"136 1416 CURVE SMOOTH",
"136 60 LINE SMOOTH",
"136 20 OFFCURVE",
"156 0 OFFCURVE",
"196 0 CURVE SMOOTH"
);
}
);
width = 1115;
}
);
unicode = 006B;
},
{
glyphname = l;
lastChange = "2016-10-15 02:31:49 +0000";
layers = (
{
layerId = UUID0;
paths = (
{
closed = 1;
nodes = (
"273 0 LINE SMOOTH",
"303 0 OFFCURVE",
"318 15 OFFCURVE",
"318 45 CURVE SMOOTH",
"318 1458 LINE SMOOTH",
"318 1481 OFFCURVE",
"308 1493 OFFCURVE",
"288 1493 CURVE SMOOTH",
"253 1493 LINE SMOOTH",
"245 1493 OFFCURVE",
"235 1481 OFFCURVE",
"222 1458 CURVE SMOOTH",
"152 1331 LINE SMOOTH",
"145 1319 OFFCURVE",
"142 1306 OFFCURVE",
"142 1293 CURVE SMOOTH",
"142 45 LINE SMOOTH",
"142 15 OFFCURVE",
"157 0 OFFCURVE",
"187 0 CURVE SMOOTH"
);
}
);
width = 460;
},
{
layerId = "39B5C782-31E0-4FF6-90B4-6BA13107E116";
paths = (
{
closed = 1;
nodes = (
"356 0 LINE SMOOTH",
"396 0 OFFCURVE",
"416 20 OFFCURVE",
"416 60 CURVE SMOOTH",
"416 1436 LINE SMOOTH",
"416 1476 OFFCURVE",
"396 1496 OFFCURVE",
"356 1496 CURVE SMOOTH",
"286 1496 LINE SMOOTH",
"266 1496 OFFCURVE",
"248 1483 OFFCURVE",
"234 1458 CURVE SMOOTH",
"157 1323 LINE SMOOTH",
"143 1298 OFFCURVE",
"136 1271 OFFCURVE",
"136 1241 CURVE SMOOTH",
"136 60 LINE SMOOTH",
"136 20 OFFCURVE",
"156 0 OFFCURVE",
"196 0 CURVE SMOOTH"
);
}
);
width = 552;
}
);
unicode = 006C;
},
{
glyphname = lslash;
lastChange = "2016-10-15 02:31:49 +0000";
layers = (
{
layerId = UUID0;
paths = (
{
closed = 1;
nodes = (
"242 629 LINE",
"244 629 LINE",
"243 609 OFFCURVE",
"242 589 OFFCURVE",
"242 569 CURVE SMOOTH",
"242 45 LINE SMOOTH",
"242 15 OFFCURVE",
"257 0 OFFCURVE",
"287 0 CURVE SMOOTH",
"373 0 LINE SMOOTH",
"403 0 OFFCURVE",
"418 15 OFFCURVE",
"418 45 CURVE SMOOTH",
"418 764 LINE",
"587 887 LINE SMOOTH",
"609 903 OFFCURVE",
"620 923 OFFCURVE",
"620 947 CURVE SMOOTH",
"620 1045 LINE SMOOTH",
"620 1062 OFFCURVE",
"615 1071 OFFCURVE",
"605 1071 CURVE SMOOTH",
"598 1071 OFFCURVE",
"588 1066 OFFCURVE",
"575 1057 CURVE SMOOTH",
"418 942 LINE",
"416 942 LINE",
"417 962 OFFCURVE",
"418 982 OFFCURVE",
"418 1002 CURVE SMOOTH",
"418 1458 LINE SMOOTH",
"418 1479 OFFCURVE",
"408 1493 OFFCURVE",
"388 1493 CURVE SMOOTH",
"353 1493 LINE SMOOTH",
"345 1493 OFFCURVE",
"335 1481 OFFCURVE",
"322 1458 CURVE SMOOTH",
"252 1331 LINE SMOOTH",
"245 1319 OFFCURVE",
"242 1306 OFFCURVE",
"242 1293 CURVE SMOOTH",
"242 807 LINE",
"73 684 LINE SMOOTH",
"51 668 OFFCURVE",
"40 648 OFFCURVE",
"40 623 CURVE SMOOTH",
"40 525 LINE SMOOTH",
"40 508 OFFCURVE",
"45 500 OFFCURVE",
"55 500 CURVE SMOOTH",
"62 500 OFFCURVE",
"72 504 OFFCURVE",
"85 514 CURVE SMOOTH"
);
}
);
width = 660;
},
{
layerId = "39B5C782-31E0-4FF6-90B4-6BA13107E116";
paths = (
{
closed = 1;
nodes = (
"201 555 LINE",
"205 555 LINE",
"202 528 OFFCURVE",
"201 502 OFFCURVE",
"201 475 CURVE SMOOTH",
"201 60 LINE SMOOTH",
"201 20 OFFCURVE",
"221 0 OFFCURVE",
"261 0 CURVE SMOOTH",
"421 0 LINE SMOOTH",
"461 0 OFFCURVE",
"481 20 OFFCURVE",
"481 60 CURVE SMOOTH",
"481 766 LINE",
"613 862 LINE SMOOTH",
"642 883 OFFCURVE",
"656 908 OFFCURVE",
"656 938 CURVE SMOOTH",
"656 1080 LINE SMOOTH",
"656 1102 OFFCURVE",
"650 1113 OFFCURVE",
"637 1113 CURVE SMOOTH",
"628 1113 OFFCURVE",
"616 1107 OFFCURVE",
"601 1096 CURVE SMOOTH",
"481 1008 LINE",
"477 1008 LINE",
"480 1035 OFFCURVE",
"481 1061 OFFCURVE",
"481 1088 CURVE SMOOTH",
"481 1436 LINE SMOOTH",
"481 1476 OFFCURVE",
"461 1496 OFFCURVE",
"421 1496 CURVE SMOOTH",
"351 1496 LINE SMOOTH",
"331 1496 OFFCURVE",
"313 1483 OFFCURVE",
"299 1458 CURVE SMOOTH",
"222 1323 LINE SMOOTH",
"208 1298 OFFCURVE",
"201 1271 OFFCURVE",
"201 1241 CURVE SMOOTH",
"201 797 LINE",
"79 707 LINE SMOOTH",
"50 686 OFFCURVE",
"36 660 OFFCURVE",
"36 630 CURVE SMOOTH",
"36 488 LINE SMOOTH",
"36 466 OFFCURVE",
"42 456 OFFCURVE",
"54 456 CURVE SMOOTH",
"63 456 OFFCURVE",
"75 461 OFFCURVE",
"91 473 CURVE SMOOTH"
);
}
);
width = 692;
}
);
unicode = 0142;
},
{
glyphname = m;
lastChange = "2016-10-15 02:31:49 +0000";
layers = (
{
layerId = UUID0;
paths = (
{
closed = 1;
nodes = (
"273 0 LINE SMOOTH",
"303 0 OFFCURVE",
"318 15 OFFCURVE",
"318 45 CURVE SMOOTH",
"318 594 LINE SMOOTH",
"318 849 OFFCURVE",
"423 937 OFFCURVE",
"552 937 CURVE SMOOTH",
"620 937 OFFCURVE",
"670 918 OFFCURVE",
"703 879 CURVE SMOOTH",
"736 841 OFFCURVE",
"752 757 OFFCURVE",
"752 626 CURVE SMOOTH",
"752 45 LINE SMOOTH",
"752 15 OFFCURVE",
"767 0 OFFCURVE",
"797 0 CURVE SMOOTH",
"883 0 LINE SMOOTH",
"913 0 OFFCURVE",
"928 15 OFFCURVE",
"928 45 CURVE SMOOTH",
"928 594 LINE SMOOTH",
"928 824 OFFCURVE",
"1031 937 OFFCURVE",
"1162 937 CURVE SMOOTH",
"1230 937 OFFCURVE",
"1280 918 OFFCURVE",
"1313 879 CURVE SMOOTH",
"1346 841 OFFCURVE",
"1362 757 OFFCURVE",
"1362 626 CURVE SMOOTH",
"1362 45 LINE SMOOTH",
"1362 15 OFFCURVE",
"1377 0 OFFCURVE",
"1407 0 CURVE SMOOTH",
"1493 0 LINE SMOOTH",
"1523 0 OFFCURVE",
"1538 15 OFFCURVE",
"1538 45 CURVE SMOOTH",
"1538 684 LINE SMOOTH",
"1538 920 OFFCURVE",
"1429 1067 OFFCURVE",
"1217 1067 CURVE SMOOTH",
"1091 1067 OFFCURVE",
"972 981 OFFCURVE",
"899 873 CURVE",
"895 873 LINE",
"870 954 OFFCURVE",
"781 1067 OFFCURVE",
"607 1067 CURVE SMOOTH",
"514 1067 OFFCURVE",
"407 1021 OFFCURVE",
"320 925 CURVE",
"316 925 LINE",
"316 1005 LINE SMOOTH",
"316 1035 OFFCURVE",
"301 1050 OFFCURVE",
"271 1050 CURVE SMOOTH",
"187 1050 LINE SMOOTH",
"157 1050 OFFCURVE",
"142 1035 OFFCURVE",
"142 1005 CURVE SMOOTH",
"142 45 LINE SMOOTH",
"142 15 OFFCURVE",
"157 0 OFFCURVE",
"187 0 CURVE SMOOTH"
);
}
);
width = 1678;
},
{
layerId = "39B5C782-31E0-4FF6-90B4-6BA13107E116";
paths = (
{
closed = 1;
nodes = (
"356 0 LINE SMOOTH",
"396 0 OFFCURVE",
"416 20 OFFCURVE",
"416 60 CURVE SMOOTH",
"416 454 LINE SMOOTH",
"416 625 OFFCURVE",
"435 738 OFFCURVE",
"474 792 CURVE SMOOTH",
"513 847 OFFCURVE",
"555 874 OFFCURVE",
"602 874 CURVE SMOOTH",
"652 874 OFFCURVE",
"686 855 OFFCURVE",
"706 817 CURVE SMOOTH",
"726 779 OFFCURVE",
"736 687 OFFCURVE",
"736 542 CURVE SMOOTH",
"736 60 LINE SMOOTH",
"736 20 OFFCURVE",
"756 0 OFFCURVE",
"796 0 CURVE SMOOTH",
"956 0 LINE SMOOTH",
"996 0 OFFCURVE",
"1016 20 OFFCURVE",
"1016 60 CURVE SMOOTH",
"1016 454 LINE SMOOTH",
"1016 625 OFFCURVE",
"1035 737 OFFCURVE",
"1074 792 CURVE SMOOTH",
"1113 847 OFFCURVE",
"1155 874 OFFCURVE",
"1202 874 CURVE SMOOTH",
"1252 874 OFFCURVE",
"1286 855 OFFCURVE",
"1306 817 CURVE SMOOTH",
"1326 779 OFFCURVE",
"1336 687 OFFCURVE",
"1336 542 CURVE SMOOTH",
"1336 60 LINE SMOOTH",
"1336 20 OFFCURVE",
"1356 0 OFFCURVE",
"1396 0 CURVE SMOOTH",
"1556 0 LINE SMOOTH",
"1596 0 OFFCURVE",
"1616 20 OFFCURVE",
"1616 60 CURVE SMOOTH",
"1616 614 LINE SMOOTH",
"1616 787 OFFCURVE",
"1582 907 OFFCURVE",
"1514 972 CURVE SMOOTH",
"1446 1037 OFFCURVE",
"1364 1070 OFFCURVE",
"1265 1070 CURVE SMOOTH",
"1115 1070 OFFCURVE",
"1045 1042 OFFCURVE",
"927 889 CURVE",
"923 889 LINE",
"890 978 OFFCURVE",
"807 1070 OFFCURVE",
"645 1070 CURVE SMOOTH",
"568 1070 OFFCURVE",
"455 1017 OFFCURVE",
"418 932 CURVE",
"414 932 LINE",
"414 990 LINE SMOOTH",
"414 1030 OFFCURVE",
"394 1050 OFFCURVE",
"354 1050 CURVE SMOOTH",
"196 1050 LINE SMOOTH",
"156 1050 OFFCURVE",
"136 1030 OFFCURVE",
"136 990 CURVE SMOOTH",
"136 60 LINE SMOOTH",
"136 20 OFFCURVE",
"156 0 OFFCURVE",
"196 0 CURVE SMOOTH"
);
}
);
width = 1750;
}
);
unicode = 006D;
},
{
glyphname = n;
lastChange = "2016-10-15 02:31:49 +0000";
layers = (
{
layerId = UUID0;
paths = (
{
closed = 1;
nodes = (
"273 0 LINE SMOOTH",
"303 0 OFFCURVE",
"318 15 OFFCURVE",
"318 45 CURVE SMOOTH",
"318 594 LINE SMOOTH",
"318 848 OFFCURVE",
"411 937 OFFCURVE",
"582 937 CURVE SMOOTH",
"649 937 OFFCURVE",
"704 919 OFFCURVE",
"747 884 CURVE SMOOTH",
"790 849 OFFCURVE",
"812 767 OFFCURVE",
"812 636 CURVE SMOOTH",
"812 45 LINE SMOOTH",
"812 15 OFFCURVE",
"827 0 OFFCURVE",
"857 0 CURVE SMOOTH",
"943 0 LINE SMOOTH",
"973 0 OFFCURVE",
"988 15 OFFCURVE",
"988 45 CURVE SMOOTH",
"988 684 LINE SMOOTH",
"988 919 OFFCURVE",
"890 1067 OFFCURVE",
"647 1067 CURVE SMOOTH",
"496 1067 OFFCURVE",
"407 1022 OFFCURVE",
"320 925 CURVE",
"316 925 LINE",
"316 1005 LINE SMOOTH",
"316 1035 OFFCURVE",
"301 1050 OFFCURVE",
"271 1050 CURVE SMOOTH",
"187 1050 LINE SMOOTH",
"157 1050 OFFCURVE",
"142 1035 OFFCURVE",
"142 1005 CURVE SMOOTH",
"142 45 LINE SMOOTH",
"142 15 OFFCURVE",
"157 0 OFFCURVE",
"187 0 CURVE SMOOTH"
);
}
);
width = 1128;
},
{
layerId = "39B5C782-31E0-4FF6-90B4-6BA13107E116";
paths = (
{
closed = 1;
nodes = (
"356 0 LINE SMOOTH",
"396 0 OFFCURVE",
"416 20 OFFCURVE",
"416 60 CURVE SMOOTH",
"416 454 LINE SMOOTH",
"416 625 OFFCURVE",
"434 738 OFFCURVE",
"469 792 CURVE SMOOTH",
"504 847 OFFCURVE",
"557 874 OFFCURVE",
"627 874 CURVE SMOOTH",
"693 874 OFFCURVE",
"736 855 OFFCURVE",
"756 817 CURVE SMOOTH",
"776 779 OFFCURVE",
"786 687 OFFCURVE",
"786 542 CURVE SMOOTH",
"786 60 LINE SMOOTH",
"786 20 OFFCURVE",
"806 0 OFFCURVE",
"846 0 CURVE SMOOTH",
"1006 0 LINE SMOOTH",
"1046 0 OFFCURVE",
"1066 20 OFFCURVE",
"1066 60 CURVE SMOOTH",
"1066 614 LINE SMOOTH",
"1066 787 OFFCURVE",
"1032 907 OFFCURVE",
"964 972 CURVE SMOOTH",
"896 1037 OFFCURVE",
"810 1070 OFFCURVE",
"706 1070 CURVE SMOOTH",
"573 1070 OFFCURVE",
"479 1037 OFFCURVE",
"418 932 CURVE",
"414 932 LINE",
"414 990 LINE SMOOTH",
"414 1030 OFFCURVE",
"394 1050 OFFCURVE",
"354 1050 CURVE SMOOTH",
"196 1050 LINE SMOOTH",
"156 1050 OFFCURVE",
"136 1030 OFFCURVE",
"136 990 CURVE SMOOTH",
"136 60 LINE SMOOTH",
"136 20 OFFCURVE",
"156 0 OFFCURVE",
"196 0 CURVE SMOOTH"
);
}
);
width = 1200;
}
);
unicode = 006E;
},
{
glyphname = eng;
lastChange = "2016-10-15 02:31:49 +0000";
layers = (
{
layerId = UUID0;
paths = (
{
closed = 1;
nodes = (
"273 0 LINE SMOOTH",
"303 0 OFFCURVE",
"318 15 OFFCURVE",
"318 45 CURVE SMOOTH",
"318 594 LINE SMOOTH",
"318 848 OFFCURVE",
"411 937 OFFCURVE",
"582 937 CURVE SMOOTH",
"649 937 OFFCURVE",
"704 919 OFFCURVE",
"747 884 CURVE SMOOTH",
"790 849 OFFCURVE",
"812 767 OFFCURVE",
"812 636 CURVE SMOOTH",
"812 6 LINE SMOOTH",
"812 -234 OFFCURVE",
"777 -287 OFFCURVE",
"700 -287 CURVE SMOOTH",
"662 -287 OFFCURVE",
"630 -281 OFFCURVE",
"604 -269 CURVE SMOOTH",
"600 -267 OFFCURVE",
"597 -267 OFFCURVE",
"594 -267 CURVE SMOOTH",
"586 -267 OFFCURVE",
"581 -272 OFFCURVE",
"579 -284 CURVE SMOOTH",
"562 -365 LINE SMOOTH",
"561 -368 OFFCURVE",
"561 -370 OFFCURVE",
"561 -372 CURVE SMOOTH",
"561 -405 OFFCURVE",
"635 -417 OFFCURVE",
"732 -417 CURVE SMOOTH",
"805 -417 OFFCURVE",
"865 -395 OFFCURVE",
"914 -352 CURVE SMOOTH",
"963 -309 OFFCURVE",
"988 -222 OFFCURVE",
"988 -93 CURVE SMOOTH",
"988 684 LINE SMOOTH",
"988 919 OFFCURVE",
"890 1067 OFFCURVE",
"647 1067 CURVE SMOOTH",
"496 1067 OFFCURVE",
"407 1022 OFFCURVE",
"320 925 CURVE",
"316 925 LINE",
"316 1005 LINE SMOOTH",
"316 1035 OFFCURVE",
"301 1050 OFFCURVE",
"271 1050 CURVE SMOOTH",
"187 1050 LINE SMOOTH",
"157 1050 OFFCURVE",
"142 1035 OFFCURVE",
"142 1005 CURVE SMOOTH",
"142 45 LINE SMOOTH",
"142 15 OFFCURVE",
"157 0 OFFCURVE",
"187 0 CURVE SMOOTH"
);
}
);
width = 1128;
},
{
layerId = "39B5C782-31E0-4FF6-90B4-6BA13107E116";
paths = (
{
closed = 1;
nodes = (
"356 0 LINE SMOOTH",
"396 0 OFFCURVE",
"416 20 OFFCURVE",
"416 60 CURVE SMOOTH",
"416 454 LINE SMOOTH",
"416 625 OFFCURVE",
"434 738 OFFCURVE",
"469 792 CURVE SMOOTH",
"504 847 OFFCURVE",
"557 874 OFFCURVE",
"627 874 CURVE SMOOTH",
"693 874 OFFCURVE",
"736 855 OFFCURVE",
"756 817 CURVE SMOOTH",
"776 779 OFFCURVE",
"786 687 OFFCURVE",
"786 542 CURVE SMOOTH",
"786 26 LINE SMOOTH",
"786 -131 OFFCURVE",
"759 -224 OFFCURVE",
"675 -224 CURVE SMOOTH",
"613 -224 OFFCURVE",
"598 -213 OFFCURVE",
"583 -213 CURVE SMOOTH",
"567 -213 OFFCURVE",
"556 -224 OFFCURVE",
"552 -247 CURVE SMOOTH",
"530 -357 LINE SMOOTH",
"529 -363 OFFCURVE",
"528 -368 OFFCURVE",
"528 -373 CURVE SMOOTH",
"528 -423 OFFCURVE",
"626 -420 OFFCURVE",
"710 -420 CURVE SMOOTH",
"818 -420 OFFCURVE",
"904 -392 OFFCURVE",
"969 -336 CURVE SMOOTH",
"1034 -280 OFFCURVE",
"1066 -169 OFFCURVE",
"1066 -4 CURVE SMOOTH",
"1066 614 LINE SMOOTH",
"1066 787 OFFCURVE",
"1032 907 OFFCURVE",
"964 972 CURVE SMOOTH",
"896 1037 OFFCURVE",
"810 1070 OFFCURVE",
"706 1070 CURVE SMOOTH",
"573 1070 OFFCURVE",
"479 1037 OFFCURVE",
"418 932 CURVE",
"414 932 LINE",
"414 990 LINE SMOOTH",
"414 1030 OFFCURVE",
"394 1050 OFFCURVE",
"354 1050 CURVE SMOOTH",
"196 1050 LINE SMOOTH",
"156 1050 OFFCURVE",
"136 1030 OFFCURVE",
"136 990 CURVE SMOOTH",
"136 60 LINE SMOOTH",
"136 20 OFFCURVE",
"156 0 OFFCURVE",
"196 0 CURVE SMOOTH"
);
}
);
width = 1200;
}
);
unicode = 014B;
},
{
glyphname = o;
lastChange = "2016-10-15 02:31:49 +0000";
layers = (
{
layerId = UUID0;
paths = (
{
closed = 1;
nodes = (
"85 217 OFFCURVE",
"249 -17 OFFCURVE",
"574 -17 CURVE SMOOTH",
"897 -17 OFFCURVE",
"1063 218 OFFCURVE",
"1063 525 CURVE SMOOTH",
"1063 834 OFFCURVE",
"895 1067 OFFCURVE",
"574 1067 CURVE SMOOTH",
"252 1067 OFFCURVE",
"85 835 OFFCURVE",
"85 525 CURVE SMOOTH"
);
},
{
closed = 1;
nodes = (
"271 807 OFFCURVE",
"393 937 OFFCURVE",
"574 937 CURVE SMOOTH",
"755 937 OFFCURVE",
"877 807 OFFCURVE",
"877 525 CURVE SMOOTH",
"877 243 OFFCURVE",
"755 113 OFFCURVE",
"574 113 CURVE SMOOTH",
"393 113 OFFCURVE",
"271 243 OFFCURVE",
"271 525 CURVE SMOOTH"
);
}
);
width = 1148;
},
{
layerId = "39B5C782-31E0-4FF6-90B4-6BA13107E116";
paths = (
{
closed = 1;
nodes = (
"80 186 OFFCURVE",
"256 -20 OFFCURVE",
"603 -20 CURVE SMOOTH",
"951 -20 OFFCURVE",
"1126 189 OFFCURVE",
"1126 525 CURVE SMOOTH",
"1126 861 OFFCURVE",
"951 1070 OFFCURVE",
"603 1070 CURVE SMOOTH",
"256 1070 OFFCURVE",
"80 864 OFFCURVE",
"80 525 CURVE SMOOTH"
);
},
{
closed = 1;
nodes = (
"376 782 OFFCURVE",
"458 874 OFFCURVE",
"603 874 CURVE SMOOTH",
"747 874 OFFCURVE",
"830 781 OFFCURVE",
"830 525 CURVE SMOOTH",
"830 269 OFFCURVE",
"748 176 OFFCURVE",
"603 176 CURVE SMOOTH",
"457 176 OFFCURVE",
"376 268 OFFCURVE",
"376 525 CURVE SMOOTH"
);
}
);
width = 1206;
}
);
unicode = 006F;
},
{
glyphname = oslash;
lastChange = "2016-10-15 02:31:49 +0000";
layers = (
{
layerId = UUID0;
paths = (
{
closed = 1;
nodes = (
"85 394 OFFCURVE",
"114 282 OFFCURVE",
"172 189 CURVE",
"82 93 LINE SMOOTH",
"71 81 OFFCURVE",
"65 70 OFFCURVE",
"65 60 CURVE SMOOTH",
"65 51 OFFCURVE",
"69 43 OFFCURVE",
"77 36 CURVE SMOOTH",
"121 -4 LINE SMOOTH",
"128 -11 OFFCURVE",
"136 -14 OFFCURVE",
"143 -14 CURVE SMOOTH",
"154 -14 OFFCURVE",
"166 -8 OFFCURVE",
"178 5 CURVE SMOOTH",
"256 88 LINE",
"335 18 OFFCURVE",
"441 -17 OFFCURVE",
"574 -17 CURVE SMOOTH",
"897 -17 OFFCURVE",
"1063 218 OFFCURVE",
"1063 525 CURVE SMOOTH",
"1063 656 OFFCURVE",
"1034 768 OFFCURVE",
"976 861 CURVE",
"1066 957 LINE SMOOTH",
"1077 969 OFFCURVE",
"1083 980 OFFCURVE",
"1083 990 CURVE SMOOTH",
"1083 999 OFFCURVE",
"1079 1007 OFFCURVE",
"1071 1014 CURVE SMOOTH",
"1027 1054 LINE SMOOTH",
"1020 1061 OFFCURVE",
"1012 1064 OFFCURVE",
"1004 1064 CURVE SMOOTH",
"994 1064 OFFCURVE",
"982 1058 OFFCURVE",
"970 1045 CURVE SMOOTH",
"892 962 LINE",
"813 1032 OFFCURVE",
"707 1067 OFFCURVE",
"574 1067 CURVE SMOOTH",
"252 1067 OFFCURVE",
"85 835 OFFCURVE",
"85 525 CURVE SMOOTH"
);
},
{
closed = 1;
nodes = (
"271 807 OFFCURVE",
"393 937 OFFCURVE",
"574 937 CURVE SMOOTH",
"661 937 OFFCURVE",
"731 907 OFFCURVE",
"785 847 CURVE",
"297 324 LINE",
"280 379 OFFCURVE",
"271 446 OFFCURVE",
"271 525 CURVE SMOOTH"
);
},
{
closed = 1;
nodes = (
"851 726 LINE",
"868 670 OFFCURVE",
"877 603 OFFCURVE",
"877 525 CURVE SMOOTH",
"877 243 OFFCURVE",
"755 113 OFFCURVE",
"574 113 CURVE SMOOTH",
"487 113 OFFCURVE",
"417 143 OFFCURVE",
"363 203 CURVE"
);
}
);
width = 1148;
},
{
layerId = "39B5C782-31E0-4FF6-90B4-6BA13107E116";
paths = (
{
closed = 1;
nodes = (
"80 389 OFFCURVE",
"108 276 OFFCURVE",
"164 187 CURVE",
"108 125 LINE SMOOTH",
"94 109 OFFCURVE",
"87 95 OFFCURVE",
"87 81 CURVE SMOOTH",
"87 69 OFFCURVE",
"93 57 OFFCURVE",
"105 47 CURVE SMOOTH",
"180 -20 LINE SMOOTH",
"191 -30 OFFCURVE",
"201 -35 OFFCURVE",
"212 -35 CURVE SMOOTH",
"227 -35 OFFCURVE",
"241 -26 OFFCURVE",
"257 -9 CURVE SMOOTH",
"308 48 LINE",
"387 3 OFFCURVE",
"485 -20 OFFCURVE",
"603 -20 CURVE SMOOTH",
"951 -20 OFFCURVE",
"1126 189 OFFCURVE",
"1126 525 CURVE SMOOTH",
"1126 661 OFFCURVE",
"1098 774 OFFCURVE",
"1042 863 CURVE",
"1098 925 LINE SMOOTH",
"1112 940 OFFCURVE",
"1119 955 OFFCURVE",
"1119 968 CURVE SMOOTH",
"1119 981 OFFCURVE",
"1113 992 OFFCURVE",
"1101 1003 CURVE SMOOTH",
"1026 1070 LINE SMOOTH",
"1015 1080 OFFCURVE",
"1005 1085 OFFCURVE",
"994 1085 CURVE SMOOTH",
"979 1085 OFFCURVE",
"964 1076 OFFCURVE",
"949 1059 CURVE SMOOTH",
"898 1002 LINE",
"819 1047 OFFCURVE",
"721 1070 OFFCURVE",
"603 1070 CURVE SMOOTH",
"256 1070 OFFCURVE",
"80 864 OFFCURVE",
"80 525 CURVE SMOOTH"
);
},
{
closed = 1;
nodes = (
"376 782 OFFCURVE",
"458 874 OFFCURVE",
"603 874 CURVE SMOOTH",
"659 874 OFFCURVE",
"705 859 OFFCURVE",
"741 828 CURVE",
"381 428 LINE",
"378 457 OFFCURVE",
"376 490 OFFCURVE",
"376 525 CURVE SMOOTH"
);
},
{
closed = 1;
nodes = (
"825 622 LINE",
"828 593 OFFCURVE",
"830 560 OFFCURVE",
"830 525 CURVE SMOOTH",
"830 269 OFFCURVE",
"748 176 OFFCURVE",
"603 176 CURVE SMOOTH",
"547 176 OFFCURVE",
"501 191 OFFCURVE",
"465 222 CURVE"
);
}
);
width = 1206;
}
);
unicode = 00F8;
},
{
glyphname = oe;
lastChange = "2016-10-15 02:31:38 +0000";
layers = (
{
layerId = UUID0;
paths = (
{
closed = 1;
nodes = (
"85 217 OFFCURVE",
"249 -17 OFFCURVE",
"574 -17 CURVE SMOOTH",
"769 -17 OFFCURVE",
"895 60 OFFCURVE",
"964 173 CURVE",
"966 173 LINE",
"1033 54 OFFCURVE",
"1167 -17 OFFCURVE",
"1364 -17 CURVE SMOOTH",
"1492 -17 OFFCURVE",
"1585 4 OFFCURVE",
"1645 47 CURVE SMOOTH",
"1743 118 OFFCURVE",
"1765 145 OFFCURVE",
"1765 171 CURVE SMOOTH",
"1765 180 OFFCURVE",
"1761 188 OFFCURVE",
"1754 195 CURVE SMOOTH",
"1695 246 LINE SMOOTH",
"1687 252 OFFCURVE",
"1680 256 OFFCURVE",
"1672 256 CURVE SMOOTH",
"1626 256 OFFCURVE",
"1588 114 OFFCURVE",
"1364 114 CURVE SMOOTH",
"1221 114 OFFCURVE",
"1085 197 OFFCURVE",
"1063 458 CURVE",
"1760 458 LINE SMOOTH",
"1787 458 OFFCURVE",
"1801 473 OFFCURVE",
"1801 503 CURVE SMOOTH",
"1801 901 OFFCURVE",
"1606 1067 OFFCURVE",
"1356 1067 CURVE SMOOTH",
"1159 1067 OFFCURVE",
"1033 985 OFFCURVE",
"968 874 CURVE",
"967 874 LINE",
"898 987 OFFCURVE",
"769 1067 OFFCURVE",
"574 1067 CURVE SMOOTH",
"252 1067 OFFCURVE",
"85 835 OFFCURVE",
"85 525 CURVE SMOOTH"
);
},
{
closed = 1;
nodes = (
"271 807 OFFCURVE",
"393 937 OFFCURVE",
"574 937 CURVE SMOOTH",
"755 937 OFFCURVE",
"877 807 OFFCURVE",
"877 525 CURVE SMOOTH",
"877 243 OFFCURVE",
"755 113 OFFCURVE",
"574 113 CURVE SMOOTH",
"393 113 OFFCURVE",
"271 243 OFFCURVE",
"271 525 CURVE SMOOTH"
);
},
{
closed = 1;
nodes = (
"1059 588 LINE",
"1079 854 OFFCURVE",
"1202 939 OFFCURVE",
"1352 939 CURVE SMOOTH",
"1530 939 OFFCURVE",
"1618 769 OFFCURVE",
"1624 588 CURVE"
);
}
);
width = 1890;
}
);
unicode = 0153;
},
{
glyphname = p;
lastChange = "2016-10-15 02:31:49 +0000";
layers = (
{
layerId = UUID0;
paths = (
{
closed = 1;
nodes = (
"273 -400 LINE SMOOTH",
"303 -400 OFFCURVE",
"318 -385 OFFCURVE",
"318 -355 CURVE SMOOTH",
"318 64 LINE SMOOTH",
"318 85 OFFCURVE",
"317 105 OFFCURVE",
"316 125 CURVE",
"318 125 LINE",
"392 36 OFFCURVE",
"471 -17 OFFCURVE",
"626 -17 CURVE SMOOTH",
"759 -17 OFFCURVE",
"861 37 OFFCURVE",
"930 146 CURVE SMOOTH",
"999 255 OFFCURVE",
"1034 382 OFFCURVE",
"1034 525 CURVE SMOOTH",
"1034 668 OFFCURVE",
"999 794 OFFCURVE",
"930 903 CURVE SMOOTH",
"861 1012 OFFCURVE",
"759 1067 OFFCURVE",
"626 1067 CURVE SMOOTH",
"471 1067 OFFCURVE",
"392 1014 OFFCURVE",
"318 925 CURVE",
"316 925 LINE",
"310 1005 LINE SMOOTH",
"308 1035 OFFCURVE",
"295 1050 OFFCURVE",
"271 1050 CURVE SMOOTH",
"187 1050 LINE SMOOTH",
"157 1050 OFFCURVE",
"142 1035 OFFCURVE",
"142 1005 CURVE SMOOTH",
"142 -355 LINE SMOOTH",
"142 -385 OFFCURVE",
"157 -400 OFFCURVE",
"187 -400 CURVE SMOOTH"
);
},
{
closed = 1;
nodes = (
"318 640 LINE SMOOTH",
"318 842 OFFCURVE",
"428 937 OFFCURVE",
"569 937 CURVE SMOOTH",
"774 937 OFFCURVE",
"848 765 OFFCURVE",
"848 525 CURVE SMOOTH",
"848 285 OFFCURVE",
"774 113 OFFCURVE",
"569 113 CURVE SMOOTH",
"427 113 OFFCURVE",
"318 207 OFFCURVE",
"318 410 CURVE SMOOTH"
);
}
);
width = 1119;
},
{
layerId = "39B5C782-31E0-4FF6-90B4-6BA13107E116";
paths = (
{
closed = 1;
nodes = (
"356 -400 LINE SMOOTH",
"396 -400 OFFCURVE",
"416 -380 OFFCURVE",
"416 -340 CURVE SMOOTH",
"416 38 LINE SMOOTH",
"416 65 OFFCURVE",
"415 91 OFFCURVE",
"412 118 CURVE",
"416 118 LINE",
"487 2 OFFCURVE",
"565 -20 OFFCURVE",
"686 -20 CURVE SMOOTH",
"843 -20 OFFCURVE",
"953 34 OFFCURVE",
"1016 142 CURVE SMOOTH",
"1080 251 OFFCURVE",
"1112 378 OFFCURVE",
"1112 525 CURVE SMOOTH",
"1112 672 OFFCURVE",
"1079 798 OFFCURVE",
"1016 907 CURVE SMOOTH",
"952 1016 OFFCURVE",
"843 1070 OFFCURVE",
"686 1070 CURVE SMOOTH",
"565 1070 OFFCURVE",
"487 1048 OFFCURVE",
"416 932 CURVE",
"412 932 LINE",
"408 990 LINE SMOOTH",
"405 1030 OFFCURVE",
"387 1050 OFFCURVE",
"354 1050 CURVE SMOOTH",
"196 1050 LINE SMOOTH",
"156 1050 OFFCURVE",
"136 1030 OFFCURVE",
"136 990 CURVE SMOOTH",
"136 -340 LINE SMOOTH",
"136 -380 OFFCURVE",
"156 -400 OFFCURVE",
"196 -400 CURVE SMOOTH"
);
},
{
closed = 1;
nodes = (
"416 570 LINE SMOOTH",
"416 750 OFFCURVE",
"499 874 OFFCURVE",
"598 874 CURVE SMOOTH",
"781 874 OFFCURVE",
"816 733 OFFCURVE",
"816 525 CURVE SMOOTH",
"816 317 OFFCURVE",
"782 176 OFFCURVE",
"598 176 CURVE SMOOTH",
"497 176 OFFCURVE",
"416 302 OFFCURVE",
"416 480 CURVE SMOOTH"
);
}
);
width = 1192;
}
);
unicode = 0070;
},
{
glyphname = thorn;
lastChange = "2016-10-15 02:31:49 +0000";
layers = (
{
layerId = UUID0;
paths = (
{
closed = 1;
nodes = (
"273 -400 LINE SMOOTH",
"303 -400 OFFCURVE",
"318 -385 OFFCURVE",
"318 -355 CURVE SMOOTH",
"318 64 LINE SMOOTH",
"318 85 OFFCURVE",
"317 105 OFFCURVE",
"316 125 CURVE",
"318 125 LINE",
"392 36 OFFCURVE",
"471 -17 OFFCURVE",
"626 -17 CURVE SMOOTH",
"759 -17 OFFCURVE",
"861 37 OFFCURVE",
"930 146 CURVE SMOOTH",
"999 255 OFFCURVE",
"1034 382 OFFCURVE",
"1034 525 CURVE SMOOTH",
"1034 668 OFFCURVE",
"999 794 OFFCURVE",
"930 903 CURVE SMOOTH",
"861 1012 OFFCURVE",
"759 1067 OFFCURVE",
"626 1067 CURVE SMOOTH",
"471 1067 OFFCURVE",
"392 1014 OFFCURVE",
"318 925 CURVE",
"316 925 LINE",
"317 945 OFFCURVE",
"318 965 OFFCURVE",
"318 986 CURVE SMOOTH",
"318 1431 LINE SMOOTH",
"318 1461 OFFCURVE",
"303 1476 OFFCURVE",
"273 1476 CURVE SMOOTH",
"187 1476 LINE SMOOTH",
"157 1476 OFFCURVE",
"142 1461 OFFCURVE",
"142 1431 CURVE SMOOTH",
"142 -355 LINE SMOOTH",
"142 -385 OFFCURVE",
"157 -400 OFFCURVE",
"187 -400 CURVE SMOOTH"
);
},
{
closed = 1;
nodes = (
"318 640 LINE SMOOTH",
"318 842 OFFCURVE",
"428 937 OFFCURVE",
"569 937 CURVE SMOOTH",
"774 937 OFFCURVE",
"848 765 OFFCURVE",
"848 525 CURVE SMOOTH",
"848 285 OFFCURVE",
"774 113 OFFCURVE",
"569 113 CURVE SMOOTH",
"427 113 OFFCURVE",
"318 207 OFFCURVE",
"318 410 CURVE SMOOTH"
);
}
);
width = 1119;
},
{
layerId = "39B5C782-31E0-4FF6-90B4-6BA13107E116";
paths = (
{
closed = 1;
nodes = (
"356 -400 LINE SMOOTH",
"396 -400 OFFCURVE",
"416 -380 OFFCURVE",
"416 -340 CURVE SMOOTH",
"416 38 LINE SMOOTH",
"416 65 OFFCURVE",
"415 91 OFFCURVE",
"412 118 CURVE",
"416 118 LINE",
"487 2 OFFCURVE",
"565 -20 OFFCURVE",
"686 -20 CURVE SMOOTH",
"843 -20 OFFCURVE",
"953 34 OFFCURVE",
"1016 142 CURVE SMOOTH",
"1080 251 OFFCURVE",
"1112 378 OFFCURVE",
"1112 525 CURVE SMOOTH",
"1112 672 OFFCURVE",
"1079 798 OFFCURVE",
"1016 907 CURVE SMOOTH",
"952 1016 OFFCURVE",
"843 1070 OFFCURVE",
"686 1070 CURVE SMOOTH",
"565 1070 OFFCURVE",
"487 1048 OFFCURVE",
"416 932 CURVE",
"412 932 LINE",
"415 959 OFFCURVE",
"416 985 OFFCURVE",
"416 1012 CURVE SMOOTH",
"416 1416 LINE SMOOTH",
"416 1456 OFFCURVE",
"396 1476 OFFCURVE",
"356 1476 CURVE SMOOTH",
"196 1476 LINE SMOOTH",
"156 1476 OFFCURVE",
"136 1456 OFFCURVE",
"136 1416 CURVE SMOOTH",
"136 -340 LINE SMOOTH",
"136 -380 OFFCURVE",
"156 -400 OFFCURVE",
"196 -400 CURVE SMOOTH"
);
},
{
closed = 1;
nodes = (
"416 570 LINE SMOOTH",
"416 750 OFFCURVE",
"499 874 OFFCURVE",
"598 874 CURVE SMOOTH",
"781 874 OFFCURVE",
"816 733 OFFCURVE",
"816 525 CURVE SMOOTH",
"816 317 OFFCURVE",
"782 176 OFFCURVE",
"598 176 CURVE SMOOTH",
"497 176 OFFCURVE",
"416 302 OFFCURVE",
"416 480 CURVE SMOOTH"
);
}
);
width = 1192;
}
);
unicode = 00FE;
},
{
glyphname = q;
lastChange = "2016-10-15 02:31:49 +0000";
layers = (
{
layerId = UUID0;
paths = (
{
closed = 1;
nodes = (
"85 382 OFFCURVE",
"120 255 OFFCURVE",
"189 146 CURVE SMOOTH",
"258 37 OFFCURVE",
"360 -17 OFFCURVE",
"493 -17 CURVE SMOOTH",
"648 -17 OFFCURVE",
"726 36 OFFCURVE",
"801 125 CURVE",
"803 125 LINE",
"802 105 OFFCURVE",
"801 85 OFFCURVE",
"801 64 CURVE SMOOTH",
"801 -355 LINE SMOOTH",
"801 -385 OFFCURVE",
"816 -400 OFFCURVE",
"846 -400 CURVE SMOOTH",
"932 -400 LINE SMOOTH",
"962 -400 OFFCURVE",
"977 -385 OFFCURVE",
"977 -355 CURVE SMOOTH",
"977 1005 LINE SMOOTH",
"977 1035 OFFCURVE",
"962 1050 OFFCURVE",
"932 1050 CURVE SMOOTH",
"848 1050 LINE SMOOTH",
"824 1050 OFFCURVE",
"811 1035 OFFCURVE",
"809 1005 CURVE SMOOTH",
"803 925 LINE",
"801 925 LINE",
"726 1014 OFFCURVE",
"648 1067 OFFCURVE",
"493 1067 CURVE SMOOTH",
"360 1067 OFFCURVE",
"258 1012 OFFCURVE",
"189 903 CURVE SMOOTH",
"120 794 OFFCURVE",
"85 668 OFFCURVE",
"85 525 CURVE SMOOTH"
);
},
{
closed = 1;
nodes = (
"271 767 OFFCURVE",
"345 937 OFFCURVE",
"550 937 CURVE SMOOTH",
"692 937 OFFCURVE",
"801 839 OFFCURVE",
"801 640 CURVE SMOOTH",
"801 410 LINE SMOOTH",
"801 209 OFFCURVE",
"693 113 OFFCURVE",
"550 113 CURVE SMOOTH",
"345 113 OFFCURVE",
"271 283 OFFCURVE",
"271 525 CURVE SMOOTH"
);
}
);
width = 1119;
},
{
layerId = "39B5C782-31E0-4FF6-90B4-6BA13107E116";
paths = (
{
closed = 1;
nodes = (
"80 378 OFFCURVE",
"111 250 OFFCURVE",
"175 142 CURVE SMOOTH",
"238 34 OFFCURVE",
"349 -20 OFFCURVE",
"506 -20 CURVE SMOOTH",
"627 -20 OFFCURVE",
"705 2 OFFCURVE",
"776 118 CURVE",
"780 118 LINE",
"777 91 OFFCURVE",
"776 65 OFFCURVE",
"776 38 CURVE SMOOTH",
"776 -340 LINE SMOOTH",
"776 -380 OFFCURVE",
"796 -400 OFFCURVE",
"836 -400 CURVE SMOOTH",
"996 -400 LINE SMOOTH",
"1036 -400 OFFCURVE",
"1056 -380 OFFCURVE",
"1056 -340 CURVE SMOOTH",
"1056 990 LINE SMOOTH",
"1056 1030 OFFCURVE",
"1036 1050 OFFCURVE",
"996 1050 CURVE SMOOTH",
"838 1050 LINE SMOOTH",
"805 1050 OFFCURVE",
"787 1030 OFFCURVE",
"784 990 CURVE SMOOTH",
"780 932 LINE",
"776 932 LINE",
"705 1048 OFFCURVE",
"627 1070 OFFCURVE",
"506 1070 CURVE SMOOTH",
"349 1070 OFFCURVE",
"239 1016 OFFCURVE",
"175 907 CURVE SMOOTH",
"112 799 OFFCURVE",
"80 672 OFFCURVE",
"80 525 CURVE SMOOTH"
);
},
{
closed = 1;
nodes = (
"376 735 OFFCURVE",
"411 874 OFFCURVE",
"594 874 CURVE SMOOTH",
"693 874 OFFCURVE",
"776 748 OFFCURVE",
"776 570 CURVE SMOOTH",
"776 480 LINE SMOOTH",
"776 305 OFFCURVE",
"695 176 OFFCURVE",
"594 176 CURVE SMOOTH",
"410 176 OFFCURVE",
"376 315 OFFCURVE",
"376 525 CURVE SMOOTH"
);
}
);
width = 1192;
}
);
unicode = 0071;
},
{
glyphname = r;
lastChange = "2016-10-15 02:31:49 +0000";
layers = (
{
layerId = UUID0;
paths = (
{
closed = 1;
nodes = (
"273 0 LINE SMOOTH",
"303 0 OFFCURVE",
"318 15 OFFCURVE",
"318 45 CURVE SMOOTH",
"318 544 LINE SMOOTH",
"318 786 OFFCURVE",
"432 937 OFFCURVE",
"587 937 CURVE SMOOTH",
"610 937 OFFCURVE",
"635 929 OFFCURVE",
"660 929 CURVE SMOOTH",
"670 929 OFFCURVE",
"676 934 OFFCURVE",
"679 944 CURVE SMOOTH",
"702 1026 LINE SMOOTH",
"703 1029 OFFCURVE",
"703 1031 OFFCURVE",
"703 1034 CURVE SMOOTH",
"703 1057 OFFCURVE",
"668 1067 OFFCURVE",
"595 1067 CURVE SMOOTH",
"466 1067 OFFCURVE",
"384 1005 OFFCURVE",
"320 885 CURVE",
"316 885 LINE",
"316 1005 LINE SMOOTH",
"316 1035 OFFCURVE",
"301 1050 OFFCURVE",
"271 1050 CURVE SMOOTH",
"187 1050 LINE SMOOTH",
"157 1050 OFFCURVE",
"142 1035 OFFCURVE",
"142 1005 CURVE SMOOTH",
"142 45 LINE SMOOTH",
"142 15 OFFCURVE",
"157 0 OFFCURVE",
"187 0 CURVE SMOOTH"
);
}
);
width = 722;
},
{
layerId = "39B5C782-31E0-4FF6-90B4-6BA13107E116";
paths = (
{
closed = 1;
nodes = (
"356 0 LINE SMOOTH",
"396 0 OFFCURVE",
"416 20 OFFCURVE",
"416 60 CURVE SMOOTH",
"416 424 LINE SMOOTH",
"416 717 OFFCURVE",
"510 874 OFFCURVE",
"638 874 CURVE SMOOTH",
"661 874 OFFCURVE",
"692 860 OFFCURVE",
"711 860 CURVE SMOOTH",
"728 860 OFFCURVE",
"737 870 OFFCURVE",
"742 889 CURVE SMOOTH",
"770 1008 LINE SMOOTH",
"771 1012 OFFCURVE",
"771 1016 OFFCURVE",
"771 1020 CURVE SMOOTH",
"771 1058 OFFCURVE",
"712 1070 OFFCURVE",
"649 1070 CURVE SMOOTH",
"539 1070 OFFCURVE",
"451 992 OFFCURVE",
"418 908 CURVE",
"414 908 LINE",
"414 990 LINE SMOOTH",
"414 1030 OFFCURVE",
"394 1050 OFFCURVE",
"354 1050 CURVE SMOOTH",
"196 1050 LINE SMOOTH",
"156 1050 OFFCURVE",
"136 1030 OFFCURVE",
"136 990 CURVE SMOOTH",
"136 60 LINE SMOOTH",
"136 20 OFFCURVE",
"156 0 OFFCURVE",
"196 0 CURVE SMOOTH"
);
}
);
width = 786;
}
);
unicode = 0072;
},
{
glyphname = s;
lastChange = "2016-10-15 02:31:49 +0000";
layers = (
{
layerId = UUID0;
paths = (
{
closed = 1;
nodes = (
"123 60 OFFCURVE",
"279 -17 OFFCURVE",
"476 -17 CURVE SMOOTH",
"624 -17 OFFCURVE",
"719 6 OFFCURVE",
"805 106 CURVE SMOOTH",
"848 155 OFFCURVE",
"869 216 OFFCURVE",
"869 287 CURVE SMOOTH",
"869 401 OFFCURVE",
"834 488 OFFCURVE",
"687 556 CURVE SMOOTH",
"612 591 OFFCURVE",
"520 611 OFFCURVE",
"408 640 CURVE SMOOTH",
"298 668 OFFCURVE",
"272 723 OFFCURVE",
"272 790 CURVE SMOOTH",
"272 888 OFFCURVE",
"361 932 OFFCURVE",
"481 932 CURVE SMOOTH",
"546 932 OFFCURVE",
"657 893 OFFCURVE",
"705 860 CURVE SMOOTH",
"720 850 OFFCURVE",
"733 844 OFFCURVE",
"744 844 CURVE SMOOTH",
"754 844 OFFCURVE",
"763 849 OFFCURVE",
"770 858 CURVE SMOOTH",
"815 918 LINE SMOOTH",
"821 926 OFFCURVE",
"824 934 OFFCURVE",
"824 942 CURVE SMOOTH",
"824 975 OFFCURVE",
"735 1016 OFFCURVE",
"675 1038 CURVE SMOOTH",
"625 1057 OFFCURVE",
"559 1067 OFFCURVE",
"476 1067 CURVE SMOOTH",
"316 1067 OFFCURVE",
"96 997 OFFCURVE",
"96 779 CURVE SMOOTH",
"96 588 OFFCURVE",
"229 524 OFFCURVE",
"322 496 CURVE SMOOTH",
"437 461 OFFCURVE",
"484 452 OFFCURVE",
"556 426 CURVE SMOOTH",
"619 402 OFFCURVE",
"683 364 OFFCURVE",
"683 276 CURVE SMOOTH",
"683 146 OFFCURVE",
"573 113 OFFCURVE",
"477 113 CURVE SMOOTH",
"353 113 OFFCURVE",
"259 152 OFFCURVE",
"180 212 CURVE SMOOTH",
"165 223 OFFCURVE",
"152 229 OFFCURVE",
"141 229 CURVE SMOOTH",
"131 229 OFFCURVE",
"122 224 OFFCURVE",
"115 215 CURVE SMOOTH",
"70 152 LINE SMOOTH",
"65 146 OFFCURVE",
"63 139 OFFCURVE",
"63 133 CURVE SMOOTH",
"63 121 OFFCURVE",
"70 110 OFFCURVE",
"83 98 CURVE SMOOTH"
);
}
);
width = 944;
},
{
layerId = "39B5C782-31E0-4FF6-90B4-6BA13107E116";
paths = (
{
closed = 1;
nodes = (
"186 3 OFFCURVE",
"314 -20 OFFCURVE",
"502 -20 CURVE SMOOTH",
"670 -20 OFFCURVE",
"798 22 OFFCURVE",
"876 133 CURVE SMOOTH",
"914 188 OFFCURVE",
"934 247 OFFCURVE",
"934 313 CURVE SMOOTH",
"934 458 OFFCURVE",
"867 546 OFFCURVE",
"743 594 CURVE SMOOTH",
"664 624 OFFCURVE",
"589 644 OFFCURVE",
"514 668 CURVE SMOOTH",
"463 684 OFFCURVE",
"383 700 OFFCURVE",
"383 778 CURVE SMOOTH",
"383 853 OFFCURVE",
"467 874 OFFCURVE",
"540 874 CURVE SMOOTH",
"615 874 OFFCURVE",
"671 851 OFFCURVE",
"734 816 CURVE SMOOTH",
"753 805 OFFCURVE",
"769 800 OFFCURVE",
"783 800 CURVE SMOOTH",
"800 800 OFFCURVE",
"814 807 OFFCURVE",
"824 822 CURVE SMOOTH",
"885 911 LINE SMOOTH",
"892 921 OFFCURVE",
"895 930 OFFCURVE",
"895 939 CURVE SMOOTH",
"895 975 OFFCURVE",
"851 1005 OFFCURVE",
"728 1043 CURVE SMOOTH",
"669 1061 OFFCURVE",
"608 1070 OFFCURVE",
"545 1070 CURVE SMOOTH",
"360 1070 OFFCURVE",
"239 1037 OFFCURVE",
"161 936 CURVE SMOOTH",
"122 885 OFFCURVE",
"103 825 OFFCURVE",
"103 759 CURVE SMOOTH",
"103 541 OFFCURVE",
"283 460 OFFCURVE",
"544 397 CURVE SMOOTH",
"599 384 OFFCURVE",
"654 358 OFFCURVE",
"654 296 CURVE SMOOTH",
"654 195 OFFCURVE",
"563 176 OFFCURVE",
"477 176 CURVE SMOOTH",
"394 176 OFFCURVE",
"276 200 OFFCURVE",
"201 250 CURVE SMOOTH",
"184 261 OFFCURVE",
"170 266 OFFCURVE",
"157 266 CURVE SMOOTH",
"141 266 OFFCURVE",
"127 257 OFFCURVE",
"117 238 CURVE SMOOTH",
"66 145 LINE SMOOTH",
"61 136 OFFCURVE",
"59 128 OFFCURVE",
"59 120 CURVE SMOOTH",
"59 102 OFFCURVE",
"70 86 OFFCURVE",
"93 70 CURVE SMOOTH"
);
}
);
width = 1005;
}
);
unicode = 0073;
},
{
glyphname = germandbls;
lastChange = "2016-10-15 02:31:49 +0000";
layers = (
{
layerId = UUID0;
paths = (
{
closed = 1;
nodes = (
"273 0 LINE SMOOTH",
"303 0 OFFCURVE",
"318 15 OFFCURVE",
"318 45 CURVE SMOOTH",
"318 1110 LINE SMOOTH",
"318 1307 OFFCURVE",
"452 1363 OFFCURVE",
"596 1363 CURVE SMOOTH",
"745 1363 OFFCURVE",
"820 1294 OFFCURVE",
"820 1173 CURVE SMOOTH",
"819 1039 OFFCURVE",
"732 967 OFFCURVE",
"626 894 CURVE SMOOTH",
"546 839 LINE SMOOTH",
"536 832 OFFCURVE",
"531 824 OFFCURVE",
"531 814 CURVE SMOOTH",
"531 812 OFFCURVE",
"531 809 OFFCURVE",
"532 806 CURVE SMOOTH",
"567 698 LINE SMOOTH",
"572 681 OFFCURVE",
"579 673 OFFCURVE",
"587 673 CURVE SMOOTH",
"807 673 OFFCURVE",
"930 589 OFFCURVE",
"930 382 CURVE SMOOTH",
"930 209 OFFCURVE",
"852 113 OFFCURVE",
"731 113 CURVE SMOOTH",
"611 113 OFFCURVE",
"551 174 OFFCURVE",
"527 174 CURVE SMOOTH",
"516 174 OFFCURVE",
"508 169 OFFCURVE",
"501 160 CURVE SMOOTH",
"460 102 LINE SMOOTH",
"454 94 OFFCURVE",
"452 87 OFFCURVE",
"452 79 CURVE SMOOTH",
"452 44 OFFCURVE",
"538 7 OFFCURVE",
"584 -3 CURVE SMOOTH",
"624 -12 OFFCURVE",
"676 -17 OFFCURVE",
"740 -17 CURVE SMOOTH",
"996 -17 OFFCURVE",
"1116 142 OFFCURVE",
"1116 376 CURVE SMOOTH",
"1116 588 OFFCURVE",
"972 764 OFFCURVE",
"741 798 CURVE",
"741 801 LINE",
"925 916 OFFCURVE",
"996 1012 OFFCURVE",
"996 1180 CURVE SMOOTH",
"996 1343 OFFCURVE",
"849 1493 OFFCURVE",
"586 1493 CURVE SMOOTH",
"463 1493 OFFCURVE",
"359 1468 OFFCURVE",
"272 1417 CURVE SMOOTH",
"185 1366 OFFCURVE",
"142 1274 OFFCURVE",
"142 1139 CURVE SMOOTH",
"142 45 LINE SMOOTH",
"142 15 OFFCURVE",
"157 0 OFFCURVE",
"187 0 CURVE SMOOTH"
);
}
);
width = 1216;
},
{
layerId = "39B5C782-31E0-4FF6-90B4-6BA13107E116";
paths = (
{
closed = 1;
nodes = (
"356 0 LINE SMOOTH",
"396 0 OFFCURVE",
"416 20 OFFCURVE",
"416 60 CURVE SMOOTH",
"416 1040 LINE SMOOTH",
"416 1252 OFFCURVE",
"521 1300 OFFCURVE",
"656 1300 CURVE SMOOTH",
"794 1300 OFFCURVE",
"840 1228 OFFCURVE",
"840 1141 CURVE SMOOTH",
"840 1038 OFFCURVE",
"819 1000 OFFCURVE",
"682 900 CURVE SMOOTH",
"626 859 LINE SMOOTH",
"609 846 OFFCURVE",
"600 833 OFFCURVE",
"600 819 CURVE SMOOTH",
"600 815 OFFCURVE",
"601 811 OFFCURVE",
"602 807 CURVE SMOOTH",
"647 675 LINE SMOOTH",
"655 652 OFFCURVE",
"668 641 OFFCURVE",
"686 640 CURVE SMOOTH",
"854 634 OFFCURVE",
"947 532 OFFCURVE",
"947 399 CURVE SMOOTH",
"947 262 OFFCURVE",
"877 176 OFFCURVE",
"780 176 CURVE SMOOTH",
"697 176 OFFCURVE",
"636 235 OFFCURVE",
"612 235 CURVE SMOOTH",
"598 235 OFFCURVE",
"587 226 OFFCURVE",
"580 208 CURVE SMOOTH",
"534 98 LINE SMOOTH",
"531 91 OFFCURVE",
"529 84 OFFCURVE",
"529 78 CURVE SMOOTH",
"529 8 OFFCURVE",
"707 -20 OFFCURVE",
"800 -20 CURVE SMOOTH",
"1114 -20 OFFCURVE",
"1243 164 OFFCURVE",
"1243 376 CURVE SMOOTH",
"1243 635 OFFCURVE",
"1074 781 OFFCURVE",
"864 795 CURVE",
"864 798 LINE",
"1021 881 OFFCURVE",
"1120 993 OFFCURVE",
"1120 1150 CURVE SMOOTH",
"1120 1338 OFFCURVE",
"977 1496 OFFCURVE",
"654 1496 CURVE SMOOTH",
"512 1496 OFFCURVE",
"390 1465 OFFCURVE",
"288 1403 CURVE SMOOTH",
"187 1342 OFFCURVE",
"136 1244 OFFCURVE",
"136 1110 CURVE SMOOTH",
"136 60 LINE SMOOTH",
"136 20 OFFCURVE",
"156 0 OFFCURVE",
"196 0 CURVE SMOOTH"
);
}
);
width = 1337;
}
);
unicode = 00DF;
},
{
glyphname = longs;
lastChange = "2016-10-15 02:31:49 +0000";
layers = (
{
layerId = UUID0;
paths = (
{
closed = 1;
nodes = (
"273 0 LINE SMOOTH",
"303 0 OFFCURVE",
"318 15 OFFCURVE",
"318 45 CURVE SMOOTH",
"318 1170 LINE SMOOTH",
"318 1325 OFFCURVE",
"390 1363 OFFCURVE",
"469 1363 CURVE SMOOTH",
"522 1363 OFFCURVE",
"554 1349 OFFCURVE",
"578 1332 CURVE SMOOTH",
"583 1329 OFFCURVE",
"588 1327 OFFCURVE",
"592 1327 CURVE SMOOTH",
"600 1327 OFFCURVE",
"607 1333 OFFCURVE",
"613 1346 CURVE SMOOTH",
"646 1420 LINE SMOOTH",
"648 1424 OFFCURVE",
"649 1428 OFFCURVE",
"649 1431 CURVE SMOOTH",
"649 1457 OFFCURVE",
"571 1479 OFFCURVE",
"548 1484 CURVE SMOOTH",
"524 1489 OFFCURVE",
"492 1493 OFFCURVE",
"452 1493 CURVE SMOOTH",
"370 1493 OFFCURVE",
"298 1472 OFFCURVE",
"235 1429 CURVE SMOOTH",
"173 1387 OFFCURVE",
"142 1310 OFFCURVE",
"142 1199 CURVE SMOOTH",
"142 45 LINE SMOOTH",
"142 15 OFFCURVE",
"157 0 OFFCURVE",
"187 0 CURVE SMOOTH"
);
}
);
width = 580;
},
{
layerId = "39B5C782-31E0-4FF6-90B4-6BA13107E116";
paths = (
{
closed = 1;
nodes = (
"356 0 LINE SMOOTH",
"396 0 OFFCURVE",
"416 20 OFFCURVE",
"416 60 CURVE SMOOTH",
"416 1090 LINE SMOOTH",
"416 1271 OFFCURVE",
"429 1300 OFFCURVE",
"526 1300 CURVE SMOOTH",
"557 1300 OFFCURVE",
"609 1296 OFFCURVE",
"638 1285 CURVE SMOOTH",
"645 1282 OFFCURVE",
"651 1281 OFFCURVE",
"657 1281 CURVE SMOOTH",
"671 1281 OFFCURVE",
"680 1289 OFFCURVE",
"684 1305 CURVE SMOOTH",
"714 1418 LINE SMOOTH",
"715 1423 OFFCURVE",
"716 1428 OFFCURVE",
"716 1433 CURVE SMOOTH",
"716 1477 OFFCURVE",
"609 1496 OFFCURVE",
"494 1496 CURVE SMOOTH",
"397 1496 OFFCURVE",
"313 1476 OFFCURVE",
"242 1435 CURVE SMOOTH",
"171 1394 OFFCURVE",
"136 1313 OFFCURVE",
"136 1190 CURVE SMOOTH",
"136 60 LINE SMOOTH",
"136 20 OFFCURVE",
"156 0 OFFCURVE",
"196 0 CURVE SMOOTH"
);
}
);
width = 652;
}
);
unicode = 017F;
},
